<?xml version="1.0" encoding="UTF-8"?>
<svg id="_0_copy" data-name="0 copy" xmlns="http://www.w3.org/2000/svg" viewBox="0 0 500.71 435.66">
  <defs>
    <style>
      .cls-1 {
        fill: none;
        stroke: #000;
        stroke-linecap: round;
        stroke-linejoin: round;
        stroke-width: 4px;
      }
    </style>
  </defs>
  <g id="LINE">
    <line class="cls-1" x1="286.2" y1="318.96" x2="282.46" y2="322.47"/>
  </g>
  <g id="POINT">
    <line class="cls-1" x1="436.5" y1="215.73" x2="436.5" y2="215.73"/>
  </g>
  <g id="POINT-2" data-name="POINT">
    <line class="cls-1" x1="286.2" y1="318.96" x2="286.2" y2="318.96"/>
  </g>
  <g id="POINT-3" data-name="POINT">
    <line class="cls-1" x1="436.5" y1="215.73" x2="436.5" y2="215.73"/>
  </g>
  <g id="POINT-4" data-name="POINT">
    <line class="cls-1" x1="289.96" y1="341.17" x2="289.96" y2="341.17"/>
  </g>
  <g id="LWPOLYLINE">
    <polyline class="cls-1" points="335.07 253.45 335.49 252.93 336.02 252.47"/>
  </g>
  <g id="LWPOLYLINE-2" data-name="LWPOLYLINE">
    <polyline class="cls-1" points="257.36 345.47 256.75 345.94 256.04 346.28 255.26 346.49 254.44 346.56 253.6 346.48 252.78 346.27 251.99 345.91 251.28 345.44 250.65 344.86 250.14 344.19 249.76 343.46 249.53 342.69 249.44 341.91 249.51 341.14 249.74 340.41 250.1 339.75 250.6 339.17"/>
  </g>
  <g id="LWPOLYLINE-3" data-name="LWPOLYLINE">
    <polyline class="cls-1" points="281.04 310.61 281.61 310.16 282.28 309.82 283 309.61 283.77 309.52 284.56 309.56 285.35 309.72 286.11 310.01 286.81 310.41 287.44 310.91 287.99 311.5 288.42 312.16 288.73 312.87 288.91 313.6 288.95 314.34 288.86 315.06 288.63 315.74 288.27 316.36 287.8 316.9"/>
  </g>
  <g id="LWPOLYLINE-4" data-name="LWPOLYLINE">
    <polyline class="cls-1" points="362.79 320.12 361.11 321.52 359.39 322.61 357.68 323.36 356.02 323.76 354.47 323.78 353.08 323.44 351.88 322.73 350.91 321.68 350.21 320.32"/>
  </g>
  <g id="LWPOLYLINE-5" data-name="LWPOLYLINE">
    <polyline class="cls-1" points="309.99 294.64 309.2 291.25 308.86 287.53 308.98 283.53 309.55 279.32 310.57 274.97 312.02 270.55 313.87 266.13 316.1 261.78 318.66 257.58 321.53 253.59 324.64 249.88 327.95 246.5"/>
  </g>
  <g id="LWPOLYLINE-6" data-name="LWPOLYLINE">
    <polyline class="cls-1" points="205.84 344.86 208.55 346.18 211.07 346.59 213.61 346.43 217.83 345.35 222.3 343.63 225.86 342.11 229.61 340.52 231.48 339.77"/>
  </g>
  <g id="LWPOLYLINE-7" data-name="LWPOLYLINE">
    <polyline class="cls-1" points="205.84 344.86 204.81 339.39 204.27 333.57 204.21 327.45 204.63 321.06 205.55 314.46 206.93 307.7 208.79 300.83 211.09 293.89 213.83 286.95 216.98 280.06 220.52 273.26 224.43 266.6 228.67 260.15 233.21 253.95 238.02 248.03 243.06 242.46 248.29 237.27"/>
  </g>
  <g id="LWPOLYLINE-8" data-name="LWPOLYLINE">
    <polyline class="cls-1" points="199.09 203.91 199.01 201.88 199.57 199.8 200.73 197.82 202.41 196.06 204.51 194.62 206.9 193.6 209.42 193.07 211.91 193.05 214.23 193.55 216.22 194.53 217.76 195.94 218.75 197.68 219.13 199.65 218.87 201.72 218 203.77 216.56 205.65 214.65 207.26 212.38 208.49 209.91 209.26 207.38 209.53"/>
  </g>
  <g id="LWPOLYLINE-9" data-name="LWPOLYLINE">
    <polyline class="cls-1" points="283.26 254.77 284.28 260.55 285.27 266.39 285.93 270.26 286.56 273.93 286.9 275.9"/>
  </g>
  <g id="LWPOLYLINE-10" data-name="LWPOLYLINE">
    <polyline class="cls-1" points="331.18 267.53 331.25 267.59 331.3 267.65 331.33 267.72 331.34 267.79 331.32 267.86 331.28 267.93 331.22 268 331.15 268.05"/>
  </g>
  <g id="LWPOLYLINE-11" data-name="LWPOLYLINE">
    <polyline class="cls-1" points="334.78 253.39 334.89 253.44 334.99 253.46 335.05 253.45 335.06 253.44"/>
  </g>
  <g id="LWPOLYLINE-12" data-name="LWPOLYLINE">
    <polyline class="cls-1" points="331.23 267.99 331.27 268.44 331.69 270.1"/>
  </g>
  <g id="LWPOLYLINE-13" data-name="LWPOLYLINE">
    <polyline class="cls-1" points="204.96 344.78 205.81 344.86 205.84 344.86"/>
  </g>
  <g id="LWPOLYLINE-14" data-name="LWPOLYLINE">
    <polyline class="cls-1" points="30.84 229.03 29.61 223.36 29.18 217.34 29.36 213.07 29.92 208.66 30.87 204.12 32.89 197.52 35.74 190.71 39.22 184.09 43.52 177.33 47.24 172.27 51.47 167.14 55.98 162.23 60.77 157.52 66.13 152.75 69.71 149.82 73.67 146.78 78.01 143.68 82.25 140.86 86.58 138.19 90.3 136.04 95.15 133.45"/>
  </g>
  <g id="LWPOLYLINE-15" data-name="LWPOLYLINE">
    <polyline class="cls-1" points="316.68 315.22 316.82 315.31 316.96 315.41"/>
  </g>
  <g id="LWPOLYLINE-16" data-name="LWPOLYLINE">
    <polyline class="cls-1" points="369.2 226.44 369.27 226.57 369.36 226.66 369.48 226.72 369.62 226.73 369.78 226.71 369.94 226.64 370.11 226.54 370.27 226.4"/>
  </g>
  <g id="LWPOLYLINE-17" data-name="LWPOLYLINE">
    <polyline class="cls-1" points="363.58 232.68 364.71 233.12 366.1 233 367.62 232.32 369.14 231.15 370.53 229.6 371.65 227.79 372.43 225.88 372.77 224.06"/>
  </g>
  <g id="LWPOLYLINE-18" data-name="LWPOLYLINE">
    <polyline class="cls-1" points="362.85 232.9 362.8 232.84 362.77 232.75 362.76 232.65 362.78 232.53 362.82 232.4 362.88 232.27 362.96 232.15 363.06 232.05"/>
  </g>
  <g id="LWPOLYLINE-19" data-name="LWPOLYLINE">
    <polyline class="cls-1" points="282.67 356.88 280.52 358.52 278.04 359.76 275.37 360.51 272.66 360.75 270.07 360.44 267.75 359.62 265.84 358.33 264.45 356.64 263.66 354.65 263.51 352.48 264.02 350.25 264.88 348.5"/>
  </g>
  <g id="LWPOLYLINE-20" data-name="LWPOLYLINE">
    <polyline class="cls-1" points="234.83 371.7 233.79 370.98 230.4 368.39"/>
  </g>
  <g id="LWPOLYLINE-21" data-name="LWPOLYLINE">
    <polyline class="cls-1" points="230.4 368.39 224.15 363.28 217.9 357.88 211.76 352.02 209.14 349.2 206.5 346.62 205.88 346.19 205.15 345.89 202.62 345.47"/>
  </g>
  <g id="LWPOLYLINE-22" data-name="LWPOLYLINE">
    <polyline class="cls-1" points="281.27 354.8 279.19 356.37 276.77 357.5 274.18 358.13 271.6 358.2 269.19 357.72 267.13 356.72 265.55 355.25 264.57 353.44 264.24 351.39 264.6 349.25 265.61 347.16 267.21 345.27"/>
  </g>
  <g id="LWPOLYLINE-23" data-name="LWPOLYLINE">
    <polyline class="cls-1" points="266.31 346.52 265.25 348.36 264.74 350.28 264.81 352.17 265.46 353.9 266.64 355.37 268.29 356.49 270.3 357.19 272.55 357.42 274.9 357.17 277.19 356.46 279.3 355.33"/>
  </g>
  <g id="LWPOLYLINE-24" data-name="LWPOLYLINE">
    <polyline class="cls-1" points="279.3 355.33 276.44 356.35 273.48 356.65 270.68 356.25 268.32 355.14 266.56 353.45 265.61 351.32 265.51 348.94 266.31 346.52"/>
  </g>
  <g id="LWPOLYLINE-25" data-name="LWPOLYLINE">
    <polyline class="cls-1" points="401.82 195.83 401.89 195.96 401.98 196.05 402.1 196.11 402.24 196.12 402.39 196.1 402.56 196.03 402.73 195.93 402.89 195.79"/>
  </g>
  <g id="LWPOLYLINE-26" data-name="LWPOLYLINE">
    <polyline class="cls-1" points="396.2 202.07 397.33 202.51 398.72 202.39 400.24 201.71 401.76 200.54 403.14 198.99 404.27 197.18 405.04 195.27 405.39 193.45"/>
  </g>
  <g id="LWPOLYLINE-27" data-name="LWPOLYLINE">
    <polyline class="cls-1" points="395.47 202.29 395.42 202.23 395.38 202.14 395.38 202.04 395.4 201.92 395.44 201.79 395.5 201.66 395.58 201.54 395.68 201.44"/>
  </g>
  <g id="LWPOLYLINE-28" data-name="LWPOLYLINE">
    <polyline class="cls-1" points="273.9 339.03 275.41 337.97 277.83 336.84 280.42 336.21 283.01 336.14 285.41 336.62 287.47 337.62 289.05 339.08 290.03 340.9 290.36 342.95 290 345.09 288.99 347.17 287.39 349.06"/>
  </g>
  <g id="LWPOLYLINE-29" data-name="LWPOLYLINE">
    <polyline class="cls-1" points="288.05 347.11 289.11 345.27 289.62 343.35 289.55 341.47 288.9 339.73 287.72 338.26 286.07 337.14 284.06 336.45 281.81 336.22 279.46 336.46 277.17 337.17 275.06 338.31"/>
  </g>
  <g id="LWPOLYLINE-30" data-name="LWPOLYLINE">
    <polyline class="cls-1" points="275.06 338.31 277.92 337.29 280.88 336.99 283.68 337.39 286.04 338.5 287.8 340.18 288.75 342.32 288.85 344.7 288.05 347.11"/>
  </g>
  <g id="LWPOLYLINE-31" data-name="LWPOLYLINE">
    <polyline class="cls-1" points="363.4 80.24 362.16 81.85 359.69 82.99 355.86 83.69 352.31 83.71 348.62 83.09 345.68 81.97 343.64 80.53 342.49 78.92 342.24 77.26 342.96 75.69 344.73 74.39 347.65 73.59 351.68 73.58 355.47 74.31 358.38 75.33 360.57 76.44 362.23 77.67 363.15 78.82 363.4 80.24"/>
  </g>
  <g id="LWPOLYLINE-32" data-name="LWPOLYLINE">
    <polyline class="cls-1" points="429.45 162.68 429.59 162.72 429.71 162.71 429.79 162.67 429.82 162.6 429.81 162.5 429.75 162.38 429.65 162.25 429.52 162.13"/>
  </g>
  <g id="LWPOLYLINE-33" data-name="LWPOLYLINE">
    <polyline class="cls-1" points="429.45 162.68 424.85 168.33 419.73 173.51"/>
  </g>
  <g id="LWPOLYLINE-34" data-name="LWPOLYLINE">
    <polyline class="cls-1" points="465.75 251.09 470.24 246.53 474.26 241.72 477.77 236.7 480.76 231.51 483.19 226.19 485.03 220.8 486.29 215.37 486.94 209.96 486.98 204.6 486.41 199.36 485.23 194.26 483.8 190.18"/>
  </g>
  <g id="LWPOLYLINE-35" data-name="LWPOLYLINE">
    <polyline class="cls-1" points="444.35 163.67 444.63 164.42 445.76 167.4 450.26 179.36 462.99 213.2"/>
  </g>
  <g id="LWPOLYLINE-36" data-name="LWPOLYLINE">
    <polyline class="cls-1" points="431.05 161.01 431.18 161.07 431.28 161.08 431.36 161.04 431.41 160.95 431.41 160.83 431.37 160.68 431.3 160.52 431.2 160.36"/>
  </g>
  <g id="LWPOLYLINE-37" data-name="LWPOLYLINE">
    <polyline class="cls-1" points="350.38 320.01 350.55 320.39 352.32 322.34 354.87 323.04 357.91 322.41 361.08 320.52 362.27 319.5"/>
  </g>
  <g id="LWPOLYLINE-38" data-name="LWPOLYLINE">
    <polyline class="cls-1" points="465.75 251.09 470.24 246.53 474.26 241.72 477.77 236.7 480.76 231.51 483.19 226.19 485.03 220.8 486.29 215.37 486.94 209.96 486.98 204.6 486.41 199.36 485.23 194.26 483.8 190.18"/>
  </g>
  <g id="LWPOLYLINE-39" data-name="LWPOLYLINE">
    <polyline class="cls-1" points="466.69 253.82 471.18 249.27 475.2 244.45 478.72 239.43 481.7 234.24 484.13 228.93 485.98 223.53 487.24 218.1 487.89 212.69 487.92 207.34 487.35 202.09 486.18 196.99 485.56 195.07"/>
  </g>
  <g id="LWPOLYLINE-40" data-name="LWPOLYLINE">
    <polyline class="cls-1" points="335.06 253.44 335.07 253.41 335.06 253.34 335.01 253.25 334.93 253.14 334.82 253.03"/>
  </g>
  <g id="LWPOLYLINE-41" data-name="LWPOLYLINE">
    <polyline class="cls-1" points="335.99 252.42 336.01 252.38 336 252.3 335.96 252.2 335.9 252.07 335.8 251.95"/>
  </g>
  <g id="LWPOLYLINE-42" data-name="LWPOLYLINE">
    <polyline class="cls-1" points="419.78 173.79 419.8 173.74 419.8 173.66 419.76 173.56 419.69 173.44 419.6 173.31"/>
  </g>
  <g id="LWPOLYLINE-43" data-name="LWPOLYLINE">
    <polyline class="cls-1" points="372.25 223.42 372.35 223.34 372.46 223.29 372.56 223.26 372.64 223.27 372.71 223.3"/>
  </g>
  <g id="LWPOLYLINE-44" data-name="LWPOLYLINE">
    <polyline class="cls-1" points="267.22 345.12 267.24 345.11 267.27 345.1 267.32 345.11 267.37 345.13 267.43 345.16"/>
  </g>
  <g id="LWPOLYLINE-45" data-name="LWPOLYLINE">
    <polyline class="cls-1" points="462.26 137.58 462.61 139.72 461.9 142.33 460.24 145.56 457.55 149.38 453.8 153.72 448.92 158.57 444.01 162.9"/>
  </g>
  <g id="LWPOLYLINE-46" data-name="LWPOLYLINE">
    <polyline class="cls-1" points="273.55 339.42 273.49 339.39 273.43 339.37 273.39 339.37 273.35 339.37 273.34 339.38"/>
  </g>
  <g id="LWPOLYLINE-47" data-name="LWPOLYLINE">
    <polyline class="cls-1" points="294.41 21.1 291.79 19.53 287.86 17.82 283.62 16.66 279.1 16.08 274.33 16.07 269.36 16.65 264.21 17.79 258.92 19.49 253.54 21.75 248.1 24.55 242.64 27.85 237.2 31.65 231.82 35.91 226.54 40.6"/>
  </g>
  <g id="LWPOLYLINE-48" data-name="LWPOLYLINE">
    <polyline class="cls-1" points="404.87 192.81 404.97 192.73 405.07 192.68 405.17 192.65 405.26 192.66 405.32 192.68"/>
  </g>
  <g id="LWPOLYLINE-49" data-name="LWPOLYLINE">
    <polyline class="cls-1" points="36.47 139.39 39.57 136.84 43.83 134.39 47.53 132.87 51.74 131.62 56.21 130.71 60.97 130.13 66.3 129.87 69.86 129.88 73.79 130.06 78.11 130.43 82.32 130.95 86.62 131.65 90.32 132.36 95.15 133.45"/>
  </g>
  <g id="LWPOLYLINE-50" data-name="LWPOLYLINE">
    <polyline class="cls-1" points="147.73 34.92 149.57 33.58 151.95 32.61 154.74 32.13 157.91 32.15 161.45 32.66 165.31 33.67 169.49 35.16 173.94 37.13 178.64 39.56 183.54 42.43 188.63 45.72"/>
  </g>
  <g id="LINE-2" data-name="LINE">
    <line class="cls-1" x1="249.64" y1="343.12" x2="250.32" y2="345.27"/>
  </g>
  <g id="LINE-3" data-name="LINE">
    <line class="cls-1" x1="264.41" y1="350.5" x2="264.37" y2="350.43"/>
  </g>
  <g id="LINE-4" data-name="LINE">
    <line class="cls-1" x1="288.93" y1="313.39" x2="288.68" y2="312.74"/>
  </g>
  <g id="LINE-5" data-name="LINE">
    <line class="cls-1" x1="335.99" y1="252.42" x2="419.78" y2="173.79"/>
  </g>
  <g id="LINE-6" data-name="LINE">
    <line class="cls-1" x1="350.37" y1="319.85" x2="331.82" y2="270.27"/>
  </g>
  <g id="LINE-7" data-name="LINE">
    <line class="cls-1" x1="369.36" y1="225.97" x2="368.08" y2="222.3"/>
  </g>
  <g id="LINE-8" data-name="LINE">
    <line class="cls-1" x1="359.29" y1="230.55" x2="362.95" y2="232.97"/>
  </g>
  <g id="LINE-9" data-name="LINE">
    <line class="cls-1" x1="372.71" y1="223.3" x2="369.46" y2="221.01"/>
  </g>
  <g id="LINE-10" data-name="LINE">
    <line class="cls-1" x1="264.48" y1="353.17" x2="265.31" y2="356.05"/>
  </g>
  <g id="LINE-11" data-name="LINE">
    <line class="cls-1" x1="401.97" y1="195.36" x2="400.7" y2="191.69"/>
  </g>
  <g id="LINE-12" data-name="LINE">
    <line class="cls-1" x1="265.53" y1="356.67" x2="266.38" y2="358.77"/>
  </g>
  <g id="LINE-13" data-name="LINE">
    <line class="cls-1" x1="391.91" y1="199.94" x2="395.56" y2="202.36"/>
  </g>
  <g id="LINE-14" data-name="LINE">
    <line class="cls-1" x1="291.04" y1="343.34" x2="289.91" y2="340.56"/>
  </g>
  <g id="LINE-15" data-name="LINE">
    <line class="cls-1" x1="457.79" y1="131.86" x2="294.41" y2="21.1"/>
  </g>
  <g id="LINE-16" data-name="LINE">
    <line class="cls-1" x1="291.88" y1="346.14" x2="291.25" y2="343.96"/>
  </g>
  <g id="LINE-17" data-name="LINE">
    <line class="cls-1" x1="405.32" y1="192.69" x2="402.08" y2="190.4"/>
  </g>
  <g id="LINE-18" data-name="LINE">
    <line class="cls-1" x1="483.8" y1="190.18" x2="462.38" y2="137.54"/>
  </g>
  <g id="LINE-19" data-name="LINE">
    <line class="cls-1" x1="273.34" y1="339.38" x2="267.22" y2="345.12"/>
  </g>
  <g id="LINE-20" data-name="LINE">
    <line class="cls-1" x1="147.73" y1="34.92" x2="36.55" y2="139.26"/>
  </g>
  <g id="LINE-21" data-name="LINE">
    <line class="cls-1" x1="16.02" y1="208.83" x2="26.33" y2="244.67"/>
  </g>
  <g id="LINE-22" data-name="LINE">
    <line class="cls-1" x1="485.56" y1="195.07" x2="484.61" y2="192.34"/>
  </g>
  <g id="LINE-23" data-name="LINE">
    <line class="cls-1" x1="26.88" y1="246.43" x2="27.83" y2="249.16"/>
  </g>
  <g id="LINE-24" data-name="LINE">
    <line class="cls-1" x1="257.36" y1="345.47" x2="257.52" y2="345.91"/>
  </g>
  <g id="LINE-25" data-name="LINE">
    <line class="cls-1" x1="287.8" y1="316.9" x2="257.36" y2="345.47"/>
  </g>
  <g id="LINE-26" data-name="LINE">
    <line class="cls-1" x1="250.6" y1="339.17" x2="281.04" y2="310.61"/>
  </g>
  <g id="LINE-27" data-name="LINE">
    <line class="cls-1" x1="257.85" y1="345.66" x2="257.36" y2="345.47"/>
  </g>
  <g id="LINE-28" data-name="LINE">
    <line class="cls-1" x1="257.85" y1="345.66" x2="257.92" y2="345.87"/>
  </g>
  <g id="LINE-29" data-name="LINE">
    <line class="cls-1" x1="257.92" y1="345.87" x2="257.58" y2="345.92"/>
  </g>
  <g id="LINE-30" data-name="LINE">
    <line class="cls-1" x1="288" y1="317.37" x2="287.8" y2="316.9"/>
  </g>
  <g id="LINE-31" data-name="LINE">
    <line class="cls-1" x1="288" y1="317.37" x2="257.85" y2="345.66"/>
  </g>
  <g id="LINE-32" data-name="LINE">
    <line class="cls-1" x1="288.07" y1="317.57" x2="288" y2="317.37"/>
  </g>
  <g id="LINE-33" data-name="LINE">
    <line class="cls-1" x1="257.92" y1="345.87" x2="288.07" y2="317.57"/>
  </g>
  <g id="LINE-34" data-name="LINE">
    <line class="cls-1" x1="250.55" y1="339.15" x2="250.57" y2="339.2"/>
  </g>
  <g id="LINE-35" data-name="LINE">
    <line class="cls-1" x1="250.55" y1="339.15" x2="250.48" y2="338.95"/>
  </g>
  <g id="LINE-36" data-name="LINE">
    <line class="cls-1" x1="250.48" y1="338.95" x2="250.6" y2="339.17"/>
  </g>
  <g id="LINE-37" data-name="LINE">
    <line class="cls-1" x1="250.48" y1="338.95" x2="280.63" y2="310.66"/>
  </g>
  <g id="LINE-38" data-name="LINE">
    <line class="cls-1" x1="280.63" y1="310.66" x2="281.04" y2="310.61"/>
  </g>
  <g id="LINE-39" data-name="LINE">
    <line class="cls-1" x1="264.89" y1="354.59" x2="263.91" y2="355.51"/>
  </g>
  <g id="LINE-40" data-name="LINE">
    <line class="cls-1" x1="264.52" y1="352.39" x2="263.96" y2="351.72"/>
  </g>
  <g id="LINE-41" data-name="LINE">
    <line class="cls-1" x1="417.66" y1="186.54" x2="414.85" y2="178.42"/>
  </g>
  <g id="LINE-42" data-name="LINE">
    <line class="cls-1" x1="457.59" y1="231.16" x2="362.79" y2="320.12"/>
  </g>
  <g id="LINE-43" data-name="LINE">
    <line class="cls-1" x1="458.09" y1="230.67" x2="465.75" y2="251.09"/>
  </g>
  <g id="LINE-44" data-name="LINE">
    <line class="cls-1" x1="299.6" y1="407.02" x2="465.75" y2="251.09"/>
  </g>
  <g id="LINE-45" data-name="LINE">
    <line class="cls-1" x1="288.28" y1="376.84" x2="299.6" y2="407.02"/>
  </g>
  <g id="LINE-46" data-name="LINE">
    <line class="cls-1" x1="338.35" y1="329.85" x2="288.28" y2="376.84"/>
  </g>
  <g id="LINE-47" data-name="LINE">
    <line class="cls-1" x1="326.19" y1="292.45" x2="338.35" y2="329.85"/>
  </g>
  <g id="LINE-48" data-name="LINE">
    <line class="cls-1" x1="350.21" y1="320.32" x2="331.67" y2="270.74"/>
  </g>
  <g id="LINE-49" data-name="LINE">
    <line class="cls-1" x1="95.15" y1="133.45" x2="199.09" y2="203.91"/>
  </g>
  <g id="LINE-50" data-name="LINE">
    <line class="cls-1" x1="188.63" y1="45.72" x2="95.15" y2="133.45"/>
  </g>
  <g id="LINE-51" data-name="LINE">
    <line class="cls-1" x1="412.8" y1="166.87" x2="226.54" y2="40.6"/>
  </g>
  <g id="LINE-52" data-name="LINE">
    <line class="cls-1" x1="327.95" y1="246.5" x2="412.8" y2="166.87"/>
  </g>
  <g id="LINE-53" data-name="LINE">
    <line class="cls-1" x1="275.98" y1="211.28" x2="327.95" y2="246.5"/>
  </g>
  <g id="LINE-54" data-name="LINE">
    <line class="cls-1" x1="248.29" y1="237.27" x2="275.98" y2="211.28"/>
  </g>
  <g id="LINE-55" data-name="LINE">
    <line class="cls-1" x1="207.38" y1="209.53" x2="248.29" y2="237.27"/>
  </g>
  <g id="LINE-56" data-name="LINE">
    <line class="cls-1" x1="309.99" y1="294.64" x2="287.81" y2="279.61"/>
  </g>
  <g id="LINE-57" data-name="LINE">
    <line class="cls-1" x1="335.8" y1="251.95" x2="419.6" y2="173.31"/>
  </g>
  <g id="LINE-58" data-name="LINE">
    <line class="cls-1" x1="334.82" y1="253.03" x2="335.8" y2="251.95"/>
  </g>
  <g id="LINE-59" data-name="LINE">
    <line class="cls-1" x1="335.98" y1="252.43" x2="335.99" y2="252.42"/>
  </g>
  <g id="LINE-60" data-name="LINE">
    <line class="cls-1" x1="202.62" y1="345.47" x2="30.84" y2="229.03"/>
  </g>
  <g id="LINE-61" data-name="LINE">
    <line class="cls-1" x1="316.68" y1="315.22" x2="309.99" y2="294.64"/>
  </g>
  <g id="LINE-62" data-name="LINE">
    <line class="cls-1" x1="372.77" y1="224.06" x2="370.27" y2="226.4"/>
  </g>
  <g id="LINE-63" data-name="LINE">
    <line class="cls-1" x1="366.08" y1="230.34" x2="363.58" y2="232.68"/>
  </g>
  <g id="LINE-64" data-name="LINE">
    <line class="cls-1" x1="294.51" y1="300.19" x2="316.68" y2="315.22"/>
  </g>
  <g id="LINE-65" data-name="LINE">
    <line class="cls-1" x1="287.81" y1="279.61" x2="294.51" y2="300.19"/>
  </g>
  <g id="LINE-66" data-name="LINE">
    <line class="cls-1" x1="245.42" y1="329.99" x2="274.26" y2="302.92"/>
  </g>
  <g id="LINE-67" data-name="LINE">
    <line class="cls-1" x1="274.26" y1="302.92" x2="267.56" y2="282.34"/>
  </g>
  <g id="LINE-68" data-name="LINE">
    <line class="cls-1" x1="363.06" y1="232.05" x2="365.56" y2="229.7"/>
  </g>
  <g id="LINE-69" data-name="LINE">
    <line class="cls-1" x1="362.95" y1="232.97" x2="362.85" y2="232.9"/>
  </g>
  <g id="LINE-70" data-name="LINE">
    <line class="cls-1" x1="250.03" y1="382.01" x2="259.07" y2="412.49"/>
  </g>
  <g id="LINE-71" data-name="LINE">
    <line class="cls-1" x1="369.75" y1="225.77" x2="372.25" y2="223.42"/>
  </g>
  <g id="LINE-72" data-name="LINE">
    <line class="cls-1" x1="288.79" y1="351.14" x2="282.67" y2="356.88"/>
  </g>
  <g id="LINE-73" data-name="LINE">
    <line class="cls-1" x1="304.33" y1="330.04" x2="291.74" y2="341.86"/>
  </g>
  <g id="LINE-74" data-name="LINE">
    <line class="cls-1" x1="287.37" y1="318.54" x2="258.53" y2="345.6"/>
  </g>
  <g id="LINE-75" data-name="LINE">
    <line class="cls-1" x1="284.25" y1="336.31" x2="296.55" y2="324.77"/>
  </g>
  <g id="LINE-76" data-name="LINE">
    <line class="cls-1" x1="250.03" y1="382.01" x2="234.83" y2="371.7"/>
  </g>
  <g id="LINE-77" data-name="LINE">
    <line class="cls-1" x1="41.5" y1="265" x2="259.07" y2="412.49"/>
  </g>
  <g id="LINE-78" data-name="LINE">
    <line class="cls-1" x1="30.84" y1="229.03" x2="41.5" y2="265"/>
  </g>
  <g id="LINE-79" data-name="LINE">
    <line class="cls-1" x1="264.4" y1="350" x2="264.23" y2="350.21"/>
  </g>
  <g id="LINE-80" data-name="LINE">
    <line class="cls-1" x1="266.31" y1="346.52" x2="267.43" y2="345.16"/>
  </g>
  <g id="LINE-81" data-name="LINE">
    <line class="cls-1" x1="280.81" y1="354.23" x2="279.3" y2="355.33"/>
  </g>
  <g id="LINE-82" data-name="LINE">
    <line class="cls-1" x1="405.39" y1="193.45" x2="402.89" y2="195.79"/>
  </g>
  <g id="LINE-83" data-name="LINE">
    <line class="cls-1" x1="398.7" y1="199.72" x2="396.2" y2="202.07"/>
  </g>
  <g id="LINE-84" data-name="LINE">
    <line class="cls-1" x1="257.4" y1="346.02" x2="257.52" y2="345.91"/>
  </g>
  <g id="LINE-85" data-name="LINE">
    <line class="cls-1" x1="267.43" y1="345.16" x2="268.67" y2="343.97"/>
  </g>
  <g id="LINE-86" data-name="LINE">
    <line class="cls-1" x1="282.09" y1="353.07" x2="280.81" y2="354.23"/>
  </g>
  <g id="LINE-87" data-name="LINE">
    <line class="cls-1" x1="287.39" y1="349.06" x2="281.27" y2="354.8"/>
  </g>
  <g id="LINE-88" data-name="LINE">
    <line class="cls-1" x1="285.7" y1="349.68" x2="282.09" y2="353.07"/>
  </g>
  <g id="LINE-89" data-name="LINE">
    <line class="cls-1" x1="286.93" y1="348.49" x2="285.7" y2="349.68"/>
  </g>
  <g id="LINE-90" data-name="LINE">
    <line class="cls-1" x1="303.6" y1="329.55" x2="297.28" y2="325.26"/>
  </g>
  <g id="LINE-91" data-name="LINE">
    <line class="cls-1" x1="395.68" y1="201.44" x2="398.18" y2="199.09"/>
  </g>
  <g id="LINE-92" data-name="LINE">
    <line class="cls-1" x1="288.05" y1="347.11" x2="286.93" y2="348.49"/>
  </g>
  <g id="LINE-93" data-name="LINE">
    <line class="cls-1" x1="273.55" y1="339.42" x2="275.06" y2="338.31"/>
  </g>
  <g id="LINE-94" data-name="LINE">
    <line class="cls-1" x1="272.28" y1="340.58" x2="273.55" y2="339.42"/>
  </g>
  <g id="LINE-95" data-name="LINE">
    <line class="cls-1" x1="429.52" y1="162.13" x2="431.2" y2="160.36"/>
  </g>
  <g id="LINE-96" data-name="LINE">
    <line class="cls-1" x1="395.56" y1="202.36" x2="395.47" y2="202.29"/>
  </g>
  <g id="LINE-97" data-name="LINE">
    <line class="cls-1" x1="402.36" y1="195.16" x2="404.87" y2="192.81"/>
  </g>
  <g id="LINE-98" data-name="LINE">
    <line class="cls-1" x1="290.94" y1="343.11" x2="290.65" y2="342.06"/>
  </g>
  <g id="LINE-99" data-name="LINE">
    <line class="cls-1" x1="268.67" y1="343.97" x2="272.28" y2="340.58"/>
  </g>
  <g id="LINE-100" data-name="LINE">
    <line class="cls-1" x1="290.45" y1="341.89" x2="303.6" y2="329.55"/>
  </g>
  <g id="LINE-101" data-name="LINE">
    <line class="cls-1" x1="290.65" y1="342.06" x2="303.69" y2="329.83"/>
  </g>
  <g id="LINE-102" data-name="LINE">
    <line class="cls-1" x1="444.01" y1="162.9" x2="444.35" y2="163.67"/>
  </g>
  <g id="LINE-103" data-name="LINE">
    <line class="cls-1" x1="443.49" y1="163.87" x2="443.16" y2="163.14"/>
  </g>
  <g id="LINE-104" data-name="LINE">
    <line class="cls-1" x1="431.05" y1="161.01" x2="429.45" y2="162.68"/>
  </g>
  <g id="LINE-105" data-name="LINE">
    <line class="cls-1" x1="297.28" y1="325.26" x2="285.23" y2="336.56"/>
  </g>
  <g id="LINE-106" data-name="LINE">
    <line class="cls-1" x1="291.78" y1="341.99" x2="290.87" y2="342.84"/>
  </g>
  <g id="LINE-107" data-name="LINE">
    <line class="cls-1" x1="284.56" y1="336.38" x2="296.64" y2="325.05"/>
  </g>
  <g id="LINE-108" data-name="LINE">
    <line class="cls-1" x1="415.16" y1="178.13" x2="417.28" y2="184.27"/>
  </g>
  <g id="LINE-109" data-name="LINE">
    <line class="cls-1" x1="462.12" y1="213.4" x2="443.49" y2="163.87"/>
  </g>
  <g id="LINE-110" data-name="LINE">
    <line class="cls-1" x1="417.28" y1="184.27" x2="462.12" y2="213.4"/>
  </g>
  <g id="LINE-111" data-name="LINE">
    <line class="cls-1" x1="411.65" y1="199.21" x2="457.07" y2="230.54"/>
  </g>
  <g id="LINE-112" data-name="LINE">
    <line class="cls-1" x1="362.27" y1="319.5" x2="457.07" y2="230.54"/>
  </g>
  <g id="LINE-113" data-name="LINE">
    <line class="cls-1" x1="411.65" y1="199.21" x2="332.89" y2="273.12"/>
  </g>
  <g id="LINE-114" data-name="LINE">
    <line class="cls-1" x1="457.07" y1="230.54" x2="457.55" y2="230.07"/>
  </g>
  <g id="LINE-115" data-name="LINE">
    <line class="cls-1" x1="259.07" y1="412.49" x2="260.01" y2="415.23"/>
  </g>
  <g id="LINE-116" data-name="LINE">
    <line class="cls-1" x1="299.6" y1="407.02" x2="300.54" y2="409.75"/>
  </g>
  <g id="LINE-117" data-name="LINE">
    <line class="cls-1" x1="465.75" y1="251.09" x2="466.69" y2="253.82"/>
  </g>
  <g id="LINE-118" data-name="LINE">
    <line class="cls-1" x1="300.54" y1="409.75" x2="466.69" y2="253.82"/>
  </g>
  <g id="LINE-119" data-name="LINE">
    <line class="cls-1" x1="41.5" y1="265" x2="42.44" y2="267.74"/>
  </g>
  <g id="LINE-120" data-name="LINE">
    <line class="cls-1" x1="42.44" y1="267.74" x2="260.01" y2="415.23"/>
  </g>
  <g id="LINE-121" data-name="LINE">
    <line class="cls-1" x1="365.29" y1="224.92" x2="366.65" y2="228.84"/>
  </g>
  <g id="LINE-122" data-name="LINE">
    <line class="cls-1" x1="369.2" y1="226.44" x2="367.85" y2="222.52"/>
  </g>
  <g id="LINE-123" data-name="LINE">
    <line class="cls-1" x1="365.84" y1="228.95" x2="364.65" y2="225.52"/>
  </g>
  <g id="LINE-124" data-name="LINE">
    <line class="cls-1" x1="363.01" y1="227.06" x2="365.84" y2="228.95"/>
  </g>
  <g id="LINE-125" data-name="LINE">
    <line class="cls-1" x1="362.85" y1="232.9" x2="359.3" y2="230.55"/>
  </g>
  <g id="LINE-126" data-name="LINE">
    <line class="cls-1" x1="359.92" y1="229.97" x2="363.06" y2="232.05"/>
  </g>
  <g id="LINE-127" data-name="LINE">
    <line class="cls-1" x1="365.56" y1="229.7" x2="362.43" y2="227.61"/>
  </g>
  <g id="LINE-128" data-name="LINE">
    <line class="cls-1" x1="369.14" y1="225.35" x2="369.75" y2="225.77"/>
  </g>
  <g id="LINE-129" data-name="LINE">
    <line class="cls-1" x1="372.25" y1="223.42" x2="369.19" y2="221.27"/>
  </g>
  <g id="LINE-130" data-name="LINE">
    <line class="cls-1" x1="397.91" y1="194.31" x2="399.27" y2="198.23"/>
  </g>
  <g id="LINE-131" data-name="LINE">
    <line class="cls-1" x1="401.82" y1="195.83" x2="400.47" y2="191.91"/>
  </g>
  <g id="LINE-132" data-name="LINE">
    <line class="cls-1" x1="281.27" y1="354.8" x2="282.21" y2="357.29"/>
  </g>
  <g id="LINE-133" data-name="LINE">
    <line class="cls-1" x1="398.46" y1="198.34" x2="397.27" y2="194.91"/>
  </g>
  <g id="LINE-134" data-name="LINE">
    <line class="cls-1" x1="395.63" y1="196.45" x2="398.46" y2="198.34"/>
  </g>
  <g id="LINE-135" data-name="LINE">
    <line class="cls-1" x1="287.39" y1="349.06" x2="288.33" y2="351.57"/>
  </g>
  <g id="LINE-136" data-name="LINE">
    <line class="cls-1" x1="395.47" y1="202.29" x2="391.92" y2="199.94"/>
  </g>
  <g id="LINE-137" data-name="LINE">
    <line class="cls-1" x1="392.54" y1="199.35" x2="395.68" y2="201.44"/>
  </g>
  <g id="LINE-138" data-name="LINE">
    <line class="cls-1" x1="398.18" y1="199.09" x2="395.05" y2="197"/>
  </g>
  <g id="LINE-139" data-name="LINE">
    <line class="cls-1" x1="401.76" y1="194.73" x2="402.36" y2="195.16"/>
  </g>
  <g id="LINE-140" data-name="LINE">
    <line class="cls-1" x1="404.87" y1="192.81" x2="401.81" y2="190.65"/>
  </g>
  <g id="LINE-141" data-name="LINE">
    <line class="cls-1" x1="437.2" y1="159.79" x2="443.49" y2="163.87"/>
  </g>
  <g id="LINE-142" data-name="LINE">
    <line class="cls-1" x1="303.69" y1="329.83" x2="302.88" y2="331.4"/>
  </g>
  <g id="LINE-143" data-name="LINE">
    <line class="cls-1" x1="296.64" y1="325.05" x2="295.83" y2="326.62"/>
  </g>
  <g id="LINE-144" data-name="LINE">
    <line class="cls-1" x1="346.05" y1="308.31" x2="362.27" y2="319.5"/>
  </g>
  <g id="ARC">
    <path class="cls-1" d="m372.96,223.83c.01-.21-.08-.41-.25-.53"/>
  </g>
  <g id="ARC-2" data-name="ARC">
    <path class="cls-1" d="m462.37,137.53c-.83-2.38-2.45-4.38-4.59-5.67"/>
  </g>
  <g id="ARC-3" data-name="ARC">
    <path class="cls-1" d="m405.57,193.22c.01-.21-.08-.41-.25-.53"/>
  </g>
  <g id="ARC-4" data-name="ARC">
    <path class="cls-1" d="m36.54,139.26c-19.04,17.57-26.93,44.36-20.51,69.63"/>
  </g>
  <g id="ARC-5" data-name="ARC">
    <path class="cls-1" d="m294.41,21.1c-46.26-29.92-106.65-24.23-146.68,13.82"/>
  </g>
  <g id="ARC-6" data-name="ARC">
    <path class="cls-1" d="m457.59,231.16c.17-.16.34-.32.5-.49"/>
  </g>
  <g id="ARC-7" data-name="ARC">
    <path class="cls-1" d="m331.15,268.05c-5.03,7.04-6.83,15.92-4.96,24.39"/>
  </g>
  <g id="ARC-8" data-name="ARC">
    <path class="cls-1" d="m331.15,268.05c.03.92.21,1.82.52,2.68"/>
  </g>
  <g id="ARC-9" data-name="ARC">
    <path class="cls-1" d="m309.99,294.64c5.32,2.79,11.79,1.92,16.2-2.19"/>
  </g>
  <g id="ARC-10" data-name="ARC">
    <path class="cls-1" d="m334.82,253.03c-1.97-2.5-4.28-4.7-6.87-6.53"/>
  </g>
  <g id="ARC-11" data-name="ARC">
    <path class="cls-1" d="m334.82,253.03c-2.93,4.41-4.23,9.73-3.67,15.02"/>
  </g>
  <g id="ARC-12" data-name="ARC">
    <path class="cls-1" d="m231.48,339.77c5.34-2.11,10.11-5.46,13.94-9.78"/>
  </g>
  <g id="ARC-13" data-name="ARC">
    <path class="cls-1" d="m267.2,255.84c-.49,7.13-.78,14.27-.84,21.42"/>
  </g>
  <g id="ARC-14" data-name="ARC">
    <path class="cls-1" d="m226.54,40.6c-12.37-6.93-27.76-4.85-37.91,5.12"/>
  </g>
  <g id="ARC-15" data-name="ARC">
    <path class="cls-1" d="m286.9,275.9c.21,1.26.51,2.5.92,3.71"/>
  </g>
  <g id="ARC-16" data-name="ARC">
    <path class="cls-1" d="m275.98,211.28c2.14,14.54,4.57,29.04,7.28,43.49"/>
  </g>
  <g id="ARC-17" data-name="ARC">
    <path class="cls-1" d="m334.78,253.39c-2.76,4.16-4.03,9.15-3.59,14.14"/>
  </g>
  <g id="ARC-18" data-name="ARC">
    <path class="cls-1" d="m419.6,173.31c-1.95-2.46-4.24-4.63-6.79-6.43"/>
  </g>
  <g id="ARC-19" data-name="ARC">
    <path class="cls-1" d="m331.82,270.27c-.03-.07-.07-.13-.13-.17"/>
  </g>
  <g id="ARC-20" data-name="ARC">
    <path class="cls-1" d="m202.62,345.47c.79-.2,1.57-.44,2.34-.7"/>
  </g>
  <g id="ARC-21" data-name="ARC">
    <path class="cls-1" d="m199.09,203.91c1.06,3.66,4.55,6.03,8.29,5.62"/>
  </g>
  <g id="ARC-22" data-name="ARC">
    <path class="cls-1" d="m338.35,329.85c-7.09-4.88-14.22-9.69-21.39-14.44"/>
  </g>
  <g id="ARC-23" data-name="ARC">
    <path class="cls-1" d="m286.9,275.9c-6.54-3.55-14.51-3.02-20.54,1.35"/>
  </g>
  <g id="ARC-24" data-name="ARC">
    <path class="cls-1" d="m275.98,211.28c-4.25,14.55-7.19,29.47-8.79,44.56"/>
  </g>
  <g id="ARC-25" data-name="ARC">
    <path class="cls-1" d="m366.08,230.34c.44-.36.65-.93.56-1.49"/>
  </g>
  <g id="ARC-26" data-name="ARC">
    <path class="cls-1" d="m250.03,382.01c12.48,6.99,28.01,4.89,38.25-5.17"/>
  </g>
  <g id="ARC-27" data-name="ARC">
    <path class="cls-1" d="m365.84,228.95c.26.14.59.1.81-.11"/>
  </g>
  <g id="ARC-28" data-name="ARC">
    <path class="cls-1" d="m266.36,277.25c.27,1.73.67,3.43,1.2,5.09"/>
  </g>
  <g id="ARC-29" data-name="ARC">
    <path class="cls-1" d="m362.85,232.9c.26.14.58.04.73-.22"/>
  </g>
  <g id="ARC-30" data-name="ARC">
    <path class="cls-1" d="m363.58,232.68c-.11-.26-.3-.48-.53-.64"/>
  </g>
  <g id="ARC-31" data-name="ARC">
    <path class="cls-1" d="m366.08,230.34c-.11-.26-.3-.48-.53-.64"/>
  </g>
  <g id="ARC-32" data-name="ARC">
    <path class="cls-1" d="m365.56,229.7c.22-.18.33-.46.28-.75"/>
  </g>
  <g id="ARC-33" data-name="ARC">
    <path class="cls-1" d="m259.07,412.49c13.25,7.31,29.64,5.1,40.53-5.48"/>
  </g>
  <g id="ARC-34" data-name="ARC">
    <path class="cls-1" d="m370.27,226.4c-.11-.26-.3-.48-.53-.64"/>
  </g>
  <g id="ARC-35" data-name="ARC">
    <path class="cls-1" d="m372.77,224.06c-.11-.26-.3-.48-.53-.64"/>
  </g>
  <g id="ARC-36" data-name="ARC">
    <path class="cls-1" d="m288.79,351.14c2.73-2.21,3.9-5.87,2.95-9.28"/>
  </g>
  <g id="ARC-37" data-name="ARC">
    <path class="cls-1" d="m264.48,349.67c-.91,1.74-1.14,3.76-.63,5.66"/>
  </g>
  <g id="ARC-38" data-name="ARC">
    <path class="cls-1" d="m267.22,345.12s-.03.1,0,.15"/>
  </g>
  <g id="ARC-39" data-name="ARC">
    <path class="cls-1" d="m281.27,354.8c-.1-.23-.26-.43-.46-.58"/>
  </g>
  <g id="ARC-40" data-name="ARC">
    <path class="cls-1" d="m294.51,300.19c-6.65-3.49-14.74-2.4-20.25,2.74"/>
  </g>
  <g id="ARC-41" data-name="ARC">
    <path class="cls-1" d="m398.7,199.72c.44-.36.65-.93.56-1.49"/>
  </g>
  <g id="ARC-42" data-name="ARC">
    <path class="cls-1" d="m249.67,343.21c.18,2.51,2.33,4.39,4.8,4.21,1.11-.08,2.16-.58,2.93-1.4"/>
  </g>
  <g id="ARC-43" data-name="ARC">
    <path class="cls-1" d="m398.46,198.34c.26.14.59.1.81-.11"/>
  </g>
  <g id="ARC-44" data-name="ARC">
    <path class="cls-1" d="m287.39,349.06c-.1-.23-.26-.43-.46-.58"/>
  </g>
  <g id="ARC-45" data-name="ARC">
    <path class="cls-1" d="m444.01,162.9c-2.9-4.21-8.56-5.33-12.81-2.54"/>
  </g>
  <g id="ARC-46" data-name="ARC">
    <path class="cls-1" d="m431.2,160.36c-1.28-1.78-2.84-3.34-4.62-4.62"/>
  </g>
  <g id="ARC-47" data-name="ARC">
    <path class="cls-1" d="m396.2,202.07c-.11-.26-.3-.48-.53-.64"/>
  </g>
  <g id="ARC-48" data-name="ARC">
    <path class="cls-1" d="m395.47,202.29c.26.14.58.04.73-.22"/>
  </g>
  <g id="ARC-49" data-name="ARC">
    <path class="cls-1" d="m398.7,199.72c-.11-.26-.3-.48-.53-.64"/>
  </g>
  <g id="ARC-50" data-name="ARC">
    <path class="cls-1" d="m426.58,155.74c-4.87,3.35-9.47,7.07-13.78,11.13"/>
  </g>
  <g id="ARC-51" data-name="ARC">
    <path class="cls-1" d="m419.6,173.31c3.67-3.38,6.99-7.12,9.92-11.17"/>
  </g>
  <g id="ARC-52" data-name="ARC">
    <path class="cls-1" d="m398.18,199.09c.22-.18.33-.46.28-.75"/>
  </g>
  <g id="ARC-53" data-name="ARC">
    <path class="cls-1" d="m290.99,348.35c.66-1.6.67-3.39.05-5.01"/>
  </g>
  <g id="ARC-54" data-name="ARC">
    <path class="cls-1" d="m402.89,195.79c-.11-.26-.3-.48-.53-.64"/>
  </g>
  <g id="ARC-55" data-name="ARC">
    <path class="cls-1" d="m405.39,193.45c-.11-.26-.3-.48-.53-.64"/>
  </g>
  <g id="ARC-56" data-name="ARC">
    <path class="cls-1" d="m458.09,230.67c4.6-4.51,6.47-11.17,4.9-17.46"/>
  </g>
  <g id="ARC-57" data-name="ARC">
    <path class="cls-1" d="m443.16,163.14c-2.86-3.82-8.15-4.75-12.11-2.13"/>
  </g>
  <g id="ARC-58" data-name="ARC">
    <path class="cls-1" d="m443.16,163.14c.3.15.67.05.85-.24"/>
  </g>
  <g id="ARC-59" data-name="ARC">
    <path class="cls-1" d="m287.96,317.28c1.54-1.6,1.51-4.17-.07-5.73-.04-.04-.07-.07-.11-.1"/>
  </g>
  <g id="ARC-60" data-name="ARC">
    <path class="cls-1" d="m462.12,213.4c.3.15.66.07.87-.2"/>
  </g>
  <g id="ARC-61" data-name="ARC">
    <path class="cls-1" d="m443.49,163.87c.3.15.66.06.87-.2"/>
  </g>
  <g id="ARC-62" data-name="ARC">
    <path class="cls-1" d="m362.79,320.12c-.11-.25-.29-.46-.52-.62"/>
  </g>
  <g id="ARC-63" data-name="ARC">
    <path class="cls-1" d="m457.59,231.16c-.11-.25-.29-.46-.52-.62"/>
  </g>
  <g id="ARC-64" data-name="ARC">
    <path class="cls-1" d="m458.09,230.67c-.13-.24-.32-.44-.54-.6"/>
  </g>
  <g id="ARC-65" data-name="ARC">
    <path class="cls-1" d="m457.55,230.07c4.4-4.3,6.15-10.68,4.57-16.67"/>
  </g>
  <g id="ARC-66" data-name="ARC">
    <path class="cls-1" d="m411.65,199.21c4.35-3.62,6.49-9.3,5.63-14.94"/>
  </g>
  <g id="ARC-67" data-name="ARC">
    <path class="cls-1" d="m26.33,244.67c2.51,8.39,7.89,15.6,15.17,20.34"/>
  </g>
  <g id="ARC-68" data-name="ARC">
    <path class="cls-1" d="m260.01,415.23c13.25,7.31,29.64,5.1,40.53-5.48"/>
  </g>
  <g id="ARC-69" data-name="ARC">
    <path class="cls-1" d="m27.83,249.16c2.75,7.63,7.88,14.15,14.61,18.57"/>
  </g>
  <g id="ARC-70" data-name="ARC">
    <path class="cls-1" d="m331.67,270.74c.14-.11.2-.3.15-.47"/>
  </g>
  <g id="ARC-71" data-name="ARC">
    <path class="cls-1" d="m350.21,320.32c.14-.11.2-.3.15-.47"/>
  </g>
  <g id="ARC-72" data-name="ARC">
    <path class="cls-1" d="m369.2,226.44c.14-.11.2-.3.15-.47"/>
  </g>
  <g id="ARC-73" data-name="ARC">
    <path class="cls-1" d="m372.77,224.06c.1-.04.17-.13.18-.23"/>
  </g>
  <g id="ARC-74" data-name="ARC">
    <path class="cls-1" d="m369.29,225.9c.16.06.35,0,.45-.13"/>
  </g>
  <g id="ARC-75" data-name="ARC">
    <path class="cls-1" d="m401.82,195.83c.14-.11.2-.3.15-.47"/>
  </g>
  <g id="ARC-76" data-name="ARC">
    <path class="cls-1" d="m426.58,155.74c10.98-7.1,21.4-15.05,31.15-23.8"/>
  </g>
  <g id="ARC-77" data-name="ARC">
    <path class="cls-1" d="m405.39,193.45c.1-.04.17-.13.18-.23"/>
  </g>
  <g id="ARC-78" data-name="ARC">
    <path class="cls-1" d="m401.91,195.29c.16.06.35,0,.45-.13"/>
  </g>
  <g id="ARC-79" data-name="ARC">
    <path class="cls-1" d="m16.17,208.82c2.36,8.29,7.56,15.46,14.67,20.2"/>
  </g>
</svg>