<?xml version="1.0" encoding="UTF-8"?>
<svg id="_0" data-name="0" xmlns="http://www.w3.org/2000/svg" viewBox="0 0 393.88 446">
  <defs>
    <style>
      .cls-1 {
        stroke-dasharray: 0 0 0 0 64.41 12.88 12.88 12.88;
      }

      .cls-1, .cls-2 {
        fill: none;
        stroke: #000;
        stroke-linecap: round;
        stroke-linejoin: round;
        stroke-width: 2px;
      }
    </style>
  </defs>
  <g id="LWPOLYLINE">
    <polyline class="cls-2" points="300.23 262.42 300.36 262.08 300.57 261.86 300.84 261.81 301.11 261.93 301.35 262.2 301.52 262.58 301.6 263.01 301.57 263.43 301.44 263.77 301.23 263.99 300.97 264.04 300.69 263.92 300.45 263.65 300.28 263.27 300.2 262.84 300.23 262.42"/>
  </g>
  <g id="LWPOLYLINE-2" data-name="LWPOLYLINE">
    <polyline class="cls-2" points="236.43 245.85 239.86 249.97 242.12 255.77 242.87 262.39 241.98 268.8 239.59 274.03 236.08 277.29 231.97 278.09 227.88 276.29 224.45 272.17 222.18 266.36 221.44 259.75 222.33 253.34 224.71 248.1 228.23 244.84 232.34 244.05 236.43 245.85"/>
  </g>
  <g id="LWPOLYLINE-3" data-name="LWPOLYLINE">
    <polyline class="cls-2" points="97.27 14.84 67.92 42.65 42.99 76.8 23.57 115.8 10.51 157.95 4.39 201.4 5.47 244.24 13.71 284.61 28.75 320.73 49.92 351.03"/>
  </g>
  <g id="LWPOLYLINE-4" data-name="LWPOLYLINE">
    <polyline class="cls-2" points="98.81 18.53 70.08 45.74 45.68 79.17 26.67 117.34 13.89 158.58 7.91 201.1 8.96 243.03 17.03 282.54 31.74 317.89 52.46 347.54"/>
  </g>
  <g id="LWPOLYLINE-5" data-name="LWPOLYLINE">
    <polyline class="cls-2" points="97.27 14.84 67.92 42.65 42.99 76.8 23.57 115.8 10.51 157.95 4.39 201.4 5.47 244.24 13.71 284.61 28.75 320.73 49.92 351.03"/>
  </g>
  <g id="LWPOLYLINE-6" data-name="LWPOLYLINE">
    <polyline class="cls-2" points="93.47 22.82 63.34 53.81 38.6 91.63 20.52 134.35 10.03 179.8 7.66 225.65 13.53 269.56 27.35 309.28 48.4 342.79"/>
  </g>
  <g id="LWPOLYLINE-7" data-name="LWPOLYLINE">
    <polyline class="cls-2" points="93.47 22.82 94.16 22.19 94.79 21.47 95.36 20.68 95.87 19.82 96.3 18.91 96.66 17.96 96.93 16.97 97.11 15.97"/>
  </g>
  <g id="LWPOLYLINE-8" data-name="LWPOLYLINE">
    <polyline class="cls-1" points="50.08 349.9 50.17 348.89 50.18 347.9 50.1 346.92 49.92 345.98 49.66 345.08 49.32 344.25 48.9 343.48 48.4 342.79"/>
  </g>
  <g id="LWPOLYLINE-9" data-name="LWPOLYLINE">
    <polyline class="cls-1" points="230.41 284.1 236.08 283.81 241.11 280.08 244.76 273.48 246.45 265.01 245.95 255.96 243.32 247.69 238.96 241.46 233.54 238.22"/>
  </g>
  <g id="LINE">
    <line class="cls-1" x1="298.48" y1="237.09" x2="297.08" y2="236.71"/>
  </g>
  <g id="LINE-2" data-name="LINE">
    <line class="cls-1" x1="301.6" y1="263.12" x2="300.2" y2="262.73"/>
  </g>
  <g id="LINE-3" data-name="LINE">
    <line class="cls-2" x1="165.06" y1="10.86" x2="151.03" y2="6.98"/>
  </g>
  <g id="LINE-4" data-name="LINE">
    <line class="cls-2" x1="97.27" y1="14.84" x2="98.81" y2="18.53"/>
  </g>
  <g id="LINE-5" data-name="LINE">
    <line class="cls-2" x1="49.92" y1="351.03" x2="52.46" y2="347.54"/>
  </g>
  <g id="LINE-6" data-name="LINE">
    <line class="cls-2" x1="97.27" y1="14.84" x2="97.11" y2="15.97"/>
  </g>
  <g id="LINE-7" data-name="LINE">
    <line class="cls-1" x1="49.92" y1="351.03" x2="50.08" y2="349.9"/>
  </g>
  <g id="LINE-8" data-name="LINE">
    <line class="cls-2" x1="48.4" y1="342.79" x2="52.46" y2="347.76"/>
  </g>
  <g id="LINE-9" data-name="LINE">
    <line class="cls-2" x1="49.92" y1="351.03" x2="52.46" y2="347.76"/>
  </g>
  <g id="POINT">
    <line class="cls-2" x1="287.57" y1="258.2" x2="287.57" y2="258.2"/>
  </g>
  <g id="LWPOLYLINE-10" data-name="LWPOLYLINE">
    <polyline class="cls-2" points="213.68 261.44 213.71 262.6 214.11 266.17 214.83 269.64 215.87 272.93 217.2 275.98 218.8 278.73 220.63 281.11 222.66 283.06 224.85 284.54 227 285.46 227.41 285.59"/>
  </g>
  <g id="LWPOLYLINE-11" data-name="LWPOLYLINE">
    <polyline class="cls-2" points="225.49 237.49 223.89 238.06 221.8 239.34 219.87 241.1 218.13 243.31 216.64 245.91 215.42 248.85 214.5 252.06 213.91 255.47 213.64 259.01 213.68 261.44"/>
  </g>
  <g id="LWPOLYLINE-12" data-name="LWPOLYLINE">
    <polyline class="cls-2" points="333.8 429.86 330.84 426.45 325.42 419.65 320.32 412.46 315.56 404.91 311.13 397.01 307.06 388.79 303.35 380.26 300.01 371.44 297.06 362.36 294.49 353.04 292.31 343.5 290.54 333.76 289.17 323.86 288.21 313.81 287.65 303.64 287.51 293.38 287.79 283.05 288.47 272.68 289.56 262.29 291.06 251.91 292.97 241.56 295.27 231.28 297.96 221.08 301.04 210.99 304.5 201.04 308.33 191.26 312.52 181.66 317.06 172.27 321.93 163.12 327.14 154.22 332.65 145.6 338.47 137.29 344.56 129.29 350.93 121.64 357.55 114.35 364.41 107.43 371.49 100.92 378.77 94.81 381.35 92.79"/>
  </g>
  <g id="LWPOLYLINE-13" data-name="LWPOLYLINE">
    <polyline class="cls-2" points="332.58 444.42 332.74 444.48 334.77 444.91 336.64 445 337.94 444.75 339 444.17 339.82 443.24 340.24 442.06 340.25 441.8"/>
  </g>
  <g id="LWPOLYLINE-14" data-name="LWPOLYLINE">
    <polyline class="cls-2" points="97.77 10.16 93.8 13.27 86.42 19.49 79.25 26.11 72.3 33.14 65.59 40.54 59.14 48.3 52.96 56.41 47.07 64.83 41.48 73.56 36.21 82.57 31.26 91.83 26.66 101.33 22.4 111.04 18.51 120.94 14.98 131 11.84 141.2 9.09 151.52 6.73 161.93 4.76 172.4 3.21 182.9 2.06 193.42 1.32 203.93 1 214.4 1.09 224.81 1.6 235.12 2.51 245.32 3.84 255.39 5.58 265.28 7.72 274.99 10.26 284.49 13.19 293.75 16.5 302.76 20.2 311.48 24.26 319.9 28.68 328 33.45 335.76 38.55 343.15 43.98 350.16 49.19 356.21"/>
  </g>
  <g id="LWPOLYLINE-15" data-name="LWPOLYLINE">
    <polyline class="cls-2" points="332.17 417.41 329.41 413.91 324.37 406.92 319.67 399.56 315.3 391.86 311.29 383.83 307.64 375.48 304.35 366.86 301.45 357.96 298.94 348.83 296.82 339.48 295.1 329.93 293.78 320.22 292.88 310.37 292.38 300.39 292.29 290.33 292.62 280.2 293.35 270.03 294.5 259.85 296.05 249.68 298 239.55 300.35 229.49 303.09 219.52 306.22 209.67 309.72 199.97 313.58 190.44 317.81 181.1 322.37 171.98 327.28 163.1 332.5 154.49 338.03 146.17 343.85 138.16 349.95 130.48 356.31 123.15 362.91 116.19 369.74 109.62 376.45 103.73"/>
  </g>
  <g id="LWPOLYLINE-16" data-name="LWPOLYLINE">
    <polyline class="cls-2" points="235.23 239.01 237.19 240.11 237.38 240.24"/>
  </g>
  <g id="LWPOLYLINE-17" data-name="LWPOLYLINE">
    <polyline class="cls-2" points="236.33 239.3 235.62 239.16 235.53 239.15"/>
  </g>
  <g id="LWPOLYLINE-18" data-name="LWPOLYLINE">
    <polyline class="cls-2" points="332.07 444.16 335.19 444.65 336.72 444.01 336.65 442.22 334.85 439.15 333.01 436.78 330.72 434.16"/>
  </g>
  <g id="LWPOLYLINE-19" data-name="LWPOLYLINE">
    <polyline class="cls-2" points="98.39 10.09 90.41 16.51 82.65 23.4 75.14 30.76 67.9 38.55 60.94 46.76 54.29 55.37 47.97 64.35 41.99 73.67 36.36 83.32 31.11 93.26 26.25 103.46 21.8 113.9 17.76 124.54 14.15 135.37 10.97 146.34 8.24 157.43 5.96 168.6 4.15 179.83 2.8 191.08 1.92 202.32 1.51 213.53 1.57 224.66 2.1 235.69 3.11 246.58 4.58 257.31 6.52 267.85 8.91 278.16 11.76 288.23 15.05 298.01 18.78 307.48 22.93 316.62 27.49 325.4 32.45 333.8 37.8 341.79 43.52 349.34 49.6 356.45"/>
  </g>
  <g id="LWPOLYLINE-20" data-name="LWPOLYLINE">
    <polyline class="cls-2" points="379.51 87.8 382.93 84.97 385.7 82.16 387.25 80.11 388.22 78.16 388.54 76.37 388.12 74.79 387.13 73.65 385.56 72.76 384.44 72.38"/>
  </g>
  <g id="LWPOLYLINE-21" data-name="LWPOLYLINE">
    <polyline class="cls-2" points="330.72 434.16 324.64 427.06 318.93 419.5 313.58 411.51 308.61 403.11 304.05 394.33 299.9 385.19 296.18 375.72 292.88 365.94 290.04 355.87 287.64 345.56 285.7 335.02 284.23 324.29 283.22 313.4 282.69 302.37 282.63 291.24 283.04 280.03 283.92 268.79 285.27 257.54 287.09 246.31 289.36 235.14 292.09 224.05 295.27 213.08 298.88 202.25 302.92 191.61 307.38 181.17 312.23 170.97 317.48 161.03 323.11 151.38 329.09 142.06 335.42 133.08 342.07 124.47 349.02 116.26 356.27 108.47 363.78 101.11 371.53 94.22 379.51 87.8"/>
  </g>
  <g id="LWPOLYLINE-22" data-name="LWPOLYLINE">
    <polyline class="cls-2" points="237.71 284.17 234.83 286.51 232.37 287.5 229.75 287.77 227.08 287.3 224.39 286.13 221.79 284.28 219.34 281.83 217.11 278.8 215.19 275.31 213.63 271.4 212.51 267.22 211.87 262.83 211.75 258.4 212.17 254.02 213.1 249.85 214.54 245.97 216.42 242.52 219.64 238.66 222.21 236.7 224.96 235.43 227.77 234.91 230.56 235.14 233.16 236.1 235.58 237.74 237.75 240.01 239.65 242.83 241.27 246.21 242.54 249.98 243.46 254.18 244.01 258.57 244.15 263.1 243.9 267.58 243.25 271.87 242.22 275.85 240.84 279.38 239.12 282.4 237.71 284.17"/>
  </g>
  <g id="LWPOLYLINE-23" data-name="LWPOLYLINE">
    <polyline class="cls-2" points="381.66 90.05 373.77 96.39 366.09 103.22 358.66 110.49 351.49 118.21 344.61 126.33 338.03 134.85 331.77 143.74 325.85 152.96 320.28 162.51 315.09 172.34 310.28 182.44 305.87 192.77 301.88 203.3 298.3 214.02 295.16 224.87 292.46 235.85 290.2 246.9 288.41 258.01 287.07 269.15 286.2 280.27 285.79 291.36 285.85 302.37 286.38 313.29 287.38 324.07 288.84 334.69 290.75 345.12 293.12 355.32 295.94 365.28 299.2 374.96 302.88 384.34 306.99 393.38 311.51 402.07 316.42 410.38 321.71 418.28 327.37 425.76 333.38 432.79"/>
  </g>
  <g id="LWPOLYLINE-24" data-name="LWPOLYLINE">
    <polyline class="cls-2" points="333.69 430.61 327.8 423.63 322.27 416.22 317.09 408.39 312.28 400.17 307.87 391.58 303.86 382.64 300.25 373.38 297.07 363.82 294.32 354 292.01 343.93 290.14 333.64 288.73 323.17 287.76 312.55 287.25 301.79 287.2 290.94 287.61 280.01 288.48 269.05 289.79 258.08 291.56 247.13 293.78 236.24 296.43 225.43 299.52 214.73 303.03 204.17 306.95 193.78 311.28 183.6 316 173.64 321.1 163.93 326.56 154.51 332.37 145.4 338.51 136.62 344.97 128.2 351.73 120.16 358.77 112.52 366.06 105.31 373.6 98.54 381.36 92.23"/>
  </g>
  <g id="LWPOLYLINE-25" data-name="LWPOLYLINE">
    <polyline class="cls-2" points="239.22 281.29 241.79 276.24 242.19 275.09 243.18 271.31 243.8 267.24 244.04 262.98 243.89 258.68 243.37 254.51 242.48 250.53 241.26 246.95 239.72 243.75 237.91 241.08 235.84 238.93 233.54 237.38 231.07 236.47 228.42 236.24"/>
  </g>
  <g id="LWPOLYLINE-26" data-name="LWPOLYLINE">
    <polyline class="cls-2" points="235.11 285.19 235.13 285.18 237.87 282.98"/>
  </g>
  <g id="LWPOLYLINE-27" data-name="LWPOLYLINE">
    <polyline class="cls-2" points="232.03 237.79 234.3 238.14 235.38 238.62"/>
  </g>
  <g id="LWPOLYLINE-28" data-name="LWPOLYLINE">
    <polyline class="cls-2" points="234.35 238.17 232.24 237.83 232.13 237.84"/>
  </g>
  <g id="LWPOLYLINE-29" data-name="LWPOLYLINE">
    <polyline class="cls-2" points="49.19 356.21 49.35 356.34 49.6 356.45"/>
  </g>
  <g id="LWPOLYLINE-30" data-name="LWPOLYLINE">
    <polyline class="cls-2" points="340.03 411.38 340.01 411.38 339.17 411.28"/>
  </g>
  <g id="LWPOLYLINE-31" data-name="LWPOLYLINE">
    <polyline class="cls-2" points="345.33 411.65 345.56 411.65 345.6 411.65"/>
  </g>
  <g id="LWPOLYLINE-32" data-name="LWPOLYLINE">
    <polyline class="cls-2" points="377.21 97.33 369.45 103.96 361.94 111.06 354.68 118.62 347.71 126.61 341.05 135 334.7 143.78 328.7 152.92 323.06 162.38 317.8 172.15 312.92 182.19 308.46 192.48 304.41 202.98 300.79 213.66 297.62 224.49 294.89 235.45 292.62 246.49 290.82 257.59 289.49 268.71 288.64 279.83 288.26 290.9 288.36 301.9 288.94 312.79 289.99 323.54 291.52 334.12 293.52 344.5 295.98 354.65 298.89 364.53 302.25 374.13 306.05 383.41 310.28 392.34 314.92 400.9 319.96 409.06 325.38 416.81 331.18 424.1"/>
  </g>
  <g id="LWPOLYLINE-33" data-name="LWPOLYLINE">
    <polyline class="cls-2" points="331.97 418.5 326.35 411.13 321.1 403.33 316.25 395.12 311.8 386.52 307.77 377.55 304.17 368.25 301.02 358.64 298.31 348.75 296.06 338.61 294.28 328.25 292.97 317.7 292.14 307 291.78 296.17 291.9 285.25 292.5 274.27 293.58 263.27 295.12 252.27 297.14 241.31 299.62 230.42 302.56 219.64 305.94 209 309.76 198.52 314 188.25 318.66 178.21 323.71 168.43 329.15 158.94 334.95 149.77 341.1 140.95 347.58 132.5 354.38 124.45 361.46 116.82 368.82 109.64 376.42 102.93"/>
  </g>
  <g id="LWPOLYLINE-34" data-name="LWPOLYLINE">
    <polyline class="cls-2" points="296.53 290.12 297.71 293.71 299.32 296.97 301.32 299.85 303.66 302.27 306.31 304.19 309.21 305.57 312.29 306.38 315.5 306.6 318.76 306.23 322.01 305.28 325.19 303.76 328.22 301.72 331.04 299.18 333.6 296.2 335.85 292.85 337.73 289.18 339.21 285.29 340.25 281.25 340.85 277.14 340.97 273.05 340.62 269.06 339.82 265.25 338.56 261.71 336.89 258.5 334.83 255.7 332.43 253.36 329.74 251.52 326.81 250.24 323.7 249.52 320.48 249.4 317.22 249.87 313.97 250.91 310.82 252.52 307.81 254.65 305.03 257.27 302.51 260.31 300.33 263.72"/>
  </g>
  <g id="LWPOLYLINE-35" data-name="LWPOLYLINE">
    <polyline class="cls-2" points="321.12 259.33 318.41 260.09 315.79 261.41 313.32 263.26 311.09 265.59 309.17 268.31 307.6 271.35 306.44 274.62 305.73 278.01 305.49 281.43 305.71 284.76 306.41 287.91 307.54 290.79 309.09 293.3 311.01 295.36 313.22 296.93 315.68 297.94 318.3 298.37 321.01 298.2 323.71 297.44 326.34 296.12 328.8 294.27 331.03 291.95 332.96 289.22 334.53 286.18 335.68 282.91 336.39 279.52 336.64 276.11 336.41 272.77 335.72 269.62 334.58 266.75 333.03 264.24 331.12 262.17 328.9 260.6 326.44 259.59 323.82 259.16 321.12 259.33"/>
  </g>
  <g id="LWPOLYLINE-36" data-name="LWPOLYLINE">
    <polyline class="cls-2" points="319.49 252.66 322.56 252.42 325.55 252.77 328.41 253.68 331.06 255.14 333.46 257.12 335.54 259.57 337.26 262.45 338.59 265.67 339.48 269.18 339.93 272.89 339.92 276.73 339.45 280.6 338.53 284.42 337.19 288.1 335.45 291.56 333.35 294.73 330.94 297.53 328.27 299.9 325.41 301.79 322.41 303.15 319.34 303.96 316.28 304.2 313.29 303.86 310.43 302.95 307.78 301.48 305.38 299.5 303.3 297.05 301.58 294.18 300.25 290.95 299.36 287.44 298.91 283.73 298.92 279.9 299.39 276.03 300.31 272.21 301.65 268.53 303.39 265.06 305.49 261.9 307.9 259.09 310.57 256.72 313.43 254.83 316.43 253.47 319.49 252.66"/>
  </g>
  <g id="LWPOLYLINE-37" data-name="LWPOLYLINE">
    <polyline class="cls-2" points="300.64 264.6 302.74 261.23 305.15 258.22 307.85 255.62 310.75 253.49 313.82 251.87 316.98 250.8 320.17 250.3 323.31 250.38 326.36 251.04 329.23 252.26 331.87 254.02 334.22 256.28 336.25 259 337.89 262.11 339.12 265.56 339.92 269.27 340.26 273.16 340.15 277.15 339.57 281.16 338.55 285.11 337.1 288.9 335.26 292.46 333.06 295.73 330.55 298.62 327.78 301.08 324.82 303.05 321.72 304.5 318.54 305.4 315.36 305.72 312.24 305.46 309.24 304.62 306.44 303.23 303.88 301.31 301.62 298.9 299.71 296.05 298.19 292.82 297.09 289.29"/>
  </g>
  <g id="LWPOLYLINE-38" data-name="LWPOLYLINE">
    <polyline class="cls-2" points="338.39 411.31 338.63 411.31 338.66 411.31"/>
  </g>
  <g id="LWPOLYLINE-39" data-name="LWPOLYLINE">
    <polyline class="cls-2" points="236.24 242.06 235.94 241.75 233.78 239.94 231.48 238.7 229.11 238.04 226.74 238 224.4 238.56 222.18 239.72 220.13 241.44 218.29 243.69 216.73 246.39 215.47 249.49 214.55 252.9 214 256.53 213.82 260.29 214.03 264.09 214.62 267.82 215.57 271.38 216.86 274.69 218.45 277.66 220.31 280.21 222.38 282.28 224.61 283.81 226.95 284.76 226.95 284.76"/>
  </g>
  <g id="LWPOLYLINE-40" data-name="LWPOLYLINE">
    <polyline class="cls-2" points="381.35 92.79 381.36 92.77 381.41 92.71 381.43 92.61 381.43 92.5 381.4 92.37 381.36 92.23"/>
  </g>
  <g id="LWPOLYLINE-41" data-name="LWPOLYLINE">
    <polyline class="cls-2" points="228.42 236.24 225.76 236.73 223.16 237.93 220.71 239.78 217.66 243.44 215.87 246.71 214.5 250.39 213.61 254.35 213.22 258.51 213.33 262.71 213.93 266.87 214.99 270.84 216.46 274.55 217.02 275.56"/>
  </g>
  <g id="LWPOLYLINE-42" data-name="LWPOLYLINE">
    <polyline class="cls-2" points="332.07 444.16 332.46 444.39 332.57 444.43"/>
  </g>
  <g id="LWPOLYLINE-43" data-name="LWPOLYLINE">
    <polyline class="cls-2" points="76.2 373.43 76.59 373.66 76.67 373.69"/>
  </g>
  <g id="LWPOLYLINE-44" data-name="LWPOLYLINE">
    <polyline class="cls-2" points="392.33 104.61 392.46 104.61 392.56 104.61 392.62 104.6 392.66 104.59 392.66 104.58"/>
  </g>
  <g id="LWPOLYLINE-45" data-name="LWPOLYLINE">
    <polyline class="cls-2" points="349.87 406.07 349.99 406.07 350.09 406.07 350.16 406.06 350.19 406.05 350.2 406.04"/>
  </g>
  <g id="LWPOLYLINE-46" data-name="LWPOLYLINE">
    <polyline class="cls-2" points="344.32 405.79 344.06 407.07 343.64 408.25 343.09 409.29 342.43 410.16 341.67 410.81 340.86 411.22 340.03 411.38"/>
  </g>
  <g id="LWPOLYLINE-47" data-name="LWPOLYLINE">
    <polyline class="cls-2" points="376.44 103.74 376.46 103.72 376.52 103.63 376.55 103.49 376.54 103.33 376.5 103.14 376.42 102.93"/>
  </g>
  <g id="LINE-10" data-name="LINE">
    <line class="cls-2" x1="235.7" y1="284.41" x2="237.94" y2="283.07"/>
  </g>
  <g id="LINE-11" data-name="LINE">
    <line class="cls-2" x1="235.23" y1="239.01" x2="232.84" y2="237.96"/>
  </g>
  <g id="LINE-12" data-name="LINE">
    <line class="cls-2" x1="391.11" y1="80.94" x2="391.33" y2="79.42"/>
  </g>
  <g id="LINE-13" data-name="LINE">
    <line class="cls-2" x1="385.61" y1="72.19" x2="129.74" y2="1.46"/>
  </g>
  <g id="LINE-14" data-name="LINE">
    <line class="cls-2" x1="340.27" y1="441.89" x2="340.47" y2="440.48"/>
  </g>
  <g id="LINE-15" data-name="LINE">
    <line class="cls-2" x1="76.71" y1="373.7" x2="332.59" y2="444.43"/>
  </g>
  <g id="LINE-16" data-name="LINE">
    <line class="cls-2" x1="350.2" y1="406.04" x2="392.66" y2="104.58"/>
  </g>
  <g id="LINE-17" data-name="LINE">
    <line class="cls-2" x1="389.18" y1="96.81" x2="384.29" y2="95.46"/>
  </g>
  <g id="LINE-18" data-name="LINE">
    <line class="cls-2" x1="339.78" y1="411.38" x2="345.33" y2="411.65"/>
  </g>
  <g id="LINE-19" data-name="LINE">
    <line class="cls-2" x1="386.29" y1="90.86" x2="386.68" y2="88.08"/>
  </g>
  <g id="LINE-20" data-name="LINE">
    <line class="cls-2" x1="325.76" y1="250.86" x2="324.92" y2="250.63"/>
  </g>
  <g id="LINE-21" data-name="LINE">
    <line class="cls-2" x1="309.92" y1="304.89" x2="310.76" y2="305.12"/>
  </g>
  <g id="LINE-22" data-name="LINE">
    <line class="cls-2" x1="343.26" y1="405.7" x2="385.73" y2="104.24"/>
  </g>
  <g id="LINE-23" data-name="LINE">
    <line class="cls-2" x1="337.9" y1="434.33" x2="338.65" y2="429.02"/>
  </g>
  <g id="LINE-24" data-name="LINE">
    <line class="cls-2" x1="332.51" y1="417.86" x2="332.16" y2="417.41"/>
  </g>
  <g id="LINE-25" data-name="LINE">
    <line class="cls-2" x1="327.14" y1="410.76" x2="338.39" y2="411.31"/>
  </g>
  <g id="LINE-26" data-name="LINE">
    <line class="cls-2" x1="297.97" y1="294.3" x2="298.11" y2="294.34"/>
  </g>
  <g id="LINE-27" data-name="LINE">
    <line class="cls-2" x1="312.8" y1="251.45" x2="312.65" y2="251.79"/>
  </g>
  <g id="LINE-28" data-name="LINE">
    <line class="cls-2" x1="312.8" y1="251.44" x2="312.8" y2="251.45"/>
  </g>
  <g id="LINE-29" data-name="LINE">
    <line class="cls-2" x1="316.19" y1="250.19" x2="316.11" y2="250.16"/>
  </g>
  <g id="LINE-30" data-name="LINE">
    <line class="cls-2" x1="316.61" y1="250.46" x2="316.19" y2="250.19"/>
  </g>
  <g id="LINE-31" data-name="LINE">
    <line class="cls-2" x1="300.22" y1="297.93" x2="300.22" y2="298.39"/>
  </g>
  <g id="LINE-32" data-name="LINE">
    <line class="cls-2" x1="303.02" y1="301.68" x2="304.14" y2="301.99"/>
  </g>
  <g id="LINE-33" data-name="LINE">
    <line class="cls-2" x1="298.54" y1="295.37" x2="298.45" y2="295.35"/>
  </g>
  <g id="LINE-34" data-name="LINE">
    <line class="cls-2" x1="298.54" y1="295.54" x2="298.54" y2="295.37"/>
  </g>
  <g id="LINE-35" data-name="LINE">
    <line class="cls-2" x1="319.56" y1="250.05" x2="319.26" y2="249.51"/>
  </g>
  <g id="LINE-36" data-name="LINE">
    <line class="cls-2" x1="318.48" y1="249.62" x2="318.75" y2="250.12"/>
  </g>
  <g id="LINE-37" data-name="LINE">
    <line class="cls-2" x1="314.54" y1="306.21" x2="314.55" y2="305.71"/>
  </g>
  <g id="LINE-38" data-name="LINE">
    <line class="cls-2" x1="313.84" y1="305.67" x2="313.84" y2="306.23"/>
  </g>
  <g id="LINE-39" data-name="LINE">
    <line class="cls-2" x1="329.31" y1="252.3" x2="329.31" y2="251.71"/>
  </g>
  <g id="LINE-40" data-name="LINE">
    <line class="cls-2" x1="299.26" y1="296.87" x2="299.56" y2="296.95"/>
  </g>
  <g id="LINE-41" data-name="LINE">
    <line class="cls-2" x1="308.93" y1="305.47" x2="308.93" y2="304.58"/>
  </g>
  <g id="LINE-42" data-name="LINE">
    <line class="cls-2" x1="308.23" y1="304.32" x2="308.23" y2="305.18"/>
  </g>
  <g id="LINE-43" data-name="LINE">
    <line class="cls-2" x1="317.35" y1="305.86" x2="317.35" y2="305.58"/>
  </g>
  <g id="LINE-44" data-name="LINE">
    <line class="cls-2" x1="316.65" y1="305.66" x2="316.65" y2="305.99"/>
  </g>
  <g id="LINE-45" data-name="LINE">
    <line class="cls-2" x1="309.3" y1="253.65" x2="309.3" y2="253.52"/>
  </g>
  <g id="LINE-46" data-name="LINE">
    <line class="cls-2" x1="311.49" y1="252.35" x2="311.49" y2="252.13"/>
  </g>
  <g id="LINE-47" data-name="LINE">
    <line class="cls-2" x1="320.16" y1="305.08" x2="320.16" y2="305.01"/>
  </g>
  <g id="LINE-48" data-name="LINE">
    <line class="cls-2" x1="319.46" y1="305.2" x2="319.46" y2="305.31"/>
  </g>
  <g id="LINE-49" data-name="LINE">
    <line class="cls-2" x1="310.79" y1="252.54" x2="310.79" y2="252.74"/>
  </g>
  <g id="LINE-50" data-name="LINE">
    <line class="cls-2" x1="327.81" y1="250.85" x2="327.81" y2="251.58"/>
  </g>
  <g id="LINE-51" data-name="LINE">
    <line class="cls-2" x1="328.51" y1="251.89" x2="328.51" y2="251.23"/>
  </g>
  <g id="LINE-52" data-name="LINE">
    <line class="cls-2" x1="311.74" y1="306.11" x2="311.74" y2="305.36"/>
  </g>
  <g id="LINE-53" data-name="LINE">
    <line class="cls-2" x1="311.04" y1="305.2" x2="311.04" y2="306.02"/>
  </g>
  <g id="LINE-54" data-name="LINE">
    <line class="cls-2" x1="305.48" y1="302.93" x2="305.11" y2="303.41"/>
  </g>
  <g id="LINE-55" data-name="LINE">
    <line class="cls-2" x1="305.9" y1="303.94" x2="306.31" y2="303.41"/>
  </g>
  <g id="LINE-56" data-name="LINE">
    <line class="cls-2" x1="325.91" y1="250.9" x2="325.91" y2="250.02"/>
  </g>
  <g id="LINE-57" data-name="LINE">
    <line class="cls-2" x1="321.14" y1="249.38" x2="321.14" y2="250.04"/>
  </g>
  <g id="LINE-58" data-name="LINE">
    <line class="cls-2" x1="311.82" y1="251.94" x2="311.92" y2="252.13"/>
  </g>
  <g id="LINE-59" data-name="LINE">
    <line class="cls-2" x1="312.6" y1="251.81" x2="312.48" y2="251.6"/>
  </g>
  <g id="LINE-60" data-name="LINE">
    <line class="cls-2" x1="319.41" y1="250.06" x2="319.12" y2="249.52"/>
  </g>
  <g id="LINE-61" data-name="LINE">
    <line class="cls-2" x1="318.34" y1="249.64" x2="318.6" y2="250.13"/>
  </g>
  <g id="LINE-62" data-name="LINE">
    <line class="cls-2" x1="76.2" y1="373.43" x2="332.07" y2="444.16"/>
  </g>
  <g id="LINE-63" data-name="LINE">
    <line class="cls-2" x1="384.44" y1="72.38" x2="128.57" y2="1.65"/>
  </g>
  <g id="LINE-64" data-name="LINE">
    <line class="cls-2" x1="381.36" y1="92.23" x2="381.66" y2="90.05"/>
  </g>
  <g id="LINE-65" data-name="LINE">
    <line class="cls-2" x1="333.38" y1="432.79" x2="333.69" y2="430.61"/>
  </g>
  <g id="LINE-66" data-name="LINE">
    <line class="cls-2" x1="381.34" y1="92.79" x2="381.35" y2="92.79"/>
  </g>
  <g id="LINE-67" data-name="LINE">
    <line class="cls-2" x1="390.75" y1="81.53" x2="390.9" y2="80.91"/>
  </g>
  <g id="LINE-68" data-name="LINE">
    <line class="cls-2" x1="340.37" y1="440.47" x2="340.38" y2="440.34"/>
  </g>
  <g id="LINE-69" data-name="LINE">
    <line class="cls-2" x1="76.67" y1="373.69" x2="76.71" y2="373.7"/>
  </g>
  <g id="LINE-70" data-name="LINE">
    <line class="cls-2" x1="383.51" y1="96.52" x2="389.06" y2="96.79"/>
  </g>
  <g id="LINE-71" data-name="LINE">
    <line class="cls-2" x1="392.33" y1="104.61" x2="386.79" y2="104.33"/>
  </g>
  <g id="LINE-72" data-name="LINE">
    <line class="cls-2" x1="386.79" y1="104.33" x2="344.32" y2="405.79"/>
  </g>
  <g id="LINE-73" data-name="LINE">
    <line class="cls-2" x1="349.87" y1="406.07" x2="392.33" y2="104.61"/>
  </g>
  <g id="LINE-74" data-name="LINE">
    <line class="cls-2" x1="344.32" y1="405.79" x2="349.87" y2="406.07"/>
  </g>
  <g id="LINE-75" data-name="LINE">
    <line class="cls-2" x1="389.06" y1="96.79" x2="389.18" y2="96.81"/>
  </g>
  <g id="LINE-76" data-name="LINE">
    <line class="cls-2" x1="339.06" y1="411.26" x2="339.17" y2="411.28"/>
  </g>
  <g id="LINE-77" data-name="LINE">
    <line class="cls-2" x1="376.42" y1="102.93" x2="377.21" y2="97.33"/>
  </g>
  <g id="LINE-78" data-name="LINE">
    <line class="cls-2" x1="331.18" y1="424.1" x2="331.97" y2="418.5"/>
  </g>
  <g id="LINE-79" data-name="LINE">
    <line class="cls-2" x1="332.16" y1="417.4" x2="332.17" y2="417.41"/>
  </g>
  <g id="LINE-80" data-name="LINE">
    <line class="cls-2" x1="298.59" y1="264.87" x2="293.96" y2="264.62"/>
  </g>
  <g id="LINE-81" data-name="LINE">
    <line class="cls-2" x1="293.86" y1="265.51" x2="298.89" y2="265.78"/>
  </g>
  <g id="LINE-82" data-name="LINE">
    <line class="cls-2" x1="295.7" y1="287.94" x2="292.37" y2="287.76"/>
  </g>
  <g id="LINE-83" data-name="LINE">
    <line class="cls-2" x1="292.34" y1="288.65" x2="295.15" y2="288.8"/>
  </g>
  <g id="LINE-84" data-name="LINE">
    <line class="cls-2" x1="342.93" y1="405.73" x2="385.4" y2="104.26"/>
  </g>
  <g id="LINE-85" data-name="LINE">
    <line class="cls-2" x1="299.69" y1="264.58" x2="300.64" y2="264.6"/>
  </g>
  <g id="LINE-86" data-name="LINE">
    <line class="cls-2" x1="297.09" y1="289.29" x2="296.2" y2="288.83"/>
  </g>
  <g id="LINE-87" data-name="LINE">
    <line class="cls-2" x1="337.82" y1="434.25" x2="337.82" y2="434.32"/>
  </g>
  <g id="LINE-88" data-name="LINE">
    <line class="cls-2" x1="237.55" y1="283.23" x2="236.81" y2="283.68"/>
  </g>
  <g id="LINE-89" data-name="LINE">
    <line class="cls-2" x1="389.06" y1="96.79" x2="384.28" y2="95.47"/>
  </g>
  <g id="LINE-90" data-name="LINE">
    <line class="cls-2" x1="385.4" y1="104.26" x2="376.35" y2="103.82"/>
  </g>
  <g id="LINE-91" data-name="LINE">
    <line class="cls-2" x1="322.98" y1="404.74" x2="342.93" y2="405.73"/>
  </g>
  <g id="LINE-92" data-name="LINE">
    <line class="cls-2" x1="299.84" y1="264.29" x2="299.69" y2="264.58"/>
  </g>
  <g id="ARC">
    <path class="cls-2" d="m391.3,79.44c.38-3.56-2.16-6.77-5.71-7.22"/>
  </g>
  <g id="ARC-2" data-name="ARC">
    <path class="cls-2" d="m381.33,92.79c4.32-2.61,7.68-6.55,9.59-11.22"/>
  </g>
  <g id="ARC-3" data-name="ARC">
    <path class="cls-2" d="m340.46,440.31c-1.33-4.02-3.64-7.64-6.73-10.53"/>
  </g>
  <g id="ARC-4" data-name="ARC">
    <path class="cls-2" d="m129.74,1.46c-11.39-1.73-22.99,1.44-31.92,8.72"/>
  </g>
  <g id="ARC-5" data-name="ARC">
    <path class="cls-2" d="m66.07,369.09c3.33,1.97,6.89,3.51,10.61,4.58"/>
  </g>
  <g id="ARC-6" data-name="ARC">
    <path class="cls-2" d="m49.24,356.21c4.85,5.2,10.54,9.56,16.83,12.88"/>
  </g>
  <g id="ARC-7" data-name="ARC">
    <path class="cls-2" d="m392.66,104.58c.79-3.08-.66-6.31-3.49-7.77"/>
  </g>
  <g id="ARC-8" data-name="ARC">
    <path class="cls-2" d="m345.65,411.61c2.62-.59,4.5-2.89,4.55-5.57"/>
  </g>
  <g id="ARC-9" data-name="ARC">
    <path class="cls-2" d="m376.41,103.73c4.47-3.08,7.89-7.45,9.8-12.53"/>
  </g>
  <g id="ARC-10" data-name="ARC">
    <path class="cls-2" d="m298.08,265.71c.6-.13,1.1-.54,1.35-1.1"/>
  </g>
  <g id="ARC-11" data-name="ARC">
    <path class="cls-2" d="m338.61,429.02c-.8-4.06-2.8-7.8-5.74-10.71"/>
  </g>
  <g id="ARC-12" data-name="ARC">
    <path class="cls-2" d="m385.73,104.24c.72-2.72-.28-5.6-2.52-7.3"/>
  </g>
  <g id="ARC-13" data-name="ARC">
    <path class="cls-2" d="m338.72,411.27c2.62-.59,4.5-2.89,4.55-5.57"/>
  </g>
  <g id="ARC-14" data-name="ARC">
    <path class="cls-2" d="m240.3,277.11c5.58-11.48,3.99-25.15-4.06-35.05"/>
  </g>
  <g id="ARC-15" data-name="ARC">
    <path class="cls-2" d="m241.73,247.75c-1.88-4.74-5.66-8.49-10.41-10.34"/>
  </g>
  <g id="ARC-16" data-name="ARC">
    <path class="cls-2" d="m227.85,285.53c4.61.99,9.35-.95,11.94-4.9"/>
  </g>
  <g id="ARC-17" data-name="ARC">
    <path class="cls-2" d="m231.32,237.41c-1.79-.5-3.68-.49-5.46.05"/>
  </g>
  <g id="ARC-18" data-name="ARC">
    <path class="cls-2" d="m49.6,356.45c7.3,7.8,16.45,13.64,26.6,16.98"/>
  </g>
  <g id="ARC-19" data-name="ARC">
    <path class="cls-2" d="m128.57,1.65c-10.79-1.44-21.71,1.61-30.18,8.44"/>
  </g>
  <g id="ARC-20" data-name="ARC">
    <path class="cls-2" d="m381.66,90.05c-.38-1.01-1.16-1.82-2.15-2.24"/>
  </g>
  <g id="ARC-21" data-name="ARC">
    <path class="cls-2" d="m330.72,434.16c1.07.08,2.1-.45,2.66-1.37"/>
  </g>
  <g id="ARC-22" data-name="ARC">
    <path class="cls-2" d="m98.39,10.09c-.2-.08-.43-.05-.61.06"/>
  </g>
  <g id="ARC-23" data-name="ARC">
    <path class="cls-2" d="m386.79,104.33c.83-3.05-.52-6.27-3.27-7.81"/>
  </g>
  <g id="ARC-24" data-name="ARC">
    <path class="cls-2" d="m385.53,104.14c.41.1.83.17,1.25.19"/>
  </g>
  <g id="ARC-25" data-name="ARC">
    <path class="cls-2" d="m392.33,104.61c.83-3.05-.52-6.27-3.27-7.81"/>
  </g>
  <g id="ARC-26" data-name="ARC">
    <path class="cls-2" d="m329.56,424.9c.64.05,1.27-.25,1.62-.79"/>
  </g>
  <g id="ARC-27" data-name="ARC">
    <path class="cls-2" d="m298.59,264.87c.74-.04,1.41-.47,1.74-1.14"/>
  </g>
  <g id="ARC-28" data-name="ARC">
    <path class="cls-2" d="m298.89,265.78c.77-.01,1.46-.47,1.76-1.18"/>
  </g>
  <g id="ARC-29" data-name="ARC">
    <path class="cls-2" d="m300.64,264.6c-4.14,7.53-5.4,16.3-3.55,24.69"/>
  </g>
  <g id="ARC-30" data-name="ARC">
    <path class="cls-2" d="m297.09,289.29c-.12-.71-.69-1.25-1.4-1.35"/>
  </g>
  <g id="ARC-31" data-name="ARC">
    <path class="cls-2" d="m296.53,290.12c-.11-.7-.68-1.24-1.39-1.31"/>
  </g>
  <g id="ARC-32" data-name="ARC">
    <path class="cls-2" d="m376.42,102.93c4.65-2.67,8.14-6.98,9.78-12.08"/>
  </g>
  <g id="ARC-33" data-name="ARC">
    <path class="cls-2" d="m334.39,256.48c-2.27-3.11-5.44-5.43-9.08-6.66"/>
  </g>
  <g id="ARC-34" data-name="ARC">
    <path class="cls-2" d="m309.84,305.79c3.76.82,7.68.45,11.21-1.05"/>
  </g>
  <g id="ARC-35" data-name="ARC">
    <path class="cls-2" d="m296.2,288.83c1.18,7.51,6.48,13.72,13.72,16.06"/>
  </g>
  <g id="ARC-36" data-name="ARC">
    <path class="cls-2" d="m324.92,250.63c-6.87-1.45-14,.68-18.94,5.67"/>
  </g>
  <g id="ARC-37" data-name="ARC">
    <path class="cls-2" d="m295.99,288.62c.07.07.13.15.21.21"/>
  </g>
  <g id="ARC-38" data-name="ARC">
    <path class="cls-2" d="m226.95,284.76c5.68.85,11.21-2.32,13.35-7.65"/>
  </g>
  <g id="ARC-39" data-name="ARC">
    <path class="cls-2" d="m333.69,430.61c.19-.2.24-.49.12-.74"/>
  </g>
  <g id="ARC-40" data-name="ARC">
    <path class="cls-2" d="m385.59,72.19c-.39-.1-.81-.02-1.15.2"/>
  </g>
  <g id="ARC-41" data-name="ARC">
    <path class="cls-2" d="m381.66,90.05c4.43-2.18,7.85-5.98,9.56-10.6"/>
  </g>
  <g id="ARC-42" data-name="ARC">
    <path class="cls-2" d="m381.36,92.23c4.31-2.33,7.65-6.12,9.39-10.7"/>
  </g>
  <g id="ARC-43" data-name="ARC">
    <path class="cls-2" d="m223.89,283.89c3.1,2.72,7.57,3.24,11.21,1.3"/>
  </g>
  <g id="ARC-44" data-name="ARC">
    <path class="cls-2" d="m129.74,1.46c-.4-.1-.82-.03-1.17.19"/>
  </g>
  <g id="ARC-45" data-name="ARC">
    <path class="cls-2" d="m340.38,440.34c-1.18-3.85-3.51-7.25-6.69-9.73"/>
  </g>
  <g id="ARC-46" data-name="ARC">
    <path class="cls-2" d="m340.05,441.79c-1.15-3.66-3.5-6.83-6.67-8.99"/>
  </g>
  <g id="ARC-47" data-name="ARC">
    <path class="cls-2" d="m343.27,405.65c.35.07.7.12,1.05.14"/>
  </g>
  <g id="ARC-48" data-name="ARC">
    <path class="cls-2" d="m345.6,411.65c2.49-.73,4.21-2.99,4.27-5.58"/>
  </g>
  <g id="ARC-49" data-name="ARC">
    <path class="cls-2" d="m377.21,97.33c-.13-.28-.31-.54-.52-.77"/>
  </g>
  <g id="ARC-50" data-name="ARC">
    <path class="cls-2" d="m331.97,418.5c.3-.28.38-.72.21-1.08"/>
  </g>
  <g id="ARC-51" data-name="ARC">
    <path class="cls-2" d="m377.21,97.33c3.11-2.2,5.84-4.87,8.1-7.93"/>
  </g>
  <g id="ARC-52" data-name="ARC">
    <path class="cls-2" d="m298.49,265.75c.57-.16,1.02-.61,1.2-1.18"/>
  </g>
  <g id="ARC-53" data-name="ARC">
    <path class="cls-2" d="m342.93,405.73c.11.02.23.01.33-.03"/>
  </g>
  <g id="ARC-54" data-name="ARC">
    <path class="cls-2" d="m385.4,104.26c.11.02.23.01.33-.03"/>
  </g>
  <g id="ARC-55" data-name="ARC">
    <path class="cls-2" d="m296.2,288.83c-.02-.33-.15-.65-.38-.9"/>
  </g>
  <g id="ARC-56" data-name="ARC">
    <path class="cls-2" d="m385.4,104.26c.62-2.66-.23-5.45-2.24-7.31"/>
  </g>
  <g id="ARC-57" data-name="ARC">
    <path class="cls-2" d="m337.82,434.25c-.98-4.04-3.33-7.62-6.65-10.14"/>
  </g>
  <g id="ARC-58" data-name="ARC">
    <path class="cls-2" d="m338.44,428.99c-1.11-4.04-3.36-7.68-6.47-10.49"/>
  </g>
  <g id="ARC-59" data-name="ARC">
    <path class="cls-2" d="m338.66,411.31c2.49-.73,4.21-2.99,4.27-5.58"/>
  </g>
</svg>