<?xml version="1.0" encoding="UTF-8"?>
<svg id="_0" data-name="0" xmlns="http://www.w3.org/2000/svg" viewBox="0 0 470.91 413.27">
  <defs>
    <style>
      .cls-1 {
        fill: none;
        stroke: #000;
        stroke-linecap: round;
        stroke-linejoin: round;
        stroke-width: 2px;
      }
    </style>
  </defs>
  <g id="POINT">
    <line class="cls-1" x1="235.22" y1="209" x2="235.22" y2="209"/>
  </g>
  <g id="POINT-2" data-name="POINT">
    <line class="cls-1" x1="233.45" y1="225.01" x2="233.45" y2="225.01"/>
  </g>
  <g id="POINT-3" data-name="POINT">
    <line class="cls-1" x1="233.45" y1="225.01" x2="233.45" y2="225.01"/>
  </g>
  <g id="POINT-4" data-name="POINT">
    <line class="cls-1" x1="372.3" y1="258.91" x2="372.3" y2="258.91"/>
  </g>
  <g id="LWPOLYLINE">
    <polyline class="cls-1" points="393.89 251.26 394.03 250.41 393.95 247.67 393.35 244.98 392.27 242.4 390.71 239.97 388.72 237.76 386.34 235.82 383.61 234.2 380.62 232.94 377.44 232.09 374.14 231.66 370.83 231.67 367.57 232.11 364.44 233 361.54 234.31 358.94 236.01 356.73 238.07 354.96 240.42 353.7 242.98 352.97 245.67 352.89 246.73"/>
  </g>
  <g id="LWPOLYLINE-2" data-name="LWPOLYLINE">
    <polyline class="cls-1" points="1.04 217.83 1 220.59 1.41 229.36 2.33 238.13 3.78 246.87 5.75 255.57 8.22 264.21 11.21 272.76 14.7 281.22 18.68 289.55 23.15 297.75 28.09 305.79 33.5 313.66 39.36 321.33 45.66 328.79 52.39 336.02 59.53 343.01 67.06 349.73 74.96 356.18 83.23 362.33 91.83 368.18 100.75 373.71 109.98 378.92 119.47 383.77 129.23 388.28 139.22 392.42 149.42 396.19 159.81 399.58 170.37 402.58 181.06 405.19 191.88 407.39 202.79 409.19 213.76 410.58 224.78 411.56 235.82 412.12 246.85 412.27 257.86 412 268.8 411.31 279.67 410.21 290.44 408.7 301.08 406.78 311.56 404.45 321.87 401.72 331.98 398.6 341.87 395.08 351.51 391.19 360.89 386.93 369.98 382.3 378.76 377.32 387.21 372 395.31 366.35 403.05 360.39 410.39 354.12 417.34 347.56 423.87 340.73 429.96 333.65 435.6 326.32 440.78 318.77 445.49 311.02 449.72 303.08 453.46 294.97 456.69 286.71 459.42 278.32 461.64 269.82 462.03 267.83"/>
  </g>
  <g id="LWPOLYLINE-3" data-name="LWPOLYLINE">
    <polyline class="cls-1" points="35.76 278.16 35.18 277.74 32.17 275.89 29.47 274.58 27.18 273.81 25.3 273.5 23.87 273.57 22.73 273.94 21.79 274.66 21.2 275.69 21.1 276.38"/>
  </g>
  <g id="LWPOLYLINE-4" data-name="LWPOLYLINE">
    <polyline class="cls-1" points="460.49 265.84 460.53 265.19 460.19 264.14 459.38 263.27 458.46 262.87 457.5 262.78 456.36 262.94 454.85 263.47 452.98 264.44 450.75 265.95 448.29 267.96 448.22 268.02"/>
  </g>
  <g id="LWPOLYLINE-5" data-name="LWPOLYLINE">
    <polyline class="cls-1" points="445.91 270.47 445.89 270.49 445.85 270.57"/>
  </g>
  <g id="LWPOLYLINE-6" data-name="LWPOLYLINE">
    <polyline class="cls-1" points="80.41 354.91 84.83 358.07 93.46 363.84 102.41 369.29 111.66 374.42 121.17 379.2 130.94 383.63 140.95 387.71 151.16 391.41 161.56 394.74 172.12 397.68 182.81 400.23 193.62 402.38 204.53 404.13 215.49 405.48 226.5 406.41 237.53 406.94 248.54 407.05 259.52 406.75 270.45 406.03 281.29 404.91 292.02 403.38 302.62 401.44 313.07 399.1 323.34 396.37 333.4 393.25 343.24 389.75 352.84 385.87 362.16 381.63 371.2 377.03 379.92 372.08 388.32 366.8 396.36 361.2 404.04 355.29 411.33 349.08 414.06 346.58"/>
  </g>
  <g id="LWPOLYLINE-7" data-name="LWPOLYLINE">
    <polyline class="cls-1" points="170.86 3.78 163.98 5.22 153.53 7.87 143.27 10.92 133.23 14.38 123.41 18.23 113.86 22.47 104.58 27.1 95.61 32.09 86.96 37.44 78.66 43.14 70.72 49.17 63.17 55.53 56.02 62.18 49.29 69.12 43 76.33 37.16 83.79 31.78 91.49 26.89 99.4 22.47 107.5 18.56 115.78 15.15 124.2 12.24 132.77 9.85 141.45 7.98 150.22 6.63 159.07 6.43 161.2"/>
  </g>
  <g id="LWPOLYLINE-8" data-name="LWPOLYLINE">
    <polyline class="cls-1" points="390.03 269.18 387.43 270.29 385.95 270.69"/>
  </g>
  <g id="LWPOLYLINE-9" data-name="LWPOLYLINE">
    <polyline class="cls-1" points="468.93 212.14 469.53 206.11 469.91 197.18 469.76 188.22 469.09 179.26 467.9 170.32 466.19 161.42 463.96 152.57 461.23 143.8 457.98 135.12 454.24 126.55 450 118.11 445.28 109.83 440.08 101.72 434.42 93.79 428.31 86.08 421.76 78.59 414.79 71.35 407.41 64.37 399.64 57.67 391.5 51.27 383.01 45.17 374.2 39.4 365.07 33.96 355.65 28.88 345.96 24.15 336.03 19.79 325.88 15.81 315.53 12.22 305.01 9.02 294.33 6.23 283.53 3.84 272.62 1.87 268.3 1.26"/>
  </g>
  <g id="LWPOLYLINE-10" data-name="LWPOLYLINE">
    <polyline class="cls-1" points="459.87 271.93 460.46 271.23 461.19 269.51"/>
  </g>
  <g id="LWPOLYLINE-11" data-name="LWPOLYLINE">
    <polyline class="cls-1" points="357.43 246.51 357.99 248.94 359.11 251.26 360.77 253.4 362.89 255.27 365.4 256.81 368.21 257.97 371.22 258.7 374.32 258.97 377.4 258.77 380.35 258.12 383.05 257.04 385.42 255.56 387.36 253.74 388.81 251.64 389.72 249.34 390.04 246.93 389.78 244.49 388.93 242.1 387.54 239.86 385.64 237.85 383.32 236.13 380.64 234.78 377.72 233.83 374.65 233.33 371.54 233.29 368.52 233.71 365.68 234.58 363.13 235.87 360.97 237.53 359.26 239.5 358.08 241.71 357.46 244.07 357.43 246.51"/>
  </g>
  <g id="LWPOLYLINE-12" data-name="LWPOLYLINE">
    <polyline class="cls-1" points="419.12 343.39 411.77 350.39 403.96 357.07 395.71 363.4 387.03 369.37 377.95 374.97 368.49 380.19 358.68 385 348.55 389.4 338.11 393.37 327.4 396.9 316.45 399.99 305.28 402.63 293.92 404.81 282.4 406.52 270.76 407.76 259.02 408.53 247.21 408.82 235.37 408.64 223.52 407.98 211.69 406.84 199.92 405.24 188.24 403.17 176.68 400.63 165.26 397.64 154.03 394.21 142.99 390.34 132.2 386.03 121.67 381.32 111.42 376.19 101.5 370.68 91.92 364.79 82.71 358.53 73.89 351.94"/>
  </g>
  <g id="LWPOLYLINE-13" data-name="LWPOLYLINE">
    <polyline class="cls-1" points="34.89 278.49 31.27 276.62 27.62 275.34 25.22 274.95 23 275.14 21.9 275.69 21.3 276.5 21.18 277.03"/>
  </g>
  <g id="LWPOLYLINE-14" data-name="LWPOLYLINE">
    <polyline class="cls-1" points="74.35 323.57 74.35 323.37 74.31 323.26"/>
  </g>
  <g id="LWPOLYLINE-15" data-name="LWPOLYLINE">
    <polyline class="cls-1" points="72.49 322.09 72.66 321.22 72.74 320.83 72.8 320.66 72.8 320.68"/>
  </g>
  <g id="LWPOLYLINE-16" data-name="LWPOLYLINE">
    <polyline class="cls-1" points="418.64 319.66 418.84 318.4 419.51 315.03"/>
  </g>
  <g id="LWPOLYLINE-17" data-name="LWPOLYLINE">
    <polyline class="cls-1" points="460.49 266.16 460.4 265.25 459.96 264.64 458.77 264.21 456.2 264.58 453.57 265.68 450.79 267.32 449.49 268.24"/>
  </g>
  <g id="LWPOLYLINE-18" data-name="LWPOLYLINE">
    <polyline class="cls-1" points="34.89 278.49 35.11 278.32 35.31 278.2 35.49 278.12 35.64 278.11 35.76 278.15 35.77 278.15"/>
  </g>
  <g id="LWPOLYLINE-19" data-name="LWPOLYLINE">
    <polyline class="cls-1" points="420.49 312.08 420.75 312.14 421.1 312.61 421.42 313.25 421.51 313.45"/>
  </g>
  <g id="LWPOLYLINE-20" data-name="LWPOLYLINE">
    <polyline class="cls-1" points="445.9 270.55 441.39 277.68 436.86 284.92"/>
  </g>
  <g id="LWPOLYLINE-21" data-name="LWPOLYLINE">
    <polyline class="cls-1" points="19.88 288.76 19.87 288.73 19.56 287.51 19.47 286.21 19.63 285.38 19.88 284.93 20 284.81 20.25 284.68"/>
  </g>
  <g id="LWPOLYLINE-22" data-name="LWPOLYLINE">
    <polyline class="cls-1" points="459.19 277.89 459.2 277.86 459.24 277.39"/>
  </g>
  <g id="LWPOLYLINE-23" data-name="LWPOLYLINE">
    <polyline class="cls-1" points="57.8 208.74 61.42 207.76 64.5 208.05 66.84 209.15 68.31 210.82 68.51 211.2"/>
  </g>
  <g id="LWPOLYLINE-24" data-name="LWPOLYLINE">
    <polyline class="cls-1" points="190.3 61.26 189.02 53.88 181.68 11.98"/>
  </g>
  <g id="LWPOLYLINE-25" data-name="LWPOLYLINE">
    <polyline class="cls-1" points="263.07 9.97 270.41 51.87 271.69 59.25"/>
  </g>
  <g id="LWPOLYLINE-26" data-name="LWPOLYLINE">
    <polyline class="cls-1" points="357.16 182.84 359.15 178.65 361.95 175.04 365.46 172.1 369.57 169.84 374.48 168.21 379.82 167.37 386.02 167.34 392.42 168.2 399.28 170.08 405.99 172.88 412.43 176.6 418.31 181.11 423.28 186.15 427.35 191.7 430.02 196.8 431.8 202.04"/>
  </g>
  <g id="LWPOLYLINE-27" data-name="LWPOLYLINE">
    <polyline class="cls-1" points="388.38 273.03 382.72 274.13 376.8 274.34 369.86 273.48 363.01 271.51 356.29 268.37 350.09 264.25 344.67 259.34 340.1 253.74 336.69 247.99 334.22 241.91 332.88 236.22 332.45 230.52 332.92 225.29 334.25 220.32 336.46 215.75 339.48 211.74"/>
  </g>
  <g id="LWPOLYLINE-28" data-name="LWPOLYLINE">
    <polyline class="cls-1" points="411.77 246.97 408.65 253.37 407.04 257"/>
  </g>
  <g id="LWPOLYLINE-29" data-name="LWPOLYLINE">
    <polyline class="cls-1" points="420.32 233 415.82 239.79 411.77 246.97"/>
  </g>
  <g id="LWPOLYLINE-30" data-name="LWPOLYLINE">
    <polyline class="cls-1" points="426.87 224.59 424.5 227.47 420.32 233"/>
  </g>
  <g id="LWPOLYLINE-31" data-name="LWPOLYLINE">
    <polyline class="cls-1" points="251.06 239.69 259.06 239.26 266.98 238.38 274.76 237.04 282.37 235.26 289.77 233.05 296.92 230.41 303.77 227.36 310.31 223.92 316.48 220.1 322.26 215.92 327.63 211.41 332.54 206.59 336.98 201.49 340.92 196.12 344.35 190.52 347.23 184.73 349.57 178.76 351.34 172.65 352.54 166.43 353.16 160.13 353.2 153.79 352.66 147.44 351.54 141.12 349.84 134.84 347.58 128.66 344.77 122.6 341.42 116.69 337.55 110.96 333.18 105.45 328.33 100.17 323.02 95.17 317.3 90.46 311.17 86.07 304.69 82.02 297.87 78.34 290.76 75.04 283.4 72.14 275.82 69.66 268.05 67.6 260.15 65.98 252.15 64.81 244.1 64.1 236.04 63.84 228 64.03 220.03 64.69 212.18 65.8 204.47 67.36 196.96 69.36 189.69 71.79 182.68 74.63 175.98 77.88 169.62 81.51 163.64 85.51 158.07 89.86 152.92 94.53 148.24 99.49 144.05 104.73 140.37 110.22 137.21 115.92 134.6 121.8 132.54 127.85 131.05 134.02 130.14 140.28 129.81 146.6 130.06 152.95 130.89 159.29 132.3 165.6 134.28 171.83 136.82 177.95 139.9 183.94 143.52 189.77 147.64 195.39 152.26 200.79 157.34 205.93 162.86 210.79 168.78 215.34 175.09 219.56 181.75 223.43 188.71 226.92 195.96 230.03 203.43 232.72 211.11 234.99 218.95 236.83 226.9 238.22 234.93 239.17 243 239.66 251.06 239.69"/>
  </g>
  <g id="LWPOLYLINE-32" data-name="LWPOLYLINE">
    <polyline class="cls-1" points="96.17 289.96 104.69 296.05 113.57 301.79 122.81 307.18 132.36 312.19 142.21 316.82 152.33 321.04 162.68 324.86 173.24 328.25 183.99 331.21 194.89 333.73 205.91 335.81 217.02 337.43 228.2 338.59 239.4 339.3 250.61 339.55 261.78 339.33 272.89 338.65 283.91 337.51 294.81 335.92 305.56 333.87 316.12 331.37 326.47 328.44 336.59 325.07 346.44 321.28 355.99 317.08 365.22 312.48 374.11 307.49 382.63 302.13 390.76 296.4 398.47 290.33 405.74 283.94 412.55 277.23 418.89 270.24"/>
  </g>
  <g id="LWPOLYLINE-33" data-name="LWPOLYLINE">
    <polyline class="cls-1" points="192.27 5.16 181.17 6.91 170.24 9.12 159.5 11.81 148.99 14.94 138.75 18.53 128.79 22.55 119.15 27.01 109.85 31.87 100.92 37.13 92.39 42.78 84.29 48.79 76.63 55.16 69.43 61.86 62.72 68.87 56.52 76.18 50.84 83.76 45.71 91.59 41.13 99.64 37.11 107.9 33.68 116.35 30.84 124.95 28.59 133.68 26.95 142.52 25.92 151.44 25.5 160.42 25.7 169.43 26.5 178.45 27.92 187.44 29.94 196.39 32.57 205.27 35.78 214.04 39.59 222.7 43.96 231.2 48.89 239.54"/>
  </g>
  <g id="LWPOLYLINE-34" data-name="LWPOLYLINE">
    <polyline class="cls-1" points="443.65 229.77 446.76 221.24 449.27 212.56 451.18 203.77 452.48 194.88 453.17 185.92 453.25 176.92 452.72 167.9 451.57 158.9 449.82 149.93 447.46 141.01 444.51 132.19 440.97 123.48 436.85 114.9 432.16 106.49 426.92 98.26 421.15 90.24 414.85 82.45 408.05 74.92 400.76 67.66 393.02 60.7 384.83 54.06 376.22 47.75 367.23 41.79 357.86 36.21 348.16 31.01 338.15 26.22 327.85 21.84 317.3 17.89 306.52 14.38 295.55 11.32 284.42 8.71 273.17 6.58 261.81 4.91 250.39 3.72"/>
  </g>
  <g id="LWPOLYLINE-35" data-name="LWPOLYLINE">
    <polyline class="cls-1" points="98.08 257.9 98.59 255.98 98.51 255.09 98.18 254.43 97.98 254.21"/>
  </g>
  <g id="LWPOLYLINE-36" data-name="LWPOLYLINE">
    <polyline class="cls-1" points="418.36 308.76 410.79 315.44 402.77 321.8 394.34 327.82 385.51 333.48 376.3 338.76 366.74 343.65 356.85 348.15 346.67 352.24 336.2 355.9 325.48 359.14 314.54 361.94 303.41 364.29 292.11 366.19 280.67 367.63 269.12 368.61 257.49 369.13 245.81 369.19 234.11 368.78 222.42 367.91 210.77 366.58 199.19 364.79 187.7 362.55 176.35 359.86 165.14 356.73 154.13 353.17 143.32 349.18 132.75 344.78 122.46 339.98 112.45 334.79 102.76 329.23 93.41 323.3 84.43 317.02"/>
  </g>
  <g id="LWPOLYLINE-37" data-name="LWPOLYLINE">
    <polyline class="cls-1" points="80.3 354.49 89.28 360.77 98.62 366.69 108.31 372.26 118.32 377.45 128.62 382.25 139.18 386.65 149.99 390.64 161.01 394.2 172.21 397.33 183.57 400.02 195.05 402.26 206.64 404.05 218.29 405.38 229.98 406.25 241.68 406.66 253.36 406.6 264.98 406.08 276.53 405.1 287.97 403.65 299.27 401.76 310.41 399.4 321.35 396.61 332.06 393.37 342.53 389.71 352.72 385.62 362.61 381.12 372.16 376.23 381.37 370.94 390.2 365.29 398.64 359.27 406.65 352.91 414.23 346.23"/>
  </g>
  <g id="LWPOLYLINE-38" data-name="LWPOLYLINE">
    <polyline class="cls-1" points="134.02 293.73 133.4 295.28 133.4 295.43"/>
  </g>
  <g id="LWPOLYLINE-39" data-name="LWPOLYLINE">
    <polyline class="cls-1" points="137.24 298.25 135.7 297.28 135.23 296.69 135.01 295.98 135.04 295.48"/>
  </g>
  <g id="LWPOLYLINE-40" data-name="LWPOLYLINE">
    <polyline class="cls-1" points="44.7 248.53 37.76 244.62 34.31 243.34 30.97 242.68 27.3 243.02 25.42 244.24 24.53 246.37"/>
  </g>
  <g id="LWPOLYLINE-41" data-name="LWPOLYLINE">
    <polyline class="cls-1" points="135.45 293.86 135.07 294.91 135.12 295.7 135.47 296.41 136.16 297.03 137.3 297.69"/>
  </g>
  <g id="LWPOLYLINE-42" data-name="LWPOLYLINE">
    <polyline class="cls-1" points="140.17 293.31 138.89 292.75 137.9 292.54 137.12 292.63 136.4 292.94 135.76 293.46 135.45 293.86"/>
  </g>
  <g id="LWPOLYLINE-43" data-name="LWPOLYLINE">
    <polyline class="cls-1" points="250.64 234.95 258.44 234.53 266.14 233.65 273.72 232.32 281.11 230.56 288.29 228.35 295.21 225.73 301.84 222.7 308.15 219.29 314.08 215.5 319.63 211.36 324.74 206.89 329.4 202.12 333.59 197.07 337.27 191.77 340.42 186.25 343.04 180.54 345.1 174.67 346.6 168.67 347.53 162.58 347.87 156.43 347.64 150.25 346.82 144.07 345.43 137.93 343.48 131.87 340.97 125.91 337.91 120.1 334.33 114.45 330.24 109 325.67 103.79 320.64 98.83 315.17 94.16 309.31 89.81 303.07 85.79 296.5 82.12 289.63 78.84 282.5 75.95 275.14 73.47 267.6 71.42 259.92 69.8 252.14 68.63 244.3 67.92 236.44 67.65 228.62 67.85 220.86 68.49 213.22 69.6 205.73 71.15 198.44 73.13 191.38 75.54 184.6 78.37 178.13 81.6 172.01 85.2 166.26 89.17 160.93 93.48 156.04 98.1 151.61 103.01 147.68 108.19 144.26 113.6 141.37 119.22 139.03 125.02 137.24 130.95 136.03 137 135.4 143.13 135.34 149.3 135.87 155.48 136.97 161.64 138.64 167.75 140.88 173.76 143.66 179.65 146.98 185.39 150.82 190.94 155.15 196.28 159.96 201.36 165.21 206.18 170.88 210.7 176.93 214.89 183.34 218.73 190.07 222.21 197.07 225.3 204.32 227.98 211.78 230.25 219.39 232.08 227.13 233.48 234.95 234.42 242.8 234.91 250.64 234.95"/>
  </g>
  <g id="LWPOLYLINE-44" data-name="LWPOLYLINE">
    <polyline class="cls-1" points="250.16 227.75 257.67 227.34 265.09 226.47 272.38 225.15 279.48 223.39 286.36 221.21 292.98 218.6 299.3 215.59 305.28 212.19 310.89 208.43 316.09 204.33 320.86 199.91 325.16 195.19 328.98 190.21 332.28 185 335.05 179.57 337.27 173.98 338.93 168.24 340.02 162.4 340.53 156.48 340.47 150.53 339.82 144.57 338.6 138.64 336.81 132.78 334.46 127.03 331.57 121.4 328.15 115.95 324.23 110.69 319.82 105.67 314.95 100.9 309.65 96.42 303.95 92.26 297.89 88.43 291.5 84.97 284.82 81.89 277.88 79.21 270.73 76.94 263.41 75.1 255.97 73.7 248.44 72.75 240.87 72.26 233.31 72.21 225.79 72.63 218.37 73.5 211.09 74.81 203.98 76.57 197.1 78.76 190.48 81.37 184.16 84.38 178.18 87.78 172.57 91.54 167.37 95.64 162.6 100.06 158.3 104.78 154.49 109.76 151.19 114.97 148.42 120.39 146.2 125.99 144.53 131.73 143.44 137.57 142.93 143.49 143 149.44 143.64 155.4 144.86 161.32 146.65 167.18 149 172.94 151.89 178.56 155.31 184.02 159.24 189.28 163.65 194.3 168.51 199.07 173.81 203.55 179.51 207.71 185.57 211.53 191.96 215 198.65 218.08 205.58 220.76 212.73 223.03 220.05 224.87 227.49 226.26 235.02 227.21 242.59 227.71 250.16 227.75"/>
  </g>
  <g id="LWPOLYLINE-45" data-name="LWPOLYLINE">
    <polyline class="cls-1" points="249.04 214.11 255.99 213.7 262.84 212.84 269.54 211.53 276.04 209.77 282.31 207.58 288.3 204.98 293.96 201.97 299.25 198.6 304.14 194.86 308.6 190.81 312.59 186.45 316.08 181.83 319.05 176.97 321.48 171.91 323.35 166.69 324.65 161.33 325.38 155.89 325.51 150.39 325.06 144.88 324.03 139.39 322.42 133.97 320.24 128.64 317.52 123.45 314.26 118.44 310.5 113.64 306.26 109.08 301.57 104.79 296.45 100.81 290.96 97.17 285.12 93.88 278.98 90.98 272.58 88.47 265.96 86.39 259.17 84.74 252.27 83.54 245.29 82.79 238.28 82.5 231.31 82.67 224.4 83.31 217.62 84.4 211.01 85.93 204.62 87.91 198.49 90.31 192.66 93.11 187.18 96.3 182.08 99.86 177.4 103.76 173.18 107.97 169.44 112.46 166.2 117.21 163.5 122.17 161.34 127.32 159.76 132.61 158.74 138.01 158.31 143.49 158.47 149 159.22 154.51 160.54 159.97 162.43 165.35 164.88 170.61 167.88 175.71 171.39 180.62 175.39 185.31 179.86 189.74 184.77 193.87 190.08 197.69 195.75 201.16 201.75 204.26 208.03 206.96 214.54 209.26 221.25 211.12 228.1 212.55 235.05 213.53 242.05 214.05 249.04 214.11"/>
  </g>
  <g id="LWPOLYLINE-46" data-name="LWPOLYLINE">
    <polyline class="cls-1" points="98.47 256.68 98.31 257.66 98.22 257.92"/>
  </g>
  <g id="LWPOLYLINE-47" data-name="LWPOLYLINE">
    <polyline class="cls-1" points="92.98 259.38 92.96 257.75 93.01 257.05"/>
  </g>
  <g id="LWPOLYLINE-48" data-name="LWPOLYLINE">
    <polyline class="cls-1" points="248.3 204.99 254.83 204.59 261.26 203.74 267.54 202.42 273.61 200.67 279.43 198.48 284.94 195.88 290.11 192.89 294.9 189.53 299.25 185.83 303.15 181.82 306.56 177.53 309.44 172.99 311.78 168.25 313.57 163.34 314.77 158.3 315.39 153.17 315.42 147.99 314.86 142.8 313.71 137.65 311.99 132.58 309.7 127.63 306.86 122.83 303.51 118.23 299.66 113.86 295.35 109.76 290.6 105.96 285.47 102.5 279.98 99.39 274.2 96.67 268.15 94.36 261.89 92.47 255.47 91.02 248.94 90.03 242.36 89.49 235.78 89.42 229.24 89.82 222.81 90.67 216.54 91.99 210.47 93.74 204.65 95.93 199.13 98.53 193.96 101.52 189.18 104.88 184.82 108.58 180.93 112.59 177.52 116.88 174.64 121.42 172.29 126.16 170.51 131.07 169.31 136.11 168.69 141.24 168.66 146.42 169.22 151.61 170.37 156.75 172.09 161.83 174.38 166.78 177.21 171.58 180.57 176.18 184.42 180.55 188.73 184.65 193.47 188.44 198.61 191.91 204.09 195.02 209.88 197.74 215.93 200.05 222.19 201.94 228.61 203.39 235.13 204.38 241.71 204.92 248.3 204.99"/>
  </g>
  <g id="LWPOLYLINE-49" data-name="LWPOLYLINE">
    <polyline class="cls-1" points="247.18 191.34 253.03 190.96 258.76 190.11 264.32 188.81 269.66 187.06 274.71 184.89 279.43 182.31 283.77 179.36 287.68 176.05 291.13 172.44 294.07 168.55 296.48 164.42 298.34 160.1 299.62 155.63 300.31 151.06 300.4 146.42 299.9 141.79 298.8 137.18 297.13 132.67 294.89 128.29 292.11 124.08 288.82 120.09 285.05 116.37 280.84 112.94 276.24 109.85 271.28 107.13 266.03 104.8 260.54 102.88 254.85 101.41 249.04 100.39 243.15 99.83 237.26 99.74 231.42 100.12 225.69 100.96 220.12 102.27 214.79 104.01 209.74 106.19 205.02 108.77 200.68 111.72 196.76 115.02 193.32 118.64 190.38 122.53 187.96 126.66 186.11 130.98 184.83 135.45 184.14 140.02 184.04 144.65 184.55 149.29 185.64 153.89 187.32 158.41 189.55 162.79 192.33 167 195.62 170.98 199.39 174.71 203.6 178.13 208.21 181.23 213.16 183.95 218.41 186.28 223.91 188.19 229.59 189.67 235.41 190.69 241.29 191.25 247.18 191.34"/>
  </g>
  <g id="LWPOLYLINE-50" data-name="LWPOLYLINE">
    <polyline class="cls-1" points="21.11 242.94 22.4 239.57 25.09 237.24 27.51 236.22 30.29 235.64 34.85 235.56 39.66 236.29 44.31 237.64 48.89 239.54"/>
  </g>
  <g id="LWPOLYLINE-51" data-name="LWPOLYLINE">
    <polyline class="cls-1" points="462.68 235.53 462.71 235.09 462.35 233.33 460.98 232.2 458.58 232.09 456.29 232.75 453.88 233.91 449.08 237.24 447.53 238.56"/>
  </g>
  <g id="LWPOLYLINE-52" data-name="LWPOLYLINE">
    <polyline class="cls-1" points="6.38 161.18 6.4 161.07 6.41 160.94"/>
  </g>
  <g id="LWPOLYLINE-53" data-name="LWPOLYLINE">
    <polyline class="cls-1" points="396 195 399.23 195.15 402.42 195.75 405.44 196.79 408.21 198.22 410.64 200.01 412.65 202.09 414.17 204.4 415.16 206.86 415.58 209.4 415.42 211.94 414.68 214.39 413.4 216.67 411.6 218.71 409.36 220.44 406.73 221.82 403.81 222.79 400.68 223.32 397.46 223.4 394.23 223.02 391.12 222.2 388.21 220.97 385.6 219.35 383.37 217.41 381.6 215.2 380.34 212.81 379.63 210.29 379.5 207.75 379.95 205.24 380.96 202.87 382.51 200.7 384.54 198.81 386.99 197.24 389.77 196.07 392.81 195.31 396 195"/>
  </g>
  <g id="LWPOLYLINE-54" data-name="LWPOLYLINE">
    <polyline class="cls-1" points="371.23 228.32 375.18 228.46 379.09 229.08 382.87 230.15 386.42 231.65 389.67 233.55 392.54 235.81 394.96 238.36 396.88 241.16 398.24 244.13 399.03 247.2 399.22 250.31 398.8 253.38 397.78 256.34 396.2 259.11 394.08 261.64 391.48 263.87 388.46 265.74 385.08 267.2 381.43 268.23 377.59 268.8 373.66 268.9 369.72 268.52 365.86 267.68 362.19 266.39 358.78 264.68 355.71 262.59 353.05 260.18 350.88 257.5 349.23 254.61 348.15 251.58 347.67 248.47 347.78 245.38 348.5 242.35 349.8 239.48 351.66 236.82 354.03 234.43 356.85 232.38 360.06 230.71 363.58 229.46 367.34 228.66 371.23 228.32"/>
  </g>
  <g id="LWPOLYLINE-55" data-name="LWPOLYLINE">
    <polyline class="cls-1" points="246.44 182.22 251.68 181.86 256.81 181.05 261.76 179.79 266.48 178.1 270.9 176 274.97 173.52 278.66 170.69 281.89 167.54 284.65 164.11 286.9 160.43 288.61 156.57 289.75 152.56 290.32 148.44 290.3 144.28 289.71 140.12 288.54 136.02 286.8 132.01 284.53 128.16 281.75 124.5 278.49 121.09 274.79 117.95 270.69 115.14 266.25 112.69 261.52 110.62 256.56 108.96 251.43 107.73 246.18 106.95 240.89 106.62 235.62 106.75 230.43 107.34 225.38 108.38 220.54 109.85 215.96 111.75 211.71 114.04 207.82 116.7 204.36 119.7 201.35 122.99 198.85 126.55 196.87 130.33 195.44 134.27 194.58 138.34 194.31 142.48 194.61 146.65 195.5 150.79 196.95 154.85 198.96 158.79 201.49 162.55 204.52 166.09 208 169.37 211.91 172.34 216.18 174.98 220.77 177.24 225.62 179.11 230.68 180.56 235.87 181.57 241.15 182.12 246.44 182.22"/>
  </g>
  <g id="LWPOLYLINE-56" data-name="LWPOLYLINE">
    <polyline class="cls-1" points="352.98 244.55 352.79 244.98 351.93 247.65 351.64 250.42 351.94 253.21 352.82 255.95 354.26 258.56 356.21 260.98 358.62 263.13 361.43 264.96 364.55 266.41 367.92 267.45 371.42 268.05 374.97 268.2 378.47 267.88 381.82 267.11 384.94 265.91 387.74 264.31 390.14 262.35 392.07 260.09 393.49 257.59 394.35 254.92 394.63 252.15 394.33 249.36 394.25 249"/>
  </g>
  <g id="LWPOLYLINE-57" data-name="LWPOLYLINE">
    <polyline class="cls-1" points="245.33 168.57 249.66 168.24 253.86 167.44 257.87 166.21 261.6 164.56 264.98 162.52 267.97 160.12 270.51 157.42 272.54 154.46 274.04 151.28 274.98 147.96 275.34 144.54 275.11 141.09 274.3 137.67 272.92 134.34 271.01 131.16 268.58 128.19 265.69 125.47 262.38 123.07 258.72 121.02 254.78 119.35 250.61 118.11 246.3 117.3 241.92 116.95 237.56 117.06 233.28 117.62 229.16 118.64 225.29 120.08 221.72 121.93 218.53 124.16 215.76 126.71 213.47 129.55 211.7 132.63 210.48 135.88 209.83 139.26 209.76 142.7 210.28 146.15 211.38 149.53 213.03 152.79 215.21 155.87 217.87 158.72 220.97 161.29 224.46 163.52 228.28 165.38 232.34 166.84 236.59 167.87 240.94 168.45 245.33 168.57"/>
  </g>
  <g id="LWPOLYLINE-58" data-name="LWPOLYLINE">
    <polyline class="cls-1" points="68.99 214.9 68.82 212.67 68.45 211.76"/>
  </g>
  <g id="LWPOLYLINE-59" data-name="LWPOLYLINE">
    <polyline class="cls-1" points="54.47 218.25 54.02 216.44 54.13 215.78"/>
  </g>
  <g id="LWPOLYLINE-60" data-name="LWPOLYLINE">
    <polyline class="cls-1" points="351.64 250.26 352.49 247.64 352.8 246.99"/>
  </g>
  <g id="LWPOLYLINE-61" data-name="LWPOLYLINE">
    <polyline class="cls-1" points="244.52 155.71 247.92 155.39 251.18 154.6 254.18 153.37 256.83 151.74 259.06 149.76 260.8 147.48 261.99 144.97 262.59 142.32 262.6 139.6 262.01 136.9 260.83 134.29 259.11 131.86 256.89 129.68 254.24 127.81 251.25 126.32 248 125.25 244.59 124.63 241.13 124.47 237.72 124.8 234.47 125.58 231.47 126.81 228.81 128.44 226.59 130.43 224.85 132.71 223.66 135.21 223.05 137.86 223.05 140.58 223.64 143.29 224.82 145.89 226.54 148.32 228.76 150.51 231.41 152.37 234.4 153.86 237.65 154.93 241.06 155.56 244.52 155.71"/>
  </g>
  <g id="LWPOLYLINE-62" data-name="LWPOLYLINE">
    <polyline class="cls-1" points="48.13 202.68 47.88 201.41 47.99 200.61"/>
  </g>
  <g id="LWPOLYLINE-63" data-name="LWPOLYLINE">
    <polyline class="cls-1" points="62.83 200.21 62.95 199.01 62.62 197.51"/>
  </g>
  <g id="LWPOLYLINE-64" data-name="LWPOLYLINE">
    <polyline class="cls-1" points="48.09 196.89 46.76 199.01 46.43 200.65"/>
  </g>
  <g id="LWPOLYLINE-65" data-name="LWPOLYLINE">
    <polyline class="cls-1" points="406.87 246.61 410.99 239.3 415.58 232.37"/>
  </g>
  <g id="LWPOLYLINE-66" data-name="LWPOLYLINE">
    <polyline class="cls-1" points="443.65 229.77 445.77 228.56 452.49 225.78 455.98 225.08 459.29 225.04 462.82 226.17 464.86 228.44 465.39 231.29 465.35 231.95"/>
  </g>
  <g id="LWPOLYLINE-67" data-name="LWPOLYLINE">
    <polyline class="cls-1" points="426.66 203.92 425.12 199.22 422.81 194.63 419.23 189.57 414.87 184.95 409.65 180.73 403.92 177.21 397.9 174.49 391.73 172.59 385.93 171.62 380.28 171.46 375.41 172.07 370.91 173.4 367.15 175.34 363.92 177.92 361.36 181.14 359.55 184.92"/>
  </g>
  <g id="LWPOLYLINE-68" data-name="LWPOLYLINE">
    <polyline class="cls-1" points="396.07 201.06 393.25 201.36 390.6 202.13 388.24 203.32 386.27 204.89 384.79 206.76 383.84 208.86 383.49 211.09 383.73 213.35 384.57 215.55 385.96 217.59 387.84 219.37 390.13 220.84 392.74 221.91 395.54 222.54 398.42 222.7 401.24 222.4 403.89 221.63 406.25 220.44 408.21 218.87 409.7 217 410.64 214.9 411 212.67 410.75 210.41 409.92 208.21 408.53 206.17 406.64 204.38 404.35 202.92 401.75 201.85 398.95 201.22 396.07 201.06"/>
  </g>
  <g id="LWPOLYLINE-69" data-name="LWPOLYLINE">
    <polyline class="cls-1" points="17.02 280.74 16.98 280.61 16.97 280.41"/>
  </g>
  <g id="LWPOLYLINE-70" data-name="LWPOLYLINE">
    <polyline class="cls-1" points="211.01 46.58 203.88 46.95 201.52 47.09"/>
  </g>
  <g id="LWPOLYLINE-71" data-name="LWPOLYLINE">
    <polyline class="cls-1" points="201.52 47.09 201.35 46.11 200.15 39.29"/>
  </g>
  <g id="LWPOLYLINE-72" data-name="LWPOLYLINE">
    <polyline class="cls-1" points="216.59 42.96 217.03 45.44 217.19 46.31"/>
  </g>
  <g id="LWPOLYLINE-73" data-name="LWPOLYLINE">
    <polyline class="cls-1" points="217.19 46.31 218.26 46.26 219.36 46.22"/>
  </g>
  <g id="LWPOLYLINE-74" data-name="LWPOLYLINE">
    <polyline class="cls-1" points="249.37 34.34 249.24 33.57 248.33 28.43"/>
  </g>
  <g id="LWPOLYLINE-75" data-name="LWPOLYLINE">
    <polyline class="cls-1" points="254.04 34.37 250.53 34.35 249.37 34.34"/>
  </g>
  <g id="LWPOLYLINE-76" data-name="LWPOLYLINE">
    <polyline class="cls-1" points="234.27 34.38 233.99 32.79 232.39 23.79"/>
  </g>
  <g id="LWPOLYLINE-77" data-name="LWPOLYLINE">
    <polyline class="cls-1" points="238.94 34.32 235.44 34.36 234.27 34.38"/>
  </g>
  <g id="LWPOLYLINE-78" data-name="LWPOLYLINE">
    <polyline class="cls-1" points="214.3 24.3 214.73 26.71 214.77 26.96"/>
  </g>
  <g id="LWPOLYLINE-79" data-name="LWPOLYLINE">
    <polyline class="cls-1" points="214.77 26.96 215.39 26.94 219.67 26.8"/>
  </g>
  <g id="LWPOLYLINE-80" data-name="LWPOLYLINE">
    <polyline class="cls-1" points="219.67 26.8 220.89 33.67 221.07 34.69"/>
  </g>
  <g id="LWPOLYLINE-81" data-name="LWPOLYLINE">
    <polyline class="cls-1" points="224.37 26.67 224.79 26.66 228.81 26.56"/>
  </g>
  <g id="LWPOLYLINE-82" data-name="LWPOLYLINE">
    <polyline class="cls-1" points="207.87 28.31 206.78 27.78 205.43 27.48 204.04 27.46 202.77 27.71 201.71 28.18 200.97 28.84 200.62 29.63 200.63 29.7"/>
  </g>
  <g id="LWPOLYLINE-83" data-name="LWPOLYLINE">
    <polyline class="cls-1" points="195.6 29.46 195.86 31.24 197.22 33 199.53 34.39 202.45 35.22 205.55 35.42 208.45 35.02 210.91 34.12 212.75 32.81"/>
  </g>
  <g id="LWPOLYLINE-84" data-name="LWPOLYLINE">
    <polyline class="cls-1" points="271.63 59.8 269.12 45.36 263.01 10.52"/>
  </g>
  <g id="LWPOLYLINE-85" data-name="LWPOLYLINE">
    <polyline class="cls-1" points="252.83 40.06 251.61 39.48 250.15 39.14 248.68 39.1 247.32 39.34 246.2 39.84 245.43 40.56 245.16 41.35"/>
  </g>
  <g id="LWPOLYLINE-86" data-name="LWPOLYLINE">
    <polyline class="cls-1" points="242.68 41.11 242.63 41.26 242.99 42.73 244.19 44.11 246.05 45.19 248.27 45.85 250.57 46.05 252.73 45.82 254.58 45.19 255.53 44.59"/>
  </g>
  <g id="LWPOLYLINE-87" data-name="LWPOLYLINE">
    <polyline class="cls-1" points="248.79 41.03 248.9 41.68 249.02 42.34"/>
  </g>
  <g id="LWPOLYLINE-88" data-name="LWPOLYLINE">
    <polyline class="cls-1" points="249.02 42.34 251 42.35 252.95 42.36"/>
  </g>
  <g id="LWPOLYLINE-89" data-name="LWPOLYLINE">
    <polyline class="cls-1" points="252.95 42.36 253.08 43.06 253.12 43.3"/>
  </g>
  <g id="LWPOLYLINE-90" data-name="LWPOLYLINE">
    <polyline class="cls-1" points="239.92 45.74 238.85 45.75 237.75 45.76"/>
  </g>
  <g id="LWPOLYLINE-91" data-name="LWPOLYLINE">
    <polyline class="cls-1" points="237.24 42.87 237.23 42.82 236.37 38"/>
  </g>
  <g id="LWPOLYLINE-92" data-name="LWPOLYLINE">
    <polyline class="cls-1" points="227.8 45.96 227.62 44.96 226.42 38.19"/>
  </g>
  <g id="LWPOLYLINE-93" data-name="LWPOLYLINE">
    <polyline class="cls-1" points="229.97 45.9 228.88 45.93 227.8 45.96"/>
  </g>
  <g id="LWPOLYLINE-94" data-name="LWPOLYLINE">
    <polyline class="cls-1" points="201.58 46.53 204.07 46.39 211.07 46.02"/>
  </g>
  <g id="LWPOLYLINE-95" data-name="LWPOLYLINE">
    <polyline class="cls-1" points="210.84 44.72 207.31 44.89 203.53 45.1"/>
  </g>
  <g id="LWPOLYLINE-96" data-name="LWPOLYLINE">
    <polyline class="cls-1" points="211.07 46.02 211.02 45.73 210.84 44.72"/>
  </g>
  <g id="LWPOLYLINE-97" data-name="LWPOLYLINE">
    <polyline class="cls-1" points="200.21 38.73 201.34 45.13 201.58 46.53"/>
  </g>
  <g id="LWPOLYLINE-98" data-name="LWPOLYLINE">
    <polyline class="cls-1" points="202.39 38.61 201.33 38.67 200.21 38.73"/>
  </g>
  <g id="LWPOLYLINE-99" data-name="LWPOLYLINE">
    <polyline class="cls-1" points="203.53 45.1 203.19 43.17 202.39 38.61"/>
  </g>
  <g id="LWPOLYLINE-100" data-name="LWPOLYLINE">
    <polyline class="cls-1" points="210.92 38.18 212.39 38.12 213.84 38.06"/>
  </g>
  <g id="LWPOLYLINE-101" data-name="LWPOLYLINE">
    <polyline class="cls-1" points="218.83 42.34 219.2 44.41 219.42 45.66"/>
  </g>
  <g id="LWPOLYLINE-102" data-name="LWPOLYLINE">
    <polyline class="cls-1" points="217.25 45.75 217.03 44.5 216.65 42.4"/>
  </g>
  <g id="LWPOLYLINE-103" data-name="LWPOLYLINE">
    <polyline class="cls-1" points="228.65 37.58 227.56 37.61 226.48 37.63"/>
  </g>
  <g id="LWPOLYLINE-104" data-name="LWPOLYLINE">
    <polyline class="cls-1" points="236.43 37.44 237.11 41.25 237.42 42.98"/>
  </g>
  <g id="LWPOLYLINE-105" data-name="LWPOLYLINE">
    <polyline class="cls-1" points="239.98 45.18 239.71 43.68 238.6 37.41"/>
  </g>
  <g id="LWPOLYLINE-106" data-name="LWPOLYLINE">
    <polyline class="cls-1" points="230.03 45.34 229.85 44.33 229.05 39.81"/>
  </g>
  <g id="LWPOLYLINE-107" data-name="LWPOLYLINE">
    <polyline class="cls-1" points="227.86 45.4 228.94 45.37 230.03 45.34"/>
  </g>
  <g id="LWPOLYLINE-108" data-name="LWPOLYLINE">
    <polyline class="cls-1" points="226.48 37.63 227.59 43.88 227.86 45.4"/>
  </g>
  <g id="LWPOLYLINE-109" data-name="LWPOLYLINE">
    <polyline class="cls-1" points="255.59 44.03 253.96 44.93 251.82 45.42 249.49 45.45 247.27 45.04 245.32 44.25 243.8 43.15 242.88 41.81 242.73 40.36 243.43 38.98 244.92 37.88 246.97 37.21 249.27 37.03 251.56 37.31 253.63 38.01 254.62 38.55"/>
  </g>
  <g id="LWPOLYLINE-110" data-name="LWPOLYLINE">
    <polyline class="cls-1" points="253.01 41.8 251.13 41.79 249.08 41.78"/>
  </g>
  <g id="LWPOLYLINE-111" data-name="LWPOLYLINE">
    <polyline class="cls-1" points="249.08 41.78 248.92 40.89 248.85 40.48"/>
  </g>
  <g id="LWPOLYLINE-112" data-name="LWPOLYLINE">
    <polyline class="cls-1" points="248.85 40.48 251.96 40.49 254.97 40.51"/>
  </g>
  <g id="LWPOLYLINE-113" data-name="LWPOLYLINE">
    <polyline class="cls-1" points="254.97 40.51 255.23 41.98 255.59 44.03"/>
  </g>
  <g id="LWPOLYLINE-114" data-name="LWPOLYLINE">
    <polyline class="cls-1" points="253.27 43.23 252.47 43.62 251.09 43.95 249.59 43.96 248.15 43.7 246.89 43.19 245.9 42.47 245.31 41.61 245.21 40.67 245.67 39.78 246.63 39.07 247.95 38.64 249.44 38.52 250.92 38.71 252.25 39.16 252.9 39.51"/>
  </g>
  <g id="LWPOLYLINE-115" data-name="LWPOLYLINE">
    <polyline class="cls-1" points="253.27 43.23 253.08 42.19 253.01 41.8"/>
  </g>
  <g id="LWPOLYLINE-116" data-name="LWPOLYLINE">
    <polyline class="cls-1" points="212.81 32.25 210.9 33.6 208.29 34.52 205.37 34.87 202.45 34.65 199.77 33.91 197.56 32.66 196.09 31.01 195.62 29.1 196.3 27.19 198.01 25.57 200.49 24.45 203.36 23.91 206.33 23.97 209.13 24.59 211.67 25.83"/>
  </g>
  <g id="LWPOLYLINE-117" data-name="LWPOLYLINE">
    <polyline class="cls-1" points="208.45 30.67 207.58 31.28 206.4 31.7 205.07 31.86 203.75 31.76 202.53 31.41 201.53 30.85 200.87 30.09 200.66 29.23 200.97 28.37 201.75 27.64 202.87 27.14 204.17 26.9 205.51 26.92 206.78 27.2 207.93 27.76"/>
  </g>
  <g id="LWPOLYLINE-118" data-name="LWPOLYLINE">
    <polyline class="cls-1" points="214.83 26.41 214.63 25.25 214.35 23.71"/>
  </g>
  <g id="LWPOLYLINE-119" data-name="LWPOLYLINE">
    <polyline class="cls-1" points="214.35 23.71 217.89 23.59 228.39 23.31"/>
  </g>
  <g id="LWPOLYLINE-120" data-name="LWPOLYLINE">
    <polyline class="cls-1" points="228.39 23.31 228.67 24.84 228.87 26.01"/>
  </g>
  <g id="LWPOLYLINE-121" data-name="LWPOLYLINE">
    <polyline class="cls-1" points="228.87 26.01 226.57 26.06 224.28 26.11"/>
  </g>
  <g id="LWPOLYLINE-122" data-name="LWPOLYLINE">
    <polyline class="cls-1" points="224.28 26.11 225.41 32.51 225.68 34"/>
  </g>
  <g id="LWPOLYLINE-123" data-name="LWPOLYLINE">
    <polyline class="cls-1" points="221.14 34.13 220.87 32.64 219.73 26.24"/>
  </g>
  <g id="LWPOLYLINE-124" data-name="LWPOLYLINE">
    <polyline class="cls-1" points="252.22 23.18 250.26 23.17 248.5 23.17"/>
  </g>
  <g id="LWPOLYLINE-125" data-name="LWPOLYLINE">
    <polyline class="cls-1" points="254.1 33.81 253.96 33.01 252.22 23.18"/>
  </g>
  <g id="LWPOLYLINE-126" data-name="LWPOLYLINE">
    <polyline class="cls-1" points="249.44 33.79 251.66 33.79 254.1 33.81"/>
  </g>
  <g id="LWPOLYLINE-127" data-name="LWPOLYLINE">
    <polyline class="cls-1" points="248.39 27.87 249.26 32.82 249.44 33.79"/>
  </g>
  <g id="LWPOLYLINE-128" data-name="LWPOLYLINE">
    <polyline class="cls-1" points="239.01 33.76 238.82 32.74 237.96 27.86"/>
  </g>
  <g id="LWPOLYLINE-129" data-name="LWPOLYLINE">
    <polyline class="cls-1" points="232.45 23.23 234.17 32.93 234.33 33.82"/>
  </g>
  <g id="LWPOLYLINE-130" data-name="LWPOLYLINE">
    <polyline class="cls-1" points="393.95 251.24 393.75 252.38 392.87 255 391.43 257.45 389.48 259.64 387.05 261.53 384.24 263.05 381.12 264.15 377.77 264.82 374.3 265.02 370.8 264.76 367.38 264.03 364.13 262.87 361.15 261.3 358.52 259.37 356.32 257.14 354.61 254.67 353.45 252.02 352.85 249.29"/>
  </g>
  <g id="LWPOLYLINE-131" data-name="LWPOLYLINE">
    <polyline class="cls-1" points="1 217.47 1.06 221.92 1.61 231.1 2.76 240.28 4.48 249.42 6.78 258.51 9.65 267.53 13.09 276.44 17.08 285.22 21.62 293.87 26.69 302.34 32.28 310.63 38.39 318.7 44.98 326.55 52.05 334.15 59.58 341.48 67.54 348.52 75.92 355.25 84.71 361.67 93.86 367.74 103.37 373.46 113.2 378.81 123.34 383.79 133.76 388.36 144.42 392.53 155.32 396.29 166.4 399.62 177.66 402.51 189.06 404.96 200.56 406.97 212.15 408.52 223.8 409.61 235.46 410.25 247.12 410.42 258.75 410.13 270.31 409.39 281.78 408.18 293.12 406.51 304.32 404.4 315.33 401.84 326.13 398.84 336.71 395.4 347.01 391.54 357.04 387.27 366.74 382.6 376.12 377.53 385.13 372.09 393.75 366.28 401.97 360.12 409.77 353.62 417.11 346.81 424 339.7 430.4 332.3 436.3 324.64 441.69 316.74 446.55 308.61 450.88 300.27 454.65 291.75 457.87 283.07 460.51 274.25 462.13 267.5"/>
  </g>
  <g id="LWPOLYLINE-132" data-name="LWPOLYLINE">
    <polyline class="cls-1" points="78.08 339.46 78.08 339.46 77.94 339.87 77.65 340.22 77.22 340.47 76.71 340.6 76.16 340.6 75.64 340.46 75.18 340.2"/>
  </g>
  <g id="LWPOLYLINE-133" data-name="LWPOLYLINE">
    <polyline class="cls-1" points="421.32 314.27 420.99 314.24 420.67 314.24 420.36 314.28 420.09 314.37 419.86 314.49 419.69 314.65 419.57 314.83 419.52 314.96"/>
  </g>
  <g id="LWPOLYLINE-134" data-name="LWPOLYLINE">
    <polyline class="cls-1" points="21.18 277.03 21.04 276.6 21.04 276.37"/>
  </g>
  <g id="LWPOLYLINE-135" data-name="LWPOLYLINE">
    <polyline class="cls-1" points="35.71 279.07 35.93 278.9 36.13 278.78 36.31 278.71 36.47 278.69 36.59 278.73 36.6 278.74"/>
  </g>
  <g id="LWPOLYLINE-136" data-name="LWPOLYLINE">
    <polyline class="cls-1" points="421.51 313.45 421.18 313.41 420.86 313.41 420.55 313.46 420.28 313.54 420.05 313.66 419.88 313.82 419.76 314 419.72 314.12"/>
  </g>
  <g id="LWPOLYLINE-137" data-name="LWPOLYLINE">
    <polyline class="cls-1" points="449.49 268.24 449.23 268.08 448.97 267.96 448.74 267.9 448.52 267.89 448.34 267.94 448.22 268.02"/>
  </g>
  <g id="LWPOLYLINE-138" data-name="LWPOLYLINE">
    <polyline class="cls-1" points="385.98 270.75 386.29 270.73 386.64 270.83 387 271.06 387.36 271.41 387.72 271.86 388.06 272.41 388.38 273.03"/>
  </g>
  <g id="LWPOLYLINE-139" data-name="LWPOLYLINE">
    <polyline class="cls-1" points="77.59 350.95 77.58 350.92 77.57 350.71"/>
  </g>
  <g id="LWPOLYLINE-140" data-name="LWPOLYLINE">
    <polyline class="cls-1" points="248.56 2.25 248.56 2.25 249 2.3 249.46 2.56 249.93 3.04 250.39 3.72"/>
  </g>
  <g id="LINE">
    <line class="cls-1" x1="352.85" y1="246.51" x2="352.06" y2="253.71"/>
  </g>
  <g id="LINE-2" data-name="LINE">
    <line class="cls-1" x1="393.18" y1="258.25" x2="393.97" y2="251.05"/>
  </g>
  <g id="LINE-3" data-name="LINE">
    <line class="cls-1" x1="2.04" y1="200.55" x2="1.86" y2="202.15"/>
  </g>
  <g id="LINE-4" data-name="LINE">
    <line class="cls-1" x1="464.45" y1="253.21" x2="464.63" y2="251.61"/>
  </g>
  <g id="LINE-5" data-name="LINE">
    <line class="cls-1" x1="77.02" y1="349.06" x2="78.08" y2="339.46"/>
  </g>
  <g id="LINE-6" data-name="LINE">
    <line class="cls-1" x1="74.31" y1="323.26" x2="73.94" y2="322.43"/>
  </g>
  <g id="LINE-7" data-name="LINE">
    <line class="cls-1" x1="36.6" y1="278.74" x2="35.77" y2="278.15"/>
  </g>
  <g id="LINE-8" data-name="LINE">
    <line class="cls-1" x1="419.72" y1="314.12" x2="419.52" y2="314.96"/>
  </g>
  <g id="LINE-9" data-name="LINE">
    <line class="cls-1" x1="21.04" y1="276.37" x2="19.86" y2="287.13"/>
  </g>
  <g id="LINE-10" data-name="LINE">
    <line class="cls-1" x1="448.22" y1="268.01" x2="447.52" y2="268.64"/>
  </g>
  <g id="LINE-11" data-name="LINE">
    <line class="cls-1" x1="459.26" y1="277.39" x2="460.53" y2="265.96"/>
  </g>
  <g id="LINE-12" data-name="LINE">
    <line class="cls-1" x1="135.07" y1="294.92" x2="135.01" y2="295.47"/>
  </g>
  <g id="LINE-13" data-name="LINE">
    <line class="cls-1" x1="87.09" y1="260.99" x2="87.03" y2="261.54"/>
  </g>
  <g id="LINE-14" data-name="LINE">
    <line class="cls-1" x1="98.52" y1="256.69" x2="98.58" y2="256.13"/>
  </g>
  <g id="LINE-15" data-name="LINE">
    <line class="cls-1" x1="93.07" y1="256.49" x2="93.01" y2="257.05"/>
  </g>
  <g id="LINE-16" data-name="LINE">
    <line class="cls-1" x1="67.48" y1="214.9" x2="67.54" y2="214.33"/>
  </g>
  <g id="LINE-17" data-name="LINE">
    <line class="cls-1" x1="416.1" y1="342.64" x2="420.24" y2="305.17"/>
  </g>
  <g id="LINE-18" data-name="LINE">
    <line class="cls-1" x1="54.11" y1="215.21" x2="54.05" y2="215.77"/>
  </g>
  <g id="LINE-19" data-name="LINE">
    <line class="cls-1" x1="61.4" y1="200.09" x2="61.47" y2="199.54"/>
  </g>
  <g id="LINE-20" data-name="LINE">
    <line class="cls-1" x1="47.96" y1="200.04" x2="47.9" y2="200.6"/>
  </g>
  <g id="LINE-21" data-name="LINE">
    <line class="cls-1" x1="77" y1="348.94" x2="77.59" y2="350.95"/>
  </g>
  <g id="LINE-22" data-name="LINE">
    <line class="cls-1" x1="6.41" y1="160.94" x2="2.27" y2="198.41"/>
  </g>
  <g id="LINE-23" data-name="LINE">
    <line class="cls-1" x1="464.86" y1="249.47" x2="469" y2="212"/>
  </g>
  <g id="LINE-24" data-name="LINE">
    <line class="cls-1" x1="242.7" y1="40.55" x2="242.64" y2="41.1"/>
  </g>
  <g id="LINE-25" data-name="LINE">
    <line class="cls-1" x1="195.64" y1="28.9" x2="195.58" y2="29.46"/>
  </g>
  <g id="LINE-26" data-name="LINE">
    <line class="cls-1" x1="21.18" y1="277.03" x2="19.88" y2="288.76"/>
  </g>
  <g id="LINE-27" data-name="LINE">
    <line class="cls-1" x1="73.89" y1="351.94" x2="75.18" y2="340.2"/>
  </g>
  <g id="LINE-28" data-name="LINE">
    <line class="cls-1" x1="420.42" y1="331.66" x2="419.12" y2="343.39"/>
  </g>
  <g id="LINE-29" data-name="LINE">
    <line class="cls-1" x1="459.19" y1="277.89" x2="460.49" y2="266.16"/>
  </g>
  <g id="LINE-30" data-name="LINE">
    <line class="cls-1" x1="78.04" y1="339.03" x2="78.08" y2="339.46"/>
  </g>
  <g id="LINE-31" data-name="LINE">
    <line class="cls-1" x1="72.85" y1="322.9" x2="72.49" y2="322.09"/>
  </g>
  <g id="LINE-32" data-name="LINE">
    <line class="cls-1" x1="35.71" y1="279.07" x2="34.89" y2="278.49"/>
  </g>
  <g id="LINE-33" data-name="LINE">
    <line class="cls-1" x1="419.52" y1="314.96" x2="419.51" y2="315.03"/>
  </g>
  <g id="LINE-34" data-name="LINE">
    <line class="cls-1" x1="449.49" y1="268.24" x2="448.8" y2="268.85"/>
  </g>
  <g id="LINE-35" data-name="LINE">
    <line class="cls-1" x1="460.49" y1="266.16" x2="460.53" y2="265.96"/>
  </g>
  <g id="LINE-36" data-name="LINE">
    <line class="cls-1" x1="58.02" y1="183.15" x2="52.16" y2="190.55"/>
  </g>
  <g id="LINE-37" data-name="LINE">
    <line class="cls-1" x1="57.62" y1="181.58" x2="58.02" y2="183.15"/>
  </g>
  <g id="LINE-38" data-name="LINE">
    <line class="cls-1" x1="50.69" y1="190.3" x2="57.62" y2="181.58"/>
  </g>
  <g id="LINE-39" data-name="LINE">
    <line class="cls-1" x1="42.36" y1="186.63" x2="50.69" y2="190.3"/>
  </g>
  <g id="LINE-40" data-name="LINE">
    <line class="cls-1" x1="42.77" y1="188.24" x2="42.36" y2="186.63"/>
  </g>
  <g id="LINE-41" data-name="LINE">
    <line class="cls-1" x1="49.72" y1="191.28" x2="42.77" y2="188.24"/>
  </g>
  <g id="LINE-42" data-name="LINE">
    <line class="cls-1" x1="43.95" y1="193.01" x2="49.72" y2="191.28"/>
  </g>
  <g id="LINE-43" data-name="LINE">
    <line class="cls-1" x1="44.26" y1="194.23" x2="43.95" y2="193.01"/>
  </g>
  <g id="LINE-44" data-name="LINE">
    <line class="cls-1" x1="59.63" y1="189.62" x2="44.26" y2="194.23"/>
  </g>
  <g id="LINE-45" data-name="LINE">
    <line class="cls-1" x1="59.33" y1="188.4" x2="59.63" y2="189.62"/>
  </g>
  <g id="LINE-46" data-name="LINE">
    <line class="cls-1" x1="52.16" y1="190.55" x2="59.33" y2="188.4"/>
  </g>
  <g id="LINE-47" data-name="LINE">
    <line class="cls-1" x1="91.82" y1="248.34" x2="87.61" y2="243.52"/>
  </g>
  <g id="LINE-48" data-name="LINE">
    <line class="cls-1" x1="86.77" y1="252.04" x2="91.82" y2="248.34"/>
  </g>
  <g id="LINE-49" data-name="LINE">
    <line class="cls-1" x1="82.57" y1="247.23" x2="86.77" y2="252.04"/>
  </g>
  <g id="LINE-50" data-name="LINE">
    <line class="cls-1" x1="81.31" y1="248.15" x2="82.57" y2="247.23"/>
  </g>
  <g id="LINE-51" data-name="LINE">
    <line class="cls-1" x1="85.51" y1="252.97" x2="81.31" y2="248.15"/>
  </g>
  <g id="LINE-52" data-name="LINE">
    <line class="cls-1" x1="81.49" y1="255.92" x2="85.51" y2="252.97"/>
  </g>
  <g id="LINE-53" data-name="LINE">
    <line class="cls-1" x1="77.25" y1="251.06" x2="81.49" y2="255.92"/>
  </g>
  <g id="LINE-54" data-name="LINE">
    <line class="cls-1" x1="75.98" y1="251.99" x2="77.25" y2="251.06"/>
  </g>
  <g id="LINE-55" data-name="LINE">
    <line class="cls-1" x1="81.12" y1="257.88" x2="75.98" y2="251.99"/>
  </g>
  <g id="LINE-56" data-name="LINE">
    <line class="cls-1" x1="93.98" y1="248.44" x2="81.12" y2="257.88"/>
  </g>
  <g id="LINE-57" data-name="LINE">
    <line class="cls-1" x1="88.88" y1="242.59" x2="93.98" y2="248.44"/>
  </g>
  <g id="LINE-58" data-name="LINE">
    <line class="cls-1" x1="87.61" y1="243.52" x2="88.88" y2="242.59"/>
  </g>
  <g id="LINE-59" data-name="LINE">
    <line class="cls-1" x1="106.07" y1="266.72" x2="111.46" y2="264.55"/>
  </g>
  <g id="LINE-60" data-name="LINE">
    <line class="cls-1" x1="101.42" y1="262.83" x2="106.07" y2="266.72"/>
  </g>
  <g id="LINE-61" data-name="LINE">
    <line class="cls-1" x1="103.43" y1="257.82" x2="101.42" y2="262.83"/>
  </g>
  <g id="LINE-62" data-name="LINE">
    <line class="cls-1" x1="102.27" y1="256.86" x2="103.43" y2="257.82"/>
  </g>
  <g id="LINE-63" data-name="LINE">
    <line class="cls-1" x1="96.05" y1="271.98" x2="102.27" y2="256.86"/>
  </g>
  <g id="LINE-64" data-name="LINE">
    <line class="cls-1" x1="96.31" y1="272.2" x2="96.05" y2="271.98"/>
  </g>
  <g id="LINE-65" data-name="LINE">
    <line class="cls-1" x1="112.66" y1="265.56" x2="96.31" y2="272.2"/>
  </g>
  <g id="LINE-66" data-name="LINE">
    <line class="cls-1" x1="111.46" y1="264.55" x2="112.66" y2="265.56"/>
  </g>
  <g id="LINE-67" data-name="LINE">
    <line class="cls-1" x1="125.79" y1="276.75" x2="121.18" y2="273.66"/>
  </g>
  <g id="LINE-68" data-name="LINE">
    <line class="cls-1" x1="116.84" y1="287.52" x2="125.79" y2="276.75"/>
  </g>
  <g id="LINE-69" data-name="LINE">
    <line class="cls-1" x1="118.04" y1="288.33" x2="116.84" y2="287.52"/>
  </g>
  <g id="LINE-70" data-name="LINE">
    <line class="cls-1" x1="127.95" y1="276.41" x2="118.04" y2="288.33"/>
  </g>
  <g id="LINE-71" data-name="LINE">
    <line class="cls-1" x1="122.14" y1="272.51" x2="127.95" y2="276.41"/>
  </g>
  <g id="LINE-72" data-name="LINE">
    <line class="cls-1" x1="121.18" y1="273.66" x2="122.14" y2="272.51"/>
  </g>
  <g id="LINE-73" data-name="LINE">
    <line class="cls-1" x1="142.47" y1="292.85" x2="143.22" y2="293.24"/>
  </g>
  <g id="LINE-74" data-name="LINE">
    <line class="cls-1" x1="141.57" y1="284.41" x2="142.47" y2="292.85"/>
  </g>
  <g id="LINE-75" data-name="LINE">
    <line class="cls-1" x1="139.94" y1="283.58" x2="141.57" y2="284.41"/>
  </g>
  <g id="LINE-76" data-name="LINE">
    <line class="cls-1" x1="140.84" y1="292.01" x2="139.94" y2="283.58"/>
  </g>
  <g id="LINE-77" data-name="LINE">
    <line class="cls-1" x1="140.13" y1="300.84" x2="137.51" y2="299.48"/>
  </g>
  <g id="LINE-78" data-name="LINE">
    <line class="cls-1" x1="148.37" y1="287.91" x2="140.13" y2="300.84"/>
  </g>
  <g id="LINE-79" data-name="LINE">
    <line class="cls-1" x1="147.05" y1="287.22" x2="148.37" y2="287.91"/>
  </g>
  <g id="LINE-80" data-name="LINE">
    <line class="cls-1" x1="143.22" y1="293.24" x2="147.05" y2="287.22"/>
  </g>
  <g id="LINE-81" data-name="LINE">
    <line class="cls-1" x1="75.02" y1="215.35" x2="78.45" y2="189.76"/>
  </g>
  <g id="LINE-82" data-name="LINE">
    <line class="cls-1" x1="81.05" y1="212.32" x2="75.02" y2="215.35"/>
  </g>
  <g id="LINE-83" data-name="LINE">
    <line class="cls-1" x1="114.37" y1="261.37" x2="118.99" y2="256.7"/>
  </g>
  <g id="LINE-84" data-name="LINE">
    <line class="cls-1" x1="143.52" y1="265.87" x2="114.37" y2="261.37"/>
  </g>
  <g id="LINE-85" data-name="LINE">
    <line class="cls-1" x1="132.87" y1="242.69" x2="143.52" y2="265.87"/>
  </g>
  <g id="LINE-86" data-name="LINE">
    <line class="cls-1" x1="128.24" y1="247.36" x2="132.87" y2="242.69"/>
  </g>
  <g id="LINE-87" data-name="LINE">
    <line class="cls-1" x1="99.14" y1="203.24" x2="93.11" y2="206.27"/>
  </g>
  <g id="LINE-88" data-name="LINE">
    <line class="cls-1" x1="78.45" y1="189.76" x2="99.14" y2="203.24"/>
  </g>
  <g id="LINE-89" data-name="LINE">
    <line class="cls-1" x1="135.16" y1="282.52" x2="129.29" y2="279"/>
  </g>
  <g id="LINE-90" data-name="LINE">
    <line class="cls-1" x1="131.56" y1="287.37" x2="135.16" y2="282.52"/>
  </g>
  <g id="LINE-91" data-name="LINE">
    <line class="cls-1" x1="125.69" y1="283.85" x2="131.56" y2="287.37"/>
  </g>
  <g id="LINE-92" data-name="LINE">
    <line class="cls-1" x1="124.79" y1="285.06" x2="125.69" y2="283.85"/>
  </g>
  <g id="LINE-93" data-name="LINE">
    <line class="cls-1" x1="130.66" y1="288.58" x2="124.79" y2="285.06"/>
  </g>
  <g id="LINE-94" data-name="LINE">
    <line class="cls-1" x1="127.79" y1="292.44" x2="130.66" y2="288.58"/>
  </g>
  <g id="LINE-95" data-name="LINE">
    <line class="cls-1" x1="121.88" y1="288.9" x2="127.79" y2="292.44"/>
  </g>
  <g id="LINE-96" data-name="LINE">
    <line class="cls-1" x1="120.97" y1="290.12" x2="121.88" y2="288.9"/>
  </g>
  <g id="LINE-97" data-name="LINE">
    <line class="cls-1" x1="128.13" y1="294.42" x2="120.97" y2="290.12"/>
  </g>
  <g id="LINE-98" data-name="LINE">
    <line class="cls-1" x1="137.32" y1="282.06" x2="128.13" y2="294.42"/>
  </g>
  <g id="LINE-99" data-name="LINE">
    <line class="cls-1" x1="130.2" y1="277.78" x2="137.32" y2="282.06"/>
  </g>
  <g id="LINE-100" data-name="LINE">
    <line class="cls-1" x1="129.29" y1="279" x2="130.2" y2="277.78"/>
  </g>
  <g id="LINE-101" data-name="LINE">
    <line class="cls-1" x1="118.02" y1="271.5" x2="112.57" y2="267.56"/>
  </g>
  <g id="LINE-102" data-name="LINE">
    <line class="cls-1" x1="113.93" y1="276.05" x2="118.02" y2="271.5"/>
  </g>
  <g id="LINE-103" data-name="LINE">
    <line class="cls-1" x1="108.48" y1="272.11" x2="113.93" y2="276.05"/>
  </g>
  <g id="LINE-104" data-name="LINE">
    <line class="cls-1" x1="107.45" y1="273.25" x2="108.48" y2="272.11"/>
  </g>
  <g id="LINE-105" data-name="LINE">
    <line class="cls-1" x1="112.9" y1="277.19" x2="107.45" y2="273.25"/>
  </g>
  <g id="LINE-106" data-name="LINE">
    <line class="cls-1" x1="109.64" y1="280.82" x2="112.9" y2="277.19"/>
  </g>
  <g id="LINE-107" data-name="LINE">
    <line class="cls-1" x1="104.14" y1="276.84" x2="109.64" y2="280.82"/>
  </g>
  <g id="LINE-108" data-name="LINE">
    <line class="cls-1" x1="103.11" y1="277.99" x2="104.14" y2="276.84"/>
  </g>
  <g id="LINE-109" data-name="LINE">
    <line class="cls-1" x1="109.77" y1="282.81" x2="103.11" y2="277.99"/>
  </g>
  <g id="LINE-110" data-name="LINE">
    <line class="cls-1" x1="120.21" y1="271.2" x2="109.77" y2="282.81"/>
  </g>
  <g id="LINE-111" data-name="LINE">
    <line class="cls-1" x1="113.6" y1="266.41" x2="120.21" y2="271.2"/>
  </g>
  <g id="LINE-112" data-name="LINE">
    <line class="cls-1" x1="112.57" y1="267.56" x2="113.6" y2="266.41"/>
  </g>
  <g id="LINE-113" data-name="LINE">
    <line class="cls-1" x1="85.75" y1="259.71" x2="87.31" y2="259.85"/>
  </g>
  <g id="LINE-114" data-name="LINE">
    <line class="cls-1" x1="99.55" y1="258.19" x2="98.08" y2="257.9"/>
  </g>
  <g id="LINE-115" data-name="LINE">
    <line class="cls-1" x1="73.03" y1="223.89" x2="70.39" y2="219.66"/>
  </g>
  <g id="LINE-116" data-name="LINE">
    <line class="cls-1" x1="60.34" y1="230.87" x2="73.03" y2="223.89"/>
  </g>
  <g id="LINE-117" data-name="LINE">
    <line class="cls-1" x1="61.03" y1="231.98" x2="60.34" y2="230.87"/>
  </g>
  <g id="LINE-118" data-name="LINE">
    <line class="cls-1" x1="75.08" y1="224.26" x2="61.03" y2="231.98"/>
  </g>
  <g id="LINE-119" data-name="LINE">
    <line class="cls-1" x1="71.75" y1="218.91" x2="75.08" y2="224.26"/>
  </g>
  <g id="LINE-120" data-name="LINE">
    <line class="cls-1" x1="70.39" y1="219.66" x2="71.75" y2="218.91"/>
  </g>
  <g id="LINE-121" data-name="LINE">
    <line class="cls-1" x1="57.31" y1="194.11" x2="57.9" y2="192.85"/>
  </g>
  <g id="LINE-122" data-name="LINE">
    <line class="cls-1" x1="48.15" y1="196.34" x2="49.39" y2="196.94"/>
  </g>
  <g id="LINE-123" data-name="LINE">
    <line class="cls-1" x1="414.23" y1="346.23" x2="418.36" y2="308.76"/>
  </g>
  <g id="LINE-124" data-name="LINE">
    <line class="cls-1" x1="84.43" y1="317.02" x2="80.3" y2="354.49"/>
  </g>
  <g id="LINE-125" data-name="LINE">
    <line class="cls-1" x1="141.5" y1="284.97" x2="139.87" y2="284.14"/>
  </g>
  <g id="LINE-126" data-name="LINE">
    <line class="cls-1" x1="142.41" y1="293.41" x2="141.5" y2="284.97"/>
  </g>
  <g id="LINE-127" data-name="LINE">
    <line class="cls-1" x1="143.16" y1="293.8" x2="142.41" y2="293.41"/>
  </g>
  <g id="LINE-128" data-name="LINE">
    <line class="cls-1" x1="146.99" y1="287.78" x2="143.16" y2="293.8"/>
  </g>
  <g id="LINE-129" data-name="LINE">
    <line class="cls-1" x1="148.3" y1="288.46" x2="146.99" y2="287.78"/>
  </g>
  <g id="LINE-130" data-name="LINE">
    <line class="cls-1" x1="139.56" y1="299.45" x2="137.24" y2="298.25"/>
  </g>
  <g id="LINE-131" data-name="LINE">
    <line class="cls-1" x1="142.36" y1="295.05" x2="139.56" y2="299.45"/>
  </g>
  <g id="LINE-132" data-name="LINE">
    <line class="cls-1" x1="77.57" y1="350.71" x2="81.7" y2="313.24"/>
  </g>
  <g id="LINE-133" data-name="LINE">
    <line class="cls-1" x1="142.42" y1="294.49" x2="140.17" y2="293.31"/>
  </g>
  <g id="LINE-134" data-name="LINE">
    <line class="cls-1" x1="139.62" y1="298.89" x2="142.42" y2="294.49"/>
  </g>
  <g id="LINE-135" data-name="LINE">
    <line class="cls-1" x1="137.3" y1="297.69" x2="139.62" y2="298.89"/>
  </g>
  <g id="LINE-136" data-name="LINE">
    <line class="cls-1" x1="142.36" y1="295.05" x2="142.42" y2="294.49"/>
  </g>
  <g id="LINE-137" data-name="LINE">
    <line class="cls-1" x1="139.56" y1="299.45" x2="139.62" y2="298.89"/>
  </g>
  <g id="LINE-138" data-name="LINE">
    <line class="cls-1" x1="121.81" y1="289.45" x2="121.21" y2="290.26"/>
  </g>
  <g id="LINE-139" data-name="LINE">
    <line class="cls-1" x1="127.73" y1="293" x2="121.81" y2="289.45"/>
  </g>
  <g id="LINE-140" data-name="LINE">
    <line class="cls-1" x1="130.6" y1="289.14" x2="127.73" y2="293"/>
  </g>
  <g id="LINE-141" data-name="LINE">
    <line class="cls-1" x1="125.63" y1="284.41" x2="125.04" y2="285.21"/>
  </g>
  <g id="LINE-142" data-name="LINE">
    <line class="cls-1" x1="131.5" y1="287.93" x2="125.63" y2="284.41"/>
  </g>
  <g id="LINE-143" data-name="LINE">
    <line class="cls-1" x1="135.1" y1="283.08" x2="131.5" y2="287.93"/>
  </g>
  <g id="LINE-144" data-name="LINE">
    <line class="cls-1" x1="130.14" y1="278.34" x2="129.54" y2="279.15"/>
  </g>
  <g id="LINE-145" data-name="LINE">
    <line class="cls-1" x1="137.01" y1="282.47" x2="130.14" y2="278.34"/>
  </g>
  <g id="LINE-146" data-name="LINE">
    <line class="cls-1" x1="137.24" y1="298.25" x2="137.3" y2="297.69"/>
  </g>
  <g id="LINE-147" data-name="LINE">
    <line class="cls-1" x1="134.02" y1="293.73" x2="134.08" y2="293.17"/>
  </g>
  <g id="LINE-148" data-name="LINE">
    <line class="cls-1" x1="146.99" y1="287.78" x2="147.05" y2="287.22"/>
  </g>
  <g id="LINE-149" data-name="LINE">
    <line class="cls-1" x1="143.16" y1="293.8" x2="143.22" y2="293.24"/>
  </g>
  <g id="LINE-150" data-name="LINE">
    <line class="cls-1" x1="142.41" y1="293.41" x2="142.47" y2="292.85"/>
  </g>
  <g id="LINE-151" data-name="LINE">
    <line class="cls-1" x1="141.5" y1="284.97" x2="141.57" y2="284.41"/>
  </g>
  <g id="LINE-152" data-name="LINE">
    <line class="cls-1" x1="140.78" y1="292.57" x2="140.84" y2="292.01"/>
  </g>
  <g id="LINE-153" data-name="LINE">
    <line class="cls-1" x1="130.6" y1="289.14" x2="130.66" y2="288.58"/>
  </g>
  <g id="LINE-154" data-name="LINE">
    <line class="cls-1" x1="127.73" y1="293" x2="127.79" y2="292.44"/>
  </g>
  <g id="LINE-155" data-name="LINE">
    <line class="cls-1" x1="121.81" y1="289.45" x2="121.88" y2="288.9"/>
  </g>
  <g id="LINE-156" data-name="LINE">
    <line class="cls-1" x1="125.73" y1="277.3" x2="117.1" y2="287.69"/>
  </g>
  <g id="LINE-157" data-name="LINE">
    <line class="cls-1" x1="122.08" y1="273.06" x2="121.44" y2="273.83"/>
  </g>
  <g id="LINE-158" data-name="LINE">
    <line class="cls-1" x1="127.63" y1="276.79" x2="122.08" y2="273.06"/>
  </g>
  <g id="LINE-159" data-name="LINE">
    <line class="cls-1" x1="125.73" y1="277.3" x2="125.79" y2="276.75"/>
  </g>
  <g id="LINE-160" data-name="LINE">
    <line class="cls-1" x1="135.1" y1="283.08" x2="135.16" y2="282.52"/>
  </g>
  <g id="LINE-161" data-name="LINE">
    <line class="cls-1" x1="131.5" y1="287.93" x2="131.56" y2="287.37"/>
  </g>
  <g id="LINE-162" data-name="LINE">
    <line class="cls-1" x1="132.81" y1="243.25" x2="128.18" y2="247.92"/>
  </g>
  <g id="LINE-163" data-name="LINE">
    <line class="cls-1" x1="143.18" y1="265.81" x2="132.81" y2="243.25"/>
  </g>
  <g id="LINE-164" data-name="LINE">
    <line class="cls-1" x1="118.93" y1="257.26" x2="114.79" y2="261.44"/>
  </g>
  <g id="LINE-165" data-name="LINE">
    <line class="cls-1" x1="78.39" y1="190.31" x2="75.03" y2="215.34"/>
  </g>
  <g id="LINE-166" data-name="LINE">
    <line class="cls-1" x1="98.62" y1="203.5" x2="78.39" y2="190.31"/>
  </g>
  <g id="LINE-167" data-name="LINE">
    <line class="cls-1" x1="125.63" y1="284.41" x2="125.69" y2="283.85"/>
  </g>
  <g id="LINE-168" data-name="LINE">
    <line class="cls-1" x1="130.14" y1="278.34" x2="130.2" y2="277.78"/>
  </g>
  <g id="LINE-169" data-name="LINE">
    <line class="cls-1" x1="104.08" y1="277.4" x2="103.38" y2="278.18"/>
  </g>
  <g id="LINE-170" data-name="LINE">
    <line class="cls-1" x1="109.58" y1="281.38" x2="104.08" y2="277.4"/>
  </g>
  <g id="LINE-171" data-name="LINE">
    <line class="cls-1" x1="112.84" y1="277.75" x2="109.58" y2="281.38"/>
  </g>
  <g id="LINE-172" data-name="LINE">
    <line class="cls-1" x1="108.42" y1="272.67" x2="107.72" y2="273.44"/>
  </g>
  <g id="LINE-173" data-name="LINE">
    <line class="cls-1" x1="113.86" y1="276.61" x2="108.42" y2="272.67"/>
  </g>
  <g id="LINE-174" data-name="LINE">
    <line class="cls-1" x1="117.95" y1="272.06" x2="113.86" y2="276.61"/>
  </g>
  <g id="LINE-175" data-name="LINE">
    <line class="cls-1" x1="113.54" y1="266.97" x2="112.84" y2="267.75"/>
  </g>
  <g id="LINE-176" data-name="LINE">
    <line class="cls-1" x1="119.88" y1="271.56" x2="113.54" y2="266.97"/>
  </g>
  <g id="LINE-177" data-name="LINE">
    <line class="cls-1" x1="132.81" y1="243.25" x2="132.87" y2="242.69"/>
  </g>
  <g id="LINE-178" data-name="LINE">
    <line class="cls-1" x1="112.84" y1="277.75" x2="112.9" y2="277.19"/>
  </g>
  <g id="LINE-179" data-name="LINE">
    <line class="cls-1" x1="109.58" y1="281.38" x2="109.64" y2="280.82"/>
  </g>
  <g id="LINE-180" data-name="LINE">
    <line class="cls-1" x1="122.08" y1="273.06" x2="122.14" y2="272.51"/>
  </g>
  <g id="LINE-181" data-name="LINE">
    <line class="cls-1" x1="104.08" y1="277.4" x2="104.14" y2="276.84"/>
  </g>
  <g id="LINE-182" data-name="LINE">
    <line class="cls-1" x1="117.95" y1="272.06" x2="118.02" y2="271.5"/>
  </g>
  <g id="LINE-183" data-name="LINE">
    <line class="cls-1" x1="113.86" y1="276.61" x2="113.93" y2="276.05"/>
  </g>
  <g id="LINE-184" data-name="LINE">
    <line class="cls-1" x1="108.42" y1="272.67" x2="108.48" y2="272.11"/>
  </g>
  <g id="LINE-185" data-name="LINE">
    <line class="cls-1" x1="113.54" y1="266.97" x2="113.6" y2="266.41"/>
  </g>
  <g id="LINE-186" data-name="LINE">
    <line class="cls-1" x1="102.21" y1="257.42" x2="102.27" y2="256.86"/>
  </g>
  <g id="LINE-187" data-name="LINE">
    <line class="cls-1" x1="102.21" y1="257.42" x2="96.17" y2="272.08"/>
  </g>
  <g id="LINE-188" data-name="LINE">
    <line class="cls-1" x1="103.36" y1="258.38" x2="102.21" y2="257.42"/>
  </g>
  <g id="LINE-189" data-name="LINE">
    <line class="cls-1" x1="106.01" y1="267.28" x2="101.36" y2="263.39"/>
  </g>
  <g id="LINE-190" data-name="LINE">
    <line class="cls-1" x1="111.4" y1="265.1" x2="106.01" y2="267.28"/>
  </g>
  <g id="LINE-191" data-name="LINE">
    <line class="cls-1" x1="112.17" y1="265.76" x2="111.4" y2="265.1"/>
  </g>
  <g id="LINE-192" data-name="LINE">
    <line class="cls-1" x1="104.44" y1="267.92" x2="98.51" y2="270.33"/>
  </g>
  <g id="LINE-193" data-name="LINE">
    <line class="cls-1" x1="341.49" y1="214.45" x2="348.66" y2="233.87"/>
  </g>
  <g id="LINE-194" data-name="LINE">
    <line class="cls-1" x1="104.5" y1="267.37" x2="100.81" y2="264.28"/>
  </g>
  <g id="LINE-195" data-name="LINE">
    <line class="cls-1" x1="98.57" y1="269.77" x2="104.5" y2="267.37"/>
  </g>
  <g id="LINE-196" data-name="LINE">
    <line class="cls-1" x1="100.81" y1="264.28" x2="98.57" y2="269.77"/>
  </g>
  <g id="LINE-197" data-name="LINE">
    <line class="cls-1" x1="104.44" y1="267.92" x2="104.5" y2="267.37"/>
  </g>
  <g id="LINE-198" data-name="LINE">
    <line class="cls-1" x1="98.51" y1="270.33" x2="98.57" y2="269.77"/>
  </g>
  <g id="LINE-199" data-name="LINE">
    <line class="cls-1" x1="111.4" y1="265.1" x2="111.46" y2="264.55"/>
  </g>
  <g id="LINE-200" data-name="LINE">
    <line class="cls-1" x1="106.01" y1="267.28" x2="106.07" y2="266.72"/>
  </g>
  <g id="LINE-201" data-name="LINE">
    <line class="cls-1" x1="101.36" y1="263.39" x2="101.42" y2="262.83"/>
  </g>
  <g id="LINE-202" data-name="LINE">
    <line class="cls-1" x1="118.93" y1="257.26" x2="118.99" y2="256.7"/>
  </g>
  <g id="LINE-203" data-name="LINE">
    <line class="cls-1" x1="85.69" y1="260.27" x2="85.51" y2="261.56"/>
  </g>
  <g id="LINE-204" data-name="LINE">
    <line class="cls-1" x1="87.25" y1="260.41" x2="85.69" y2="260.27"/>
  </g>
  <g id="LINE-205" data-name="LINE">
    <line class="cls-1" x1="128.18" y1="247.92" x2="128.24" y2="247.36"/>
  </g>
  <g id="LINE-206" data-name="LINE">
    <line class="cls-1" x1="93.05" y1="206.83" x2="93.11" y2="206.27"/>
  </g>
  <g id="LINE-207" data-name="LINE">
    <line class="cls-1" x1="90.52" y1="263.42" x2="90.58" y2="262.86"/>
  </g>
  <g id="LINE-208" data-name="LINE">
    <line class="cls-1" x1="87.62" y1="263.41" x2="87.68" y2="262.85"/>
  </g>
  <g id="LINE-209" data-name="LINE">
    <line class="cls-1" x1="85.69" y1="260.27" x2="85.75" y2="259.71"/>
  </g>
  <g id="LINE-210" data-name="LINE">
    <line class="cls-1" x1="91.44" y1="261.48" x2="91.5" y2="260.92"/>
  </g>
  <g id="LINE-211" data-name="LINE">
    <line class="cls-1" x1="92.98" y1="259.38" x2="93.04" y2="258.82"/>
  </g>
  <g id="LINE-212" data-name="LINE">
    <line class="cls-1" x1="98.99" y1="253.67" x2="99.06" y2="253.11"/>
  </g>
  <g id="LINE-213" data-name="LINE">
    <line class="cls-1" x1="92.92" y1="253.74" x2="92.98" y2="253.18"/>
  </g>
  <g id="LINE-214" data-name="LINE">
    <line class="cls-1" x1="77.19" y1="251.62" x2="76.26" y2="252.31"/>
  </g>
  <g id="LINE-215" data-name="LINE">
    <line class="cls-1" x1="81.43" y1="256.48" x2="77.19" y2="251.62"/>
  </g>
  <g id="LINE-216" data-name="LINE">
    <line class="cls-1" x1="85.45" y1="253.53" x2="81.43" y2="256.48"/>
  </g>
  <g id="LINE-217" data-name="LINE">
    <line class="cls-1" x1="82.51" y1="247.79" x2="81.58" y2="248.47"/>
  </g>
  <g id="LINE-218" data-name="LINE">
    <line class="cls-1" x1="86.71" y1="252.6" x2="82.51" y2="247.79"/>
  </g>
  <g id="LINE-219" data-name="LINE">
    <line class="cls-1" x1="91.76" y1="248.9" x2="86.71" y2="252.6"/>
  </g>
  <g id="LINE-220" data-name="LINE">
    <line class="cls-1" x1="88.82" y1="243.15" x2="87.89" y2="243.84"/>
  </g>
  <g id="LINE-221" data-name="LINE">
    <line class="cls-1" x1="93.65" y1="248.69" x2="88.82" y2="243.15"/>
  </g>
  <g id="LINE-222" data-name="LINE">
    <line class="cls-1" x1="85.45" y1="253.53" x2="85.51" y2="252.97"/>
  </g>
  <g id="LINE-223" data-name="LINE">
    <line class="cls-1" x1="81.43" y1="256.48" x2="81.49" y2="255.92"/>
  </g>
  <g id="LINE-224" data-name="LINE">
    <line class="cls-1" x1="77.19" y1="251.62" x2="77.25" y2="251.06"/>
  </g>
  <g id="LINE-225" data-name="LINE">
    <line class="cls-1" x1="91.76" y1="248.9" x2="91.82" y2="248.34"/>
  </g>
  <g id="LINE-226" data-name="LINE">
    <line class="cls-1" x1="86.71" y1="252.6" x2="86.77" y2="252.04"/>
  </g>
  <g id="LINE-227" data-name="LINE">
    <line class="cls-1" x1="82.51" y1="247.79" x2="82.57" y2="247.23"/>
  </g>
  <g id="LINE-228" data-name="LINE">
    <line class="cls-1" x1="88.82" y1="243.15" x2="88.88" y2="242.59"/>
  </g>
  <g id="LINE-229" data-name="LINE">
    <line class="cls-1" x1="420.26" y1="304.87" x2="420.24" y2="305.17"/>
  </g>
  <g id="LINE-230" data-name="LINE">
    <line class="cls-1" x1="72.97" y1="224.45" x2="60.58" y2="231.26"/>
  </g>
  <g id="LINE-231" data-name="LINE">
    <line class="cls-1" x1="71.68" y1="219.47" x2="70.63" y2="220.05"/>
  </g>
  <g id="LINE-232" data-name="LINE">
    <line class="cls-1" x1="74.77" y1="224.43" x2="71.68" y2="219.47"/>
  </g>
  <g id="LINE-233" data-name="LINE">
    <line class="cls-1" x1="72.97" y1="224.45" x2="73.03" y2="223.89"/>
  </g>
  <g id="LINE-234" data-name="LINE">
    <line class="cls-1" x1="71.68" y1="219.47" x2="71.75" y2="218.91"/>
  </g>
  <g id="LINE-235" data-name="LINE">
    <line class="cls-1" x1="68.45" y1="211.76" x2="68.51" y2="211.2"/>
  </g>
  <g id="LINE-236" data-name="LINE">
    <line class="cls-1" x1="78.39" y1="190.31" x2="78.45" y2="189.76"/>
  </g>
  <g id="LINE-237" data-name="LINE">
    <line class="cls-1" x1="63.2" y1="220.2" x2="63.26" y2="219.65"/>
  </g>
  <g id="LINE-238" data-name="LINE">
    <line class="cls-1" x1="54.47" y1="218.25" x2="54.53" y2="217.7"/>
  </g>
  <g id="LINE-239" data-name="LINE">
    <line class="cls-1" x1="359.55" y1="184.92" x2="368.3" y2="201.76"/>
  </g>
  <g id="LINE-240" data-name="LINE">
    <line class="cls-1" x1="57.74" y1="209.3" x2="57.8" y2="208.74"/>
  </g>
  <g id="LINE-241" data-name="LINE">
    <line class="cls-1" x1="57.84" y1="193.41" x2="57.49" y2="194.16"/>
  </g>
  <g id="LINE-242" data-name="LINE">
    <line class="cls-1" x1="49.32" y1="197.5" x2="48.09" y2="196.89"/>
  </g>
  <g id="LINE-243" data-name="LINE">
    <line class="cls-1" x1="56.41" y1="205.56" x2="56.47" y2="205"/>
  </g>
  <g id="LINE-244" data-name="LINE">
    <line class="cls-1" x1="48.13" y1="202.68" x2="48.19" y2="202.12"/>
  </g>
  <g id="LINE-245" data-name="LINE">
    <line class="cls-1" x1="62.62" y1="197.51" x2="62.69" y2="196.95"/>
  </g>
  <g id="LINE-246" data-name="LINE">
    <line class="cls-1" x1="57.84" y1="193.41" x2="57.9" y2="192.85"/>
  </g>
  <g id="LINE-247" data-name="LINE">
    <line class="cls-1" x1="48.09" y1="196.89" x2="48.15" y2="196.34"/>
  </g>
  <g id="LINE-248" data-name="LINE">
    <line class="cls-1" x1="16.97" y1="280.41" x2="21.11" y2="242.94"/>
  </g>
  <g id="LINE-249" data-name="LINE">
    <line class="cls-1" x1="49.66" y1="191.84" x2="43.89" y2="193.57"/>
  </g>
  <g id="LINE-250" data-name="LINE">
    <line class="cls-1" x1="50.63" y1="190.86" x2="42.3" y2="187.19"/>
  </g>
  <g id="LINE-251" data-name="LINE">
    <line class="cls-1" x1="57.56" y1="182.13" x2="50.63" y2="190.86"/>
  </g>
  <g id="LINE-252" data-name="LINE">
    <line class="cls-1" x1="57.87" y1="183.34" x2="57.56" y2="182.13"/>
  </g>
  <g id="LINE-253" data-name="LINE">
    <line class="cls-1" x1="59.26" y1="188.96" x2="52.1" y2="191.11"/>
  </g>
  <g id="LINE-254" data-name="LINE">
    <line class="cls-1" x1="59.44" y1="189.68" x2="59.26" y2="188.96"/>
  </g>
  <g id="LINE-255" data-name="LINE">
    <line class="cls-1" x1="59.26" y1="188.96" x2="59.33" y2="188.4"/>
  </g>
  <g id="LINE-256" data-name="LINE">
    <line class="cls-1" x1="52.1" y1="191.11" x2="52.16" y2="190.55"/>
  </g>
  <g id="LINE-257" data-name="LINE">
    <line class="cls-1" x1="57.56" y1="182.13" x2="57.62" y2="181.58"/>
  </g>
  <g id="LINE-258" data-name="LINE">
    <line class="cls-1" x1="50.63" y1="190.86" x2="50.69" y2="190.3"/>
  </g>
  <g id="LINE-259" data-name="LINE">
    <line class="cls-1" x1="49.66" y1="191.84" x2="49.72" y2="191.28"/>
  </g>
  <g id="LINE-260" data-name="LINE">
    <line class="cls-1" x1="465.35" y1="231.95" x2="461.21" y2="269.42"/>
  </g>
  <g id="LINE-261" data-name="LINE">
    <line class="cls-1" x1="218.9" y1="42.74" x2="222.88" y2="38.29"/>
  </g>
  <g id="LINE-262" data-name="LINE">
    <line class="cls-1" x1="210.86" y1="38.74" x2="216.59" y2="42.96"/>
  </g>
  <g id="LINE-263" data-name="LINE">
    <line class="cls-1" x1="243.67" y1="31.92" x2="238.08" y2="28.52"/>
  </g>
  <g id="LINE-264" data-name="LINE">
    <line class="cls-1" x1="248.33" y1="28.43" x2="243.67" y2="31.92"/>
  </g>
  <g id="LINE-265" data-name="LINE">
    <line class="cls-1" x1="221.07" y1="34.69" x2="225.62" y2="34.56"/>
  </g>
  <g id="LINE-266" data-name="LINE">
    <line class="cls-1" x1="211.61" y1="26.39" x2="207.87" y2="28.31"/>
  </g>
  <g id="LINE-267" data-name="LINE">
    <line class="cls-1" x1="252.83" y1="40.06" x2="254.56" y2="39.11"/>
  </g>
  <g id="LINE-268" data-name="LINE">
    <line class="cls-1" x1="237.75" y1="45.76" x2="229.16" y2="40.47"/>
  </g>
  <g id="LINE-269" data-name="LINE">
    <line class="cls-1" x1="263.01" y1="10.52" x2="263.07" y2="9.97"/>
  </g>
  <g id="LINE-270" data-name="LINE">
    <line class="cls-1" x1="201.58" y1="46.53" x2="201.52" y2="47.09"/>
  </g>
  <g id="LINE-271" data-name="LINE">
    <line class="cls-1" x1="211.07" y1="46.02" x2="211.01" y2="46.58"/>
  </g>
  <g id="LINE-272" data-name="LINE">
    <line class="cls-1" x1="200.21" y1="38.73" x2="200.15" y2="39.29"/>
  </g>
  <g id="LINE-273" data-name="LINE">
    <line class="cls-1" x1="216.65" y1="42.4" x2="210.92" y2="38.18"/>
  </g>
  <g id="LINE-274" data-name="LINE">
    <line class="cls-1" x1="213.84" y1="38.06" x2="217.56" y2="40.83"/>
  </g>
  <g id="LINE-275" data-name="LINE">
    <line class="cls-1" x1="217.56" y1="40.83" x2="220.25" y2="37.82"/>
  </g>
  <g id="LINE-276" data-name="LINE">
    <line class="cls-1" x1="220.25" y1="37.82" x2="222.94" y2="37.73"/>
  </g>
  <g id="LINE-277" data-name="LINE">
    <line class="cls-1" x1="222.94" y1="37.73" x2="218.83" y2="42.34"/>
  </g>
  <g id="LINE-278" data-name="LINE">
    <line class="cls-1" x1="219.42" y1="45.66" x2="217.25" y2="45.75"/>
  </g>
  <g id="LINE-279" data-name="LINE">
    <line class="cls-1" x1="219.42" y1="45.66" x2="219.36" y2="46.22"/>
  </g>
  <g id="LINE-280" data-name="LINE">
    <line class="cls-1" x1="217.25" y1="45.75" x2="217.19" y2="46.31"/>
  </g>
  <g id="LINE-281" data-name="LINE">
    <line class="cls-1" x1="216.65" y1="42.4" x2="216.59" y2="42.96"/>
  </g>
  <g id="LINE-282" data-name="LINE">
    <line class="cls-1" x1="237.42" y1="42.98" x2="228.65" y2="37.58"/>
  </g>
  <g id="LINE-283" data-name="LINE">
    <line class="cls-1" x1="238.6" y1="37.41" x2="236.43" y2="37.44"/>
  </g>
  <g id="LINE-284" data-name="LINE">
    <line class="cls-1" x1="237.81" y1="45.21" x2="239.98" y2="45.18"/>
  </g>
  <g id="LINE-285" data-name="LINE">
    <line class="cls-1" x1="229.05" y1="39.81" x2="237.81" y2="45.21"/>
  </g>
  <g id="LINE-286" data-name="LINE">
    <line class="cls-1" x1="227.86" y1="45.4" x2="227.8" y2="45.96"/>
  </g>
  <g id="LINE-287" data-name="LINE">
    <line class="cls-1" x1="230.03" y1="45.34" x2="229.97" y2="45.9"/>
  </g>
  <g id="LINE-288" data-name="LINE">
    <line class="cls-1" x1="226.48" y1="37.63" x2="226.42" y2="38.19"/>
  </g>
  <g id="LINE-289" data-name="LINE">
    <line class="cls-1" x1="237.81" y1="45.21" x2="237.75" y2="45.76"/>
  </g>
  <g id="LINE-290" data-name="LINE">
    <line class="cls-1" x1="239.98" y1="45.18" x2="239.92" y2="45.74"/>
  </g>
  <g id="LINE-291" data-name="LINE">
    <line class="cls-1" x1="255.59" y1="44.03" x2="255.53" y2="44.59"/>
  </g>
  <g id="LINE-292" data-name="LINE">
    <line class="cls-1" x1="254.62" y1="38.55" x2="254.56" y2="39.11"/>
  </g>
  <g id="LINE-293" data-name="LINE">
    <line class="cls-1" x1="254.62" y1="38.55" x2="252.9" y2="39.51"/>
  </g>
  <g id="LINE-294" data-name="LINE">
    <line class="cls-1" x1="210.92" y1="38.18" x2="210.86" y2="38.74"/>
  </g>
  <g id="LINE-295" data-name="LINE">
    <line class="cls-1" x1="222.94" y1="37.73" x2="222.88" y2="38.29"/>
  </g>
  <g id="LINE-296" data-name="LINE">
    <line class="cls-1" x1="252.9" y1="39.51" x2="252.83" y2="40.06"/>
  </g>
  <g id="LINE-297" data-name="LINE">
    <line class="cls-1" x1="236.43" y1="37.44" x2="236.37" y2="38"/>
  </g>
  <g id="LINE-298" data-name="LINE">
    <line class="cls-1" x1="253.01" y1="41.8" x2="252.95" y2="42.36"/>
  </g>
  <g id="LINE-299" data-name="LINE">
    <line class="cls-1" x1="249.08" y1="41.78" x2="249.02" y2="42.34"/>
  </g>
  <g id="LINE-300" data-name="LINE">
    <line class="cls-1" x1="248.85" y1="40.48" x2="248.79" y2="41.03"/>
  </g>
  <g id="LINE-301" data-name="LINE">
    <line class="cls-1" x1="212.81" y1="32.25" x2="212.75" y2="32.81"/>
  </g>
  <g id="LINE-302" data-name="LINE">
    <line class="cls-1" x1="211.67" y1="25.83" x2="211.61" y2="26.39"/>
  </g>
  <g id="LINE-303" data-name="LINE">
    <line class="cls-1" x1="207.93" y1="27.76" x2="211.67" y2="25.83"/>
  </g>
  <g id="LINE-304" data-name="LINE">
    <line class="cls-1" x1="208.45" y1="30.67" x2="212.81" y2="32.25"/>
  </g>
  <g id="LINE-305" data-name="LINE">
    <line class="cls-1" x1="225.68" y1="34" x2="221.14" y2="34.13"/>
  </g>
  <g id="LINE-306" data-name="LINE">
    <line class="cls-1" x1="219.73" y1="26.24" x2="214.83" y2="26.41"/>
  </g>
  <g id="LINE-307" data-name="LINE">
    <line class="cls-1" x1="225.68" y1="34" x2="225.62" y2="34.56"/>
  </g>
  <g id="LINE-308" data-name="LINE">
    <line class="cls-1" x1="221.14" y1="34.13" x2="221.07" y2="34.69"/>
  </g>
  <g id="LINE-309" data-name="LINE">
    <line class="cls-1" x1="219.73" y1="26.24" x2="219.67" y2="26.8"/>
  </g>
  <g id="LINE-310" data-name="LINE">
    <line class="cls-1" x1="243.01" y1="27.32" x2="236.18" y2="23.18"/>
  </g>
  <g id="LINE-311" data-name="LINE">
    <line class="cls-1" x1="248.5" y1="23.17" x2="243.01" y2="27.32"/>
  </g>
  <g id="LINE-312" data-name="LINE">
    <line class="cls-1" x1="243.73" y1="31.36" x2="248.39" y2="27.87"/>
  </g>
  <g id="LINE-313" data-name="LINE">
    <line class="cls-1" x1="237.96" y1="27.86" x2="243.73" y2="31.36"/>
  </g>
  <g id="LINE-314" data-name="LINE">
    <line class="cls-1" x1="234.33" y1="33.82" x2="239.01" y2="33.76"/>
  </g>
  <g id="LINE-315" data-name="LINE">
    <line class="cls-1" x1="236.18" y1="23.18" x2="232.45" y2="23.23"/>
  </g>
  <g id="LINE-316" data-name="LINE">
    <line class="cls-1" x1="232.45" y1="23.23" x2="232.39" y2="23.79"/>
  </g>
  <g id="LINE-317" data-name="LINE">
    <line class="cls-1" x1="234.33" y1="33.82" x2="234.27" y2="34.38"/>
  </g>
  <g id="LINE-318" data-name="LINE">
    <line class="cls-1" x1="239.01" y1="33.76" x2="238.94" y2="34.32"/>
  </g>
  <g id="LINE-319" data-name="LINE">
    <line class="cls-1" x1="207.93" y1="27.76" x2="207.87" y2="28.31"/>
  </g>
  <g id="LINE-320" data-name="LINE">
    <line class="cls-1" x1="249.44" y1="33.79" x2="249.37" y2="34.34"/>
  </g>
  <g id="LINE-321" data-name="LINE">
    <line class="cls-1" x1="254.1" y1="33.81" x2="254.04" y2="34.37"/>
  </g>
  <g id="LINE-322" data-name="LINE">
    <line class="cls-1" x1="248.39" y1="27.87" x2="248.33" y2="28.43"/>
  </g>
  <g id="LINE-323" data-name="LINE">
    <line class="cls-1" x1="243.73" y1="31.36" x2="243.67" y2="31.92"/>
  </g>
  <g id="LINE-324" data-name="LINE">
    <line class="cls-1" x1="214.83" y1="26.41" x2="214.77" y2="26.96"/>
  </g>
  <g id="LINE-325" data-name="LINE">
    <line class="cls-1" x1="214.35" y1="23.71" x2="214.29" y2="24.25"/>
  </g>
  <g id="LINE-326" data-name="LINE">
    <line class="cls-1" x1="214.3" y1="24.3" x2="214.29" y2="24.25"/>
  </g>
  <g id="LINE-327" data-name="LINE">
    <line class="cls-1" x1="228.87" y1="26.01" x2="228.81" y2="26.56"/>
  </g>
  <g id="LINE-328" data-name="LINE">
    <line class="cls-1" x1="352.85" y1="249.29" x2="352.84" y2="246.7"/>
  </g>
  <g id="LINE-329" data-name="LINE">
    <line class="cls-1" x1="19.88" y1="288.76" x2="17.45" y2="284.02"/>
  </g>
  <g id="LINE-330" data-name="LINE">
    <line class="cls-1" x1="19.8" y1="283.79" x2="20.25" y2="284.68"/>
  </g>
  <g id="LINE-331" data-name="LINE">
    <line class="cls-1" x1="77.04" y1="348.84" x2="77.57" y2="350.71"/>
  </g>
  <g id="LINE-332" data-name="LINE">
    <line class="cls-1" x1="24.53" y1="246.37" x2="21.32" y2="275.48"/>
  </g>
  <g id="LINE-333" data-name="LINE">
    <line class="cls-1" x1="424.6" y1="276.06" x2="424.03" y2="278.53"/>
  </g>
  <g id="LINE-334" data-name="LINE">
    <line class="cls-1" x1="459.59" y1="263.5" x2="462.68" y2="235.53"/>
  </g>
  <g id="ARC">
    <path class="cls-1" d="m73.93,322.44c-.24-.67-.63-1.27-1.14-1.77"/>
  </g>
  <g id="ARC-2" data-name="ARC">
    <path class="cls-1" d="m38.53,280.59c-.51-.74-1.17-1.36-1.94-1.82"/>
  </g>
  <g id="ARC-3" data-name="ARC">
    <path class="cls-1" d="m447.7,268.49c-.68.58-1.28,1.25-1.79,1.98"/>
  </g>
  <g id="ARC-4" data-name="ARC">
    <path class="cls-1" d="m352.29,263.08c9.45,7.6,21.88,10.42,33.69,7.66"/>
  </g>
  <g id="ARC-5" data-name="ARC">
    <path class="cls-1" d="m77.59,350.95c.46,1.61,1.46,3.01,2.83,3.96"/>
  </g>
  <g id="ARC-6" data-name="ARC">
    <path class="cls-1" d="m414.06,346.58c1.22-1.1,1.97-2.64,2.07-4.29"/>
  </g>
  <g id="ARC-7" data-name="ARC">
    <path class="cls-1" d="m17.02,280.74c.69,1.41,1.8,2.56,3.18,3.3"/>
  </g>
  <g id="ARC-8" data-name="ARC">
    <path class="cls-1" d="m192.92,3.61c18.54,1.46,37.18,1,55.63-1.38"/>
  </g>
  <g id="ARC-9" data-name="ARC">
    <path class="cls-1" d="m192.92,3.61c-7.29-.85-14.65-.81-21.93.13"/>
  </g>
  <g id="ARC-10" data-name="ARC">
    <path class="cls-1" d="m268.27,1.23c-6.58-.51-13.2-.18-19.69.99"/>
  </g>
  <g id="ARC-11" data-name="ARC">
    <path class="cls-1" d="m21.18,277.03c13.41,24.58,31.81,46.1,54.01,63.17"/>
  </g>
  <g id="ARC-12" data-name="ARC">
    <path class="cls-1" d="m420.42,331.66c18.49-18.25,32.24-40.73,40.07-65.5"/>
  </g>
  <g id="ARC-13" data-name="ARC">
    <path class="cls-1" d="m459.19,277.89c2.74-8.92,4.6-18.08,5.55-27.35"/>
  </g>
  <g id="ARC-14" data-name="ARC">
    <path class="cls-1" d="m2.16,199.48c-3.2,29.07,2.11,58.44,15.29,84.54"/>
  </g>
  <g id="ARC-15" data-name="ARC">
    <path class="cls-1" d="m1.86,202.15c-.56,5.09-.85,10.2-.86,15.32"/>
  </g>
  <g id="ARC-16" data-name="ARC">
    <path class="cls-1" d="m462.13,267.5c1.01-4.72,1.79-9.49,2.32-14.3"/>
  </g>
  <g id="ARC-17" data-name="ARC">
    <path class="cls-1" d="m73.89,351.94c1.22.52,2.61.5,3.82-.05"/>
  </g>
  <g id="ARC-18" data-name="ARC">
    <path class="cls-1" d="m415.78,343.52c1.07.51,2.32.47,3.34-.13"/>
  </g>
  <g id="ARC-19" data-name="ARC">
    <path class="cls-1" d="m34.89,278.49c10.34,16.63,23.14,31.6,37.96,44.4"/>
  </g>
  <g id="ARC-20" data-name="ARC">
    <path class="cls-1" d="m75.18,340.2c.31-5.86-.48-11.73-2.33-17.3"/>
  </g>
  <g id="ARC-21" data-name="ARC">
    <path class="cls-1" d="m78.04,339.03c-.02-5.37-1.28-10.65-3.68-15.45"/>
  </g>
  <g id="ARC-22" data-name="ARC">
    <path class="cls-1" d="m35.71,279.07c10.08,16.06,22.48,30.56,36.77,43.01"/>
  </g>
  <g id="ARC-23" data-name="ARC">
    <path class="cls-1" d="m38.56,280.63c-.75-.82-1.75-1.37-2.84-1.55"/>
  </g>
  <g id="ARC-24" data-name="ARC">
    <path class="cls-1" d="m38.56,280.63c9.52,14.87,21.04,28.35,34.25,40.06"/>
  </g>
  <g id="ARC-25" data-name="ARC">
    <path class="cls-1" d="m73.89,351.94c.9-.69,1.79-1.39,2.68-2.09"/>
  </g>
  <g id="ARC-26" data-name="ARC">
    <path class="cls-1" d="m38.56,280.63c3.13,4.71,6.37,9.35,9.71,13.91"/>
  </g>
  <g id="ARC-27" data-name="ARC">
    <path class="cls-1" d="m76.56,349.84c.05.82.47,1.57,1.14,2.04"/>
  </g>
  <g id="ARC-28" data-name="ARC">
    <path class="cls-1" d="m420.42,331.66c.42-5.79.72-11.58.91-17.38"/>
  </g>
  <g id="ARC-29" data-name="ARC">
    <path class="cls-1" d="m421.32,314.27c12.04-13.56,21.57-29.15,28.16-46.04"/>
  </g>
  <g id="ARC-30" data-name="ARC">
    <path class="cls-1" d="m420.07,312.91c-.15.42-.27.85-.36,1.29"/>
  </g>
  <g id="ARC-31" data-name="ARC">
    <path class="cls-1" d="m419.12,343.39c-.61-.77-1.35-1.44-2.18-1.97"/>
  </g>
  <g id="ARC-32" data-name="ARC">
    <path class="cls-1" d="m421.51,313.45c-.07.27-.13.55-.19.82"/>
  </g>
  <g id="ARC-33" data-name="ARC">
    <path class="cls-1" d="m421.51,313.45c11.59-13.19,20.81-28.28,27.28-44.6"/>
  </g>
  <g id="ARC-34" data-name="ARC">
    <path class="cls-1" d="m420.49,312.08c-.22.23-.37.52-.43.83"/>
  </g>
  <g id="ARC-35" data-name="ARC">
    <path class="cls-1" d="m448.8,268.85c-1.12.25-2.13.85-2.9,1.7"/>
  </g>
  <g id="ARC-36" data-name="ARC">
    <path class="cls-1" d="m423.54,306.69c-1.05,1.77-2.07,3.57-3.04,5.39"/>
  </g>
  <g id="ARC-37" data-name="ARC">
    <path class="cls-1" d="m423.54,306.69c5.06-6.86,9.51-14.15,13.32-21.77"/>
  </g>
  <g id="ARC-38" data-name="ARC">
    <path class="cls-1" d="m415.78,343.52c.58-.57.99-1.3,1.16-2.1"/>
  </g>
  <g id="ARC-39" data-name="ARC">
    <path class="cls-1" d="m57.8,208.74c-3.95,1.34-6.06,5.63-4.72,9.58.01.03.02.06.03.1"/>
  </g>
  <g id="ARC-40" data-name="ARC">
    <path class="cls-1" d="m53.12,218.42c2.26,3.63,7.04,4.74,10.67,2.48.02-.01.04-.03.07-.04"/>
  </g>
  <g id="ARC-41" data-name="ARC">
    <path class="cls-1" d="m63.85,220.86c3.95-1.39,6.03-5.7,4.66-9.66"/>
  </g>
  <g id="ARC-42" data-name="ARC">
    <path class="cls-1" d="m140.84,292.01c-2.15-1.56-5.16-1.07-6.72,1.08-.02.02-.03.05-.05.07"/>
  </g>
  <g id="ARC-43" data-name="ARC">
    <path class="cls-1" d="m134.08,293.17c-1.05,1.45-.8,3.46.57,4.61"/>
  </g>
  <g id="ARC-44" data-name="ARC">
    <path class="cls-1" d="m134.65,297.78c.91.64,1.87,1.21,2.86,1.7"/>
  </g>
  <g id="ARC-45" data-name="ARC">
    <path class="cls-1" d="m271.69,59.25c-27.14-1.01-54.33-.34-81.39,2.01"/>
  </g>
  <g id="ARC-46" data-name="ARC">
    <path class="cls-1" d="m263.07,9.97c-27.14-.36-54.29.31-81.39,2.01"/>
  </g>
  <g id="ARC-47" data-name="ARC">
    <path class="cls-1" d="m339.48,211.74c7.83-8.3,13.85-18.14,17.68-28.9"/>
  </g>
  <g id="ARC-48" data-name="ARC">
    <path class="cls-1" d="m388.38,273.03c8.31-2.27,15.17-8.15,18.67-16.03"/>
  </g>
  <g id="ARC-49" data-name="ARC">
    <path class="cls-1" d="m426.87,224.59c5.16-6.29,6.99-14.67,4.93-22.54"/>
  </g>
  <g id="ARC-50" data-name="ARC">
    <path class="cls-1" d="m443.65,229.77c-11.87,10.91-20.45,24.93-24.75,40.47"/>
  </g>
  <g id="ARC-51" data-name="ARC">
    <path class="cls-1" d="m82.26,278.57c4.47,3.99,9.11,7.79,13.91,11.39"/>
  </g>
  <g id="ARC-52" data-name="ARC">
    <path class="cls-1" d="m82.26,278.57c-7.48-15.73-18.99-29.19-33.37-39.03"/>
  </g>
  <g id="ARC-53" data-name="ARC">
    <path class="cls-1" d="m192.27,5.16c19.37,1.45,38.84.97,58.12-1.44"/>
  </g>
  <g id="ARC-54" data-name="ARC">
    <path class="cls-1" d="m81.05,212.32c9.64,17.12,22.53,32.19,37.94,44.38"/>
  </g>
  <g id="ARC-55" data-name="ARC">
    <path class="cls-1" d="m93.11,206.27c8.93,15.85,20.86,29.81,35.13,41.09"/>
  </g>
  <g id="ARC-56" data-name="ARC">
    <path class="cls-1" d="m91.5,260.92c0-.76-.04-1.51-.1-2.27"/>
  </g>
  <g id="ARC-57" data-name="ARC">
    <path class="cls-1" d="m90.58,262.86c.56-.5.89-1.2.92-1.94"/>
  </g>
  <g id="ARC-58" data-name="ARC">
    <path class="cls-1" d="m87.68,262.85c.82.75,2.08.75,2.9,0"/>
  </g>
  <g id="ARC-59" data-name="ARC">
    <path class="cls-1" d="m87.31,259.85c-.5.98-.35,2.17.37,3.01"/>
  </g>
  <g id="ARC-60" data-name="ARC">
    <path class="cls-1" d="m85.75,259.71c-.65,1.4-.38,3.06.67,4.19"/>
  </g>
  <g id="ARC-61" data-name="ARC">
    <path class="cls-1" d="m86.42,263.9c1.5,1.34,3.79,1.31,5.25-.09"/>
  </g>
  <g id="ARC-62" data-name="ARC">
    <path class="cls-1" d="m91.66,263.81c.64-.54,1.1-1.27,1.3-2.09"/>
  </g>
  <g id="ARC-63" data-name="ARC">
    <path class="cls-1" d="m92.97,261.72c.15-.96.18-1.94.08-2.9"/>
  </g>
  <g id="ARC-64" data-name="ARC">
    <path class="cls-1" d="m93.25,255.53c-.23,1.08-.3,2.19-.21,3.29"/>
  </g>
  <g id="ARC-65" data-name="ARC">
    <path class="cls-1" d="m94.09,254.19c-.41.36-.7.82-.84,1.34"/>
  </g>
  <g id="ARC-66" data-name="ARC">
    <path class="cls-1" d="m97.98,254.21c-1.11-.99-2.78-1-3.89-.02"/>
  </g>
  <g id="ARC-67" data-name="ARC">
    <path class="cls-1" d="m99.55,258.19c.95-1.62.75-3.67-.49-5.08"/>
  </g>
  <g id="ARC-68" data-name="ARC">
    <path class="cls-1" d="m99.06,253.11c-1.74-1.54-4.37-1.51-6.08.07"/>
  </g>
  <g id="ARC-69" data-name="ARC">
    <path class="cls-1" d="m92.98,253.18c-1.39,1.45-1.98,3.5-1.57,5.47"/>
  </g>
  <g id="ARC-70" data-name="ARC">
    <path class="cls-1" d="m61.67,202.85c1.33-1.66,1.71-3.89,1.01-5.91"/>
  </g>
  <g id="ARC-71" data-name="ARC">
    <path class="cls-1" d="m62.69,196.95c-.71-2.15-2.55-3.72-4.78-4.1"/>
  </g>
  <g id="ARC-72" data-name="ARC">
    <path class="cls-1" d="m61.22,197.39c-.66-1.69-2.13-2.92-3.91-3.28"/>
  </g>
  <g id="ARC-73" data-name="ARC">
    <path class="cls-1" d="m56.47,205c3.33-.66,5.5-3.89,4.84-7.22-.03-.13-.06-.26-.09-.39"/>
  </g>
  <g id="ARC-74" data-name="ARC">
    <path class="cls-1" d="m48.19,202.12c1.5,3.07,5.2,4.35,8.28,2.88"/>
  </g>
  <g id="ARC-75" data-name="ARC">
    <path class="cls-1" d="m49.39,196.94c-1.31,1.38-1.77,3.37-1.2,5.19"/>
  </g>
  <g id="ARC-76" data-name="ARC">
    <path class="cls-1" d="m48.15,196.34c-1.61,1.69-2.17,4.12-1.46,6.34"/>
  </g>
  <g id="ARC-77" data-name="ARC">
    <path class="cls-1" d="m46.69,202.68c1.53,3.69,5.76,5.45,9.45,3.93.21-.09.41-.18.61-.28"/>
  </g>
  <g id="ARC-78" data-name="ARC">
    <path class="cls-1" d="m56.76,206.32c1.94-.65,3.65-1.85,4.92-3.46"/>
  </g>
  <g id="ARC-79" data-name="ARC">
    <path class="cls-1" d="m84.43,317.02c1.49-12.85.76-25.86-2.17-38.45"/>
  </g>
  <g id="ARC-80" data-name="ARC">
    <path class="cls-1" d="m418.89,270.24c-.67,12.83-.84,25.68-.53,38.52"/>
  </g>
  <g id="ARC-81" data-name="ARC">
    <path class="cls-1" d="m140.78,292.57c-2.1-1.56-5.07-1.13-6.64.97-.04.06-.09.12-.13.18"/>
  </g>
  <g id="ARC-82" data-name="ARC">
    <path class="cls-1" d="m75.62,284.69c-6.82-14.64-17.51-27.15-30.91-36.16"/>
  </g>
  <g id="ARC-83" data-name="ARC">
    <path class="cls-1" d="m81.7,313.24c.38-9.88-1.71-19.69-6.09-28.55"/>
  </g>
  <g id="ARC-84" data-name="ARC">
    <path class="cls-1" d="m81.7,313.24c.46,1.53,1.42,2.86,2.73,3.78"/>
  </g>
  <g id="ARC-85" data-name="ARC">
    <path class="cls-1" d="m82.26,278.57c-2.98,1-5.4,3.23-6.64,6.12"/>
  </g>
  <g id="ARC-86" data-name="ARC">
    <path class="cls-1" d="m93.05,206.83c8.93,15.85,20.86,29.81,35.13,41.09"/>
  </g>
  <g id="ARC-87" data-name="ARC">
    <path class="cls-1" d="m48.89,239.54c-2.39,2.42-3.87,5.6-4.19,8.99"/>
  </g>
  <g id="ARC-88" data-name="ARC">
    <path class="cls-1" d="m341.49,214.45c-.43-1.06-1.12-1.99-2-2.71"/>
  </g>
  <g id="ARC-89" data-name="ARC">
    <path class="cls-1" d="m338.09,244.68c2.74,7.44,7.68,13.87,14.17,18.43"/>
  </g>
  <g id="ARC-90" data-name="ARC">
    <path class="cls-1" d="m348.66,233.87c-6.19,6.4-7.25,16.19-2.59,23.77"/>
  </g>
  <g id="ARC-91" data-name="ARC">
    <path class="cls-1" d="m77.57,350.71c.46,1.53,1.42,2.86,2.73,3.78"/>
  </g>
  <g id="ARC-92" data-name="ARC">
    <path class="cls-1" d="m92.97,261.69c.08-.77.08-1.54,0-2.31"/>
  </g>
  <g id="ARC-93" data-name="ARC">
    <path class="cls-1" d="m87.07,261.54c-.18.68.03,1.4.55,1.87"/>
  </g>
  <g id="ARC-94" data-name="ARC">
    <path class="cls-1" d="m87.62,263.41c.81.77,2.08.77,2.9,0"/>
  </g>
  <g id="ARC-95" data-name="ARC">
    <path class="cls-1" d="m90.52,263.42c.56-.49.89-1.2.92-1.94"/>
  </g>
  <g id="ARC-96" data-name="ARC">
    <path class="cls-1" d="m92.92,253.74c-.92.8-1.48,1.95-1.52,3.17"/>
  </g>
  <g id="ARC-97" data-name="ARC">
    <path class="cls-1" d="m98.99,253.67c-1.76-1.51-4.36-1.48-6.08.07"/>
  </g>
  <g id="ARC-98" data-name="ARC">
    <path class="cls-1" d="m100.05,256.65c.21-1.11-.19-2.25-1.05-2.98"/>
  </g>
  <g id="ARC-99" data-name="ARC">
    <path class="cls-1" d="m424.03,278.53c-1.87,8.68-3.13,17.48-3.76,26.34"/>
  </g>
  <g id="ARC-100" data-name="ARC">
    <path class="cls-1" d="m424.6,276.06c-.57-2.9-2.81-5.19-5.7-5.82"/>
  </g>
  <g id="ARC-101" data-name="ARC">
    <path class="cls-1" d="m21.11,242.94c.75,1.47,1.95,2.67,3.43,3.43"/>
  </g>
  <g id="ARC-102" data-name="ARC">
    <path class="cls-1" d="m447.53,238.56c-11.07,10.05-19.03,23.06-22.93,37.49"/>
  </g>
  <g id="ARC-103" data-name="ARC">
    <path class="cls-1" d="m435.33,287.91c-4.33,5.43-8,11.34-10.94,17.63"/>
  </g>
  <g id="ARC-104" data-name="ARC">
    <path class="cls-1" d="m390.1,269.2c5.62-2.45,10.07-7,12.4-12.67"/>
  </g>
  <g id="ARC-105" data-name="ARC">
    <path class="cls-1" d="m407.04,257c-1.38-.81-3.03-.98-4.54-.48"/>
  </g>
  <g id="ARC-106" data-name="ARC">
    <path class="cls-1" d="m348.66,233.87c8.7-9.23,15.39-20.16,19.64-32.11"/>
  </g>
  <g id="ARC-107" data-name="ARC">
    <path class="cls-1" d="m426.66,203.92c-7.41-16.41-26.72-23.71-43.13-16.3-6.48,2.93-11.83,7.89-15.23,14.14"/>
  </g>
  <g id="ARC-108" data-name="ARC">
    <path class="cls-1" d="m422.66,223.57c4.9-5.29,6.44-12.87,4-19.65"/>
  </g>
  <g id="ARC-109" data-name="ARC">
    <path class="cls-1" d="m422.66,223.57c-2.5,2.81-4.87,5.75-7.08,8.8"/>
  </g>
  <g id="ARC-110" data-name="ARC">
    <path class="cls-1" d="m415.58,232.37c-3.27,4.51-6.19,9.27-8.71,14.24"/>
  </g>
  <g id="ARC-111" data-name="ARC">
    <path class="cls-1" d="m406.87,246.61c-1.64,3.22-3.09,6.53-4.37,9.91"/>
  </g>
  <g id="ARC-112" data-name="ARC">
    <path class="cls-1" d="m447.53,238.56c.19-3.38-1.26-6.65-3.88-8.79"/>
  </g>
  <g id="ARC-113" data-name="ARC">
    <path class="cls-1" d="m68.45,211.76c-2.36-3.52-7.05-4.59-10.71-2.46"/>
  </g>
  <g id="ARC-114" data-name="ARC">
    <path class="cls-1" d="m57.74,209.3c-2.89.91-4.96,3.46-5.26,6.47"/>
  </g>
  <g id="ARC-115" data-name="ARC">
    <path class="cls-1" d="m63.2,220.2c2.28-.85,3.9-2.9,4.19-5.32"/>
  </g>
  <g id="ARC-116" data-name="ARC">
    <path class="cls-1" d="m54.47,218.25c1.86,2.95,5.76,3.83,8.71,1.97,0,0,.02-.01.02-.02"/>
  </g>
  <g id="ARC-117" data-name="ARC">
    <path class="cls-1" d="m394.34,254.97c0-1.16-.13-2.32-.42-3.44"/>
  </g>
  <g id="ARC-118" data-name="ARC">
    <path class="cls-1" d="m67.1,211.9c-1.93-2.85-5.74-3.71-8.71-1.98"/>
  </g>
  <g id="ARC-119" data-name="ARC">
    <path class="cls-1" d="m63.26,219.65c3.12-.91,4.9-4.18,3.99-7.3-.04-.15-.1-.31-.15-.45"/>
  </g>
  <g id="ARC-120" data-name="ARC">
    <path class="cls-1" d="m54.53,217.7c1.96,2.83,5.76,3.68,8.74,1.95"/>
  </g>
  <g id="ARC-121" data-name="ARC">
    <path class="cls-1" d="m58.39,209.92c-3.14.94-4.93,4.24-3.99,7.38.04.13.08.26.13.39"/>
  </g>
  <g id="ARC-122" data-name="ARC">
    <path class="cls-1" d="m341.49,214.45c8-8.49,14.16-18.54,18.07-29.53"/>
  </g>
  <g id="ARC-123" data-name="ARC">
    <path class="cls-1" d="m359.55,184.92c-.55-.93-1.39-1.66-2.39-2.07"/>
  </g>
  <g id="ARC-124" data-name="ARC">
    <path class="cls-1" d="m411.77,246.97c-1.43-1.06-3.33-1.19-4.9-.36"/>
  </g>
  <g id="ARC-125" data-name="ARC">
    <path class="cls-1" d="m48.13,202.68c1.33,3.02,4.85,4.4,7.88,3.07.14-.06.27-.13.41-.2"/>
  </g>
  <g id="ARC-126" data-name="ARC">
    <path class="cls-1" d="m56.41,205.56c2.55-.74,4.47-2.86,4.97-5.47"/>
  </g>
  <g id="ARC-127" data-name="ARC">
    <path class="cls-1" d="m62.62,197.51c-.72-2.14-2.56-3.71-4.78-4.1"/>
  </g>
  <g id="ARC-128" data-name="ARC">
    <path class="cls-1" d="m420.32,233c-1.28-1.2-3.18-1.45-4.73-.62"/>
  </g>
  <g id="ARC-129" data-name="ARC">
    <path class="cls-1" d="m2.27,198.41c-2.93,28.17,2.16,56.6,14.7,82"/>
  </g>
  <g id="ARC-130" data-name="ARC">
    <path class="cls-1" d="m431.8,202.04c-1.89-.05-3.73.62-5.14,1.88"/>
  </g>
  <g id="ARC-131" data-name="ARC">
    <path class="cls-1" d="m426.87,224.59c-1.12-1.06-2.73-1.45-4.21-1.02"/>
  </g>
  <g id="ARC-132" data-name="ARC">
    <path class="cls-1" d="m462.68,235.53c1.3-.82,2.25-2.1,2.67-3.58"/>
  </g>
  <g id="ARC-133" data-name="ARC">
    <path class="cls-1" d="m461.21,269.42c1.69-6.55,2.91-13.22,3.65-19.95"/>
  </g>
  <g id="ARC-134" data-name="ARC">
    <path class="cls-1" d="m263.01,10.52c-27.14-.36-54.29.31-81.39,2.01"/>
  </g>
  <g id="ARC-135" data-name="ARC">
    <path class="cls-1" d="m74.31,323.26c-.35-.43-.94-.58-1.45-.36"/>
  </g>
  <g id="ARC-136" data-name="ARC">
    <path class="cls-1" d="m76.56,349.84c.25-.19.41-.47.45-.79"/>
  </g>
  <g id="ARC-137" data-name="ARC">
    <path class="cls-1" d="m73.93,322.43c-.35-.42-.94-.56-1.45-.35"/>
  </g>
  <g id="ARC-138" data-name="ARC">
    <path class="cls-1" d="m417.38,331.07c.45.96,1.58,1.37,2.54.92.18-.09.35-.2.5-.34"/>
  </g>
  <g id="ARC-139" data-name="ARC">
    <path class="cls-1" d="m416.32,340.67c.11.31.33.58.62.75"/>
  </g>
  <g id="ARC-140" data-name="ARC">
    <path class="cls-1" d="m19.89,287.14c-.09.54-.09,1.09,0,1.63"/>
  </g>
  <g id="ARC-141" data-name="ARC">
    <path class="cls-1" d="m448.8,268.85c-.33-.34-.85-.43-1.28-.21"/>
  </g>
  <g id="ARC-142" data-name="ARC">
    <path class="cls-1" d="m459.19,277.89c.15-.52.21-1.07.2-1.61"/>
  </g>
  <g id="ARC-143" data-name="ARC">
    <path class="cls-1" d="m341.49,214.45c-6.92,8.56-8.24,20.35-3.4,30.23"/>
  </g>
  <g id="ARC-144" data-name="ARC">
    <path class="cls-1" d="m80.3,354.49c-.04.15,0,.31.12.42"/>
  </g>
  <g id="ARC-145" data-name="ARC">
    <path class="cls-1" d="m414.06,346.58c.1-.09.16-.22.16-.36"/>
  </g>
  <g id="ARC-146" data-name="ARC">
    <path class="cls-1" d="m418.36,308.76c1.04-.93,1.7-2.2,1.88-3.58"/>
  </g>
  <g id="ARC-147" data-name="ARC">
    <path class="cls-1" d="m6.38,161.18c-2.87,28.1,2.24,56.43,14.72,81.77"/>
  </g>
  <g id="ARC-148" data-name="ARC">
    <path class="cls-1" d="m192.27,5.16c-6.99-1.78-14.25-2.22-21.39-1.3"/>
  </g>
  <g id="ARC-149" data-name="ARC">
    <path class="cls-1" d="m414.23,346.23c1.04-.93,1.7-2.2,1.88-3.58"/>
  </g>
  <g id="ARC-150" data-name="ARC">
    <path class="cls-1" d="m268.31,1.25c-6.07-.19-12.12.65-17.91,2.47"/>
  </g>
  <g id="ARC-151" data-name="ARC">
    <path class="cls-1" d="m465.35,231.95c1.68-6.51,2.89-13.13,3.64-19.82"/>
  </g>
  <g id="ARC-152" data-name="ARC">
    <path class="cls-1" d="m16.97,280.41c.72,1.42,1.86,2.58,3.26,3.33"/>
  </g>
  <g id="ARC-153" data-name="ARC">
    <path class="cls-1" d="m459.87,271.86c.64-.69,1.09-1.53,1.34-2.44"/>
  </g>
  <g id="ARC-154" data-name="ARC">
    <path class="cls-1" d="m192.92,3.62c-.42.4-.65.96-.65,1.54"/>
  </g>
</svg>