<?xml version="1.0" encoding="UTF-8"?>
<svg id="_0" data-name="0" xmlns="http://www.w3.org/2000/svg" viewBox="0 0 243.23 467">
  <defs>
    <style>
      .cls-1 {
        fill: none;
        stroke: #000;
        stroke-linecap: round;
        stroke-linejoin: round;
        stroke-width: 3px;
      }
    </style>
  </defs>
  <g id="LINE">
    <line class="cls-1" x1="157.73" y1="2.09" x2="166.34" y2="2.24"/>
  </g>
  <g id="LINE-2" data-name="LINE">
    <line class="cls-1" x1="157.73" y1="2.09" x2="162.23" y2="1.82"/>
  </g>
  <g id="POINT">
    <line class="cls-1" x1="157.73" y1="2.09" x2="157.73" y2="2.09"/>
  </g>
  <g id="POINT-2" data-name="POINT">
    <line class="cls-1" x1="180.44" y1="363.58" x2="180.44" y2="363.58"/>
  </g>
  <g id="LWPOLYLINE">
    <polyline class="cls-1" points="75.3 58.99 72.61 59.16 69.98 59.74 67.47 60.74 65.14 62.12 63.04 63.85 61.22 65.9 59.73 68.21 58.59 70.73 57.84 73.4 57.5 76.15 57.57 78.94 58.04 81.68 58.92 84.31 60.18 86.78 61.78 89.02 63.69 90.98 65.88 92.62 68.27 93.9 70.83 94.79 73.48 95.26 76.18 95.31 78.84 94.93 81.42 94.13 83.85 92.94 86.07 91.38 88.04 89.49 89.7 87.3 91.01 84.88 91.96 82.28 92.5 79.56 92.64 76.78 92.37 74.01 91.69 71.31 90.62 68.76 89.19 66.39 87.43 64.29 85.37 62.48 83.07 61.02 80.59 59.93 77.98 59.25 75.3 58.99"/>
  </g>
  <g id="LWPOLYLINE-2" data-name="LWPOLYLINE">
    <polyline class="cls-1" points="122.94 59.84 120.25 60 117.62 60.59 115.11 61.59 112.78 62.97 110.68 64.7 108.86 66.74 107.37 69.05 106.24 71.57 105.49 74.24 105.14 77 105.21 79.78 105.69 82.52 106.56 85.16 107.82 87.63 109.42 89.87 111.34 91.83 113.52 93.47 115.92 94.75 118.47 95.63 121.13 96.11 123.82 96.15 126.49 95.78 129.06 94.98 131.49 93.79 133.71 92.23 135.68 90.33 137.34 88.15 138.66 85.73 139.6 83.13 140.15 80.41 140.29 77.63 140.01 74.86 139.33 72.16 138.27 69.6 136.83 67.24 135.07 65.13 133.01 63.33 130.72 61.86 128.23 60.78 125.62 60.1 122.94 59.84"/>
  </g>
  <g id="LWPOLYLINE-3" data-name="LWPOLYLINE">
    <polyline class="cls-1" points="118.14 432.98 120.83 432.81 123.46 432.22 125.97 431.23 128.3 429.85 130.4 428.11 132.22 426.07 133.71 423.76 134.85 421.24 135.59 418.57 135.94 415.81 135.87 413.03 135.39 410.29 134.52 407.66 133.26 405.19 131.66 402.95 129.74 400.98 127.56 399.34 125.16 398.07 122.61 397.18 119.95 396.71 117.26 396.66 114.6 397.04 112.02 397.83 109.59 399.02 107.37 400.58 105.4 402.48 103.74 404.66 102.42 407.08 101.48 409.69 100.93 412.41 100.79 415.19 101.07 417.96 101.75 420.65 102.81 423.21 104.25 425.57 106.01 427.68 108.07 429.49 110.36 430.95 112.85 432.03 115.46 432.71 118.14 432.98"/>
  </g>
  <g id="LWPOLYLINE-4" data-name="LWPOLYLINE">
    <polyline class="cls-1" points="70.5 432.13 73.18 431.96 75.81 431.38 78.32 430.38 80.66 429 82.76 427.27 84.57 425.22 86.07 422.91 87.2 420.39 87.95 417.72 88.29 414.96 88.23 412.18 87.75 409.44 86.87 406.81 85.62 404.34 84.01 402.1 82.1 400.13 79.92 398.49 77.52 397.22 74.97 396.33 72.31 395.86 69.62 395.81 66.95 396.19 64.37 396.98 61.95 398.17 59.72 399.74 57.76 401.63 56.1 403.81 54.78 406.24 53.84 408.84 53.29 411.56 53.15 414.34 53.42 417.11 54.1 419.8 55.17 422.36 56.6 424.72 58.37 426.83 60.42 428.64 62.72 430.1 65.2 431.19 67.82 431.87 70.5 432.13"/>
  </g>
  <g id="LINE-3" data-name="LINE">
    <line class="cls-1" x1="143.76" y1="454.38" x2="145.11" y2="454.3"/>
  </g>
  <g id="LINE-4" data-name="LINE">
    <line class="cls-1" x1="143.76" y1="454.38" x2="143.76" y2="454.27"/>
  </g>
  <g id="LINE-5" data-name="LINE">
    <line class="cls-1" x1="48.57" y1="452.68" x2="143.76" y2="454.38"/>
  </g>
  <g id="LINE-6" data-name="LINE">
    <line class="cls-1" x1="48.57" y1="452.58" x2="48.57" y2="452.68"/>
  </g>
  <g id="LINE-7" data-name="LINE">
    <line class="cls-1" x1="127.72" y1="1.77" x2="182.11" y2="2.74"/>
  </g>
  <g id="LINE-8" data-name="LINE">
    <line class="cls-1" x1="181.82" y1="25.3" x2="182.11" y2="2.74"/>
  </g>
  <g id="LINE-9" data-name="LINE">
    <line class="cls-1" x1="127.43" y1="24.34" x2="127.72" y2="1.77"/>
  </g>
  <g id="LINE-10" data-name="LINE">
    <line class="cls-1" x1="139.81" y1="9.74" x2="169.82" y2="10.27"/>
  </g>
  <g id="LINE-11" data-name="LINE">
    <line class="cls-1" x1="139.81" y1="9.74" x2="139.71" y2="17.65"/>
  </g>
  <g id="LINE-12" data-name="LINE">
    <line class="cls-1" x1="139.71" y1="17.65" x2="169.72" y2="18.19"/>
  </g>
  <g id="LINE-13" data-name="LINE">
    <line class="cls-1" x1="169.82" y1="10.27" x2="169.72" y2="18.19"/>
  </g>
  <g id="LINE-14" data-name="LINE">
    <line class="cls-1" x1="173.18" y1="22.94" x2="173.15" y2="25.15"/>
  </g>
  <g id="LINE-15" data-name="LINE">
    <line class="cls-1" x1="173.18" y1="22.94" x2="136.13" y2="22.28"/>
  </g>
  <g id="LINE-16" data-name="LINE">
    <line class="cls-1" x1="136.13" y1="22.28" x2="136.1" y2="24.49"/>
  </g>
  <g id="LINE-17" data-name="LINE">
    <line class="cls-1" x1="132.25" y1="1.5" x2="127.72" y2="1.77"/>
  </g>
  <g id="LINE-18" data-name="LINE">
    <line class="cls-1" x1="138.11" y1="1.6" x2="132.25" y2="1.5"/>
  </g>
  <g id="LINE-19" data-name="LINE">
    <line class="cls-1" x1="139.22" y1="1.54" x2="138.11" y2="1.6"/>
  </g>
  <g id="LINE-20" data-name="LINE">
    <line class="cls-1" x1="181.89" y1="2.3" x2="139.22" y2="1.54"/>
  </g>
  <g id="LINE-21" data-name="LINE">
    <line class="cls-1" x1="180.79" y1="2.36" x2="181.89" y2="2.3"/>
  </g>
  <g id="LINE-22" data-name="LINE">
    <line class="cls-1" x1="186.65" y1="2.47" x2="180.79" y2="2.36"/>
  </g>
  <g id="LINE-23" data-name="LINE">
    <line class="cls-1" x1="182.11" y1="2.74" x2="186.65" y2="2.47"/>
  </g>
  <g id="LINE-24" data-name="LINE">
    <line class="cls-1" x1="186.35" y1="25.35" x2="186.65" y2="2.47"/>
  </g>
  <g id="LINE-25" data-name="LINE">
    <line class="cls-1" x1="139.71" y1="17.65" x2="145.34" y2="17.32"/>
  </g>
  <g id="LINE-26" data-name="LINE">
    <line class="cls-1" x1="145.34" y1="17.32" x2="169.72" y2="17.75"/>
  </g>
  <g id="LINE-27" data-name="LINE">
    <line class="cls-1" x1="145.44" y1="9.84" x2="145.34" y2="17.32"/>
  </g>
  <g id="LINE-28" data-name="LINE">
    <line class="cls-1" x1="141.76" y1="22.38" x2="141.73" y2="24.59"/>
  </g>
  <g id="LINE-29" data-name="LINE">
    <line class="cls-1" x1="181.89" y1="2.38" x2="181.89" y2="2.3"/>
  </g>
  <g id="LINE-30" data-name="LINE">
    <line class="cls-1" x1="97.47" y1="147.48" x2="75.37" y2="147.08"/>
  </g>
  <g id="LINE-31" data-name="LINE">
    <line class="cls-1" x1="4.71" y1="145.82" x2="4.06" y2="145.81"/>
  </g>
  <g id="LINE-32" data-name="LINE">
    <line class="cls-1" x1="4.06" y1="145.81" x2="4.55" y2="145.78"/>
  </g>
  <g id="LINE-33" data-name="LINE">
    <line class="cls-1" x1="97.47" y1="147.44" x2="75.86" y2="147.05"/>
  </g>
  <g id="LINE-34" data-name="LINE">
    <line class="cls-1" x1="4.71" y1="145.79" x2="4.55" y2="145.78"/>
  </g>
  <g id="LINE-35" data-name="LINE">
    <line class="cls-1" x1="160.94" y1="347.33" x2="161.43" y2="347.31"/>
  </g>
  <g id="LINE-36" data-name="LINE">
    <line class="cls-1" x1="160.94" y1="347.33" x2="163.49" y2="148.75"/>
  </g>
  <g id="LINE-37" data-name="LINE">
    <line class="cls-1" x1="161.43" y1="347.31" x2="163.98" y2="148.76"/>
  </g>
  <g id="LINE-38" data-name="LINE">
    <line class="cls-1" x1="1.5" y1="344.5" x2="42.51" y2="345.23"/>
  </g>
  <g id="LINE-39" data-name="LINE">
    <line class="cls-1" x1="62.09" y1="345.57" x2="106.09" y2="346.36"/>
  </g>
  <g id="LINE-40" data-name="LINE">
    <line class="cls-1" x1="125.68" y1="346.71" x2="160.94" y2="347.33"/>
  </g>
  <g id="LINE-41" data-name="LINE">
    <line class="cls-1" x1="4.06" y1="145.81" x2="1.5" y2="344.5"/>
  </g>
  <g id="LINE-42" data-name="LINE">
    <line class="cls-1" x1="71.69" y1="33.5" x2="71.64" y2="37.94"/>
  </g>
  <g id="LINE-43" data-name="LINE">
    <line class="cls-1" x1="149.55" y1="34.89" x2="71.69" y2="33.5"/>
  </g>
  <g id="LINE-44" data-name="LINE">
    <line class="cls-1" x1="71.69" y1="33.5" x2="73.66" y2="33.38"/>
  </g>
  <g id="LINE-45" data-name="LINE">
    <line class="cls-1" x1="149.55" y1="34.73" x2="73.66" y2="33.38"/>
  </g>
  <g id="LINE-46" data-name="LINE">
    <line class="cls-1" x1="72.65" y1="32.99" x2="72.64" y2="33.44"/>
  </g>
  <g id="LINE-47" data-name="LINE">
    <line class="cls-1" x1="79.68" y1="33.49" x2="79.69" y2="32.6"/>
  </g>
  <g id="LINE-48" data-name="LINE">
    <line class="cls-1" x1="107.81" y1="33.99" x2="107.83" y2="32.7"/>
  </g>
  <g id="LINE-49" data-name="LINE">
    <line class="cls-1" x1="149.57" y1="33.44" x2="107.83" y2="32.7"/>
  </g>
  <g id="LINE-50" data-name="LINE">
    <line class="cls-1" x1="110.28" y1="32.55" x2="107.83" y2="32.7"/>
  </g>
  <g id="LINE-51" data-name="LINE">
    <line class="cls-1" x1="87.7" y1="32.15" x2="110.28" y2="32.55"/>
  </g>
  <g id="LINE-52" data-name="LINE">
    <line class="cls-1" x1="81.4" y1="33.52" x2="81.93" y2="32.47"/>
  </g>
  <g id="LINE-53" data-name="LINE">
    <line class="cls-1" x1="180.96" y1="29.37" x2="179.56" y2="138.4"/>
  </g>
  <g id="LINE-54" data-name="LINE">
    <line class="cls-1" x1="241.73" y1="25.9" x2="180.96" y2="29.37"/>
  </g>
  <g id="LINE-55" data-name="LINE">
    <line class="cls-1" x1="241.73" y1="25.9" x2="240.13" y2="149.76"/>
  </g>
  <g id="LINE-56" data-name="LINE">
    <line class="cls-1" x1="233.52" y1="152.27" x2="240.13" y2="149.76"/>
  </g>
  <g id="LINE-57" data-name="LINE">
    <line class="cls-1" x1="231.15" y1="336.41" x2="233.52" y2="152.27"/>
  </g>
  <g id="LINE-58" data-name="LINE">
    <line class="cls-1" x1="231.15" y1="336.41" x2="237.71" y2="338.17"/>
  </g>
  <g id="LINE-59" data-name="LINE">
    <line class="cls-1" x1="236.12" y1="462.03" x2="237.71" y2="338.17"/>
  </g>
  <g id="LINE-60" data-name="LINE">
    <line class="cls-1" x1="236.12" y1="462.03" x2="175.35" y2="465.5"/>
  </g>
  <g id="LINE-61" data-name="LINE">
    <line class="cls-1" x1="175.35" y1="465.5" x2="176.75" y2="356.47"/>
  </g>
  <g id="LINE-62" data-name="LINE">
    <line class="cls-1" x1="176.75" y1="356.47" x2="164.09" y2="357.19"/>
  </g>
  <g id="LINE-63" data-name="LINE">
    <line class="cls-1" x1="164.09" y1="357.19" x2="164.22" y2="347.5"/>
  </g>
  <g id="LINE-64" data-name="LINE">
    <line class="cls-1" x1="164.22" y1="347.5" x2="166.12" y2="347.39"/>
  </g>
  <g id="LINE-65" data-name="LINE">
    <line class="cls-1" x1="168.67" y1="148.7" x2="166.12" y2="347.39"/>
  </g>
  <g id="LINE-66" data-name="LINE">
    <line class="cls-1" x1="166.77" y1="148.81" x2="168.67" y2="148.7"/>
  </g>
  <g id="LINE-67" data-name="LINE">
    <line class="cls-1" x1="166.9" y1="139.12" x2="166.77" y2="148.81"/>
  </g>
  <g id="LINE-68" data-name="LINE">
    <line class="cls-1" x1="179.56" y1="138.4" x2="166.9" y2="139.12"/>
  </g>
  <g id="LINE-69" data-name="LINE">
    <line class="cls-1" x1="4.83" y1="136.24" x2="166.9" y2="139.12"/>
  </g>
  <g id="LINE-70" data-name="LINE">
    <line class="cls-1" x1="16.69" y1="135.5" x2="4.83" y2="136.24"/>
  </g>
  <g id="LINE-71" data-name="LINE">
    <line class="cls-1" x1="16.69" y1="135.5" x2="179.56" y2="138.4"/>
  </g>
  <g id="LINE-72" data-name="LINE">
    <line class="cls-1" x1="74.02" y1="147.16" x2="74.06" y2="143.53"/>
  </g>
  <g id="LINE-73" data-name="LINE">
    <line class="cls-1" x1="74.02" y1="147.16" x2="4.71" y2="145.93"/>
  </g>
  <g id="LINE-74" data-name="LINE">
    <line class="cls-1" x1="4.83" y1="136.24" x2="4.71" y2="145.93"/>
  </g>
  <g id="LINE-75" data-name="LINE">
    <line class="cls-1" x1="97.46" y1="147.58" x2="166.77" y2="148.81"/>
  </g>
  <g id="LINE-76" data-name="LINE">
    <line class="cls-1" x1="97.46" y1="147.58" x2="97.51" y2="143.94"/>
  </g>
  <g id="LINE-77" data-name="LINE">
    <line class="cls-1" x1="97.51" y1="143.94" x2="74.06" y2="143.53"/>
  </g>
  <g id="LINE-78" data-name="LINE">
    <line class="cls-1" x1="96.26" y1="346.18" x2="94.91" y2="346.26"/>
  </g>
  <g id="LINE-79" data-name="LINE">
    <line class="cls-1" x1="161.43" y1="347.31" x2="166.12" y2="347.39"/>
  </g>
  <g id="LINE-80" data-name="LINE">
    <line class="cls-1" x1="94.91" y1="346.26" x2="164.22" y2="347.5"/>
  </g>
  <g id="LINE-81" data-name="LINE">
    <line class="cls-1" x1="124.82" y1="346.76" x2="125.68" y2="346.71"/>
  </g>
  <g id="LINE-82" data-name="LINE">
    <line class="cls-1" x1="124.82" y1="346.76" x2="106.07" y2="346.43"/>
  </g>
  <g id="LINE-83" data-name="LINE">
    <line class="cls-1" x1="94.91" y1="346.26" x2="94.86" y2="349.9"/>
  </g>
  <g id="LINE-84" data-name="LINE">
    <line class="cls-1" x1="2.03" y1="354.3" x2="164.09" y2="357.19"/>
  </g>
  <g id="LINE-85" data-name="LINE">
    <line class="cls-1" x1="2.03" y1="354.3" x2="2.15" y2="344.61"/>
  </g>
  <g id="LINE-86" data-name="LINE">
    <line class="cls-1" x1="71.46" y1="345.85" x2="2.15" y2="344.61"/>
  </g>
  <g id="LINE-87" data-name="LINE">
    <line class="cls-1" x1="71.46" y1="345.85" x2="71.42" y2="349.48"/>
  </g>
  <g id="LINE-88" data-name="LINE">
    <line class="cls-1" x1="94.86" y1="349.9" x2="71.42" y2="349.48"/>
  </g>
  <g id="LINE-89" data-name="LINE">
    <line class="cls-1" x1="128.24" y1="148.13" x2="128.21" y2="149.72"/>
  </g>
  <g id="LINE-90" data-name="LINE">
    <line class="cls-1" x1="128.21" y1="149.72" x2="128.03" y2="149.73"/>
  </g>
  <g id="LINE-91" data-name="LINE">
    <line class="cls-1" x1="128.03" y1="149.73" x2="127.39" y2="148.11"/>
  </g>
  <g id="LINE-92" data-name="LINE">
    <line class="cls-1" x1="128.03" y1="149.73" x2="109.27" y2="149.4"/>
  </g>
  <g id="LINE-93" data-name="LINE">
    <line class="cls-1" x1="109.27" y1="149.4" x2="108.64" y2="147.78"/>
  </g>
  <g id="LINE-94" data-name="LINE">
    <line class="cls-1" x1="94.88" y1="348.54" x2="73.27" y2="348.16"/>
  </g>
  <g id="LINE-95" data-name="LINE">
    <line class="cls-1" x1="73.28" y1="347.21" x2="94.89" y2="347.6"/>
  </g>
  <g id="LINE-96" data-name="LINE">
    <line class="cls-1" x1="125.52" y1="345.02" x2="124.82" y2="346.76"/>
  </g>
  <g id="LINE-97" data-name="LINE">
    <line class="cls-1" x1="125.7" y1="345.01" x2="125.52" y2="345.02"/>
  </g>
  <g id="LINE-98" data-name="LINE">
    <line class="cls-1" x1="125.68" y1="346.71" x2="125.7" y2="345.01"/>
  </g>
  <g id="LINE-99" data-name="LINE">
    <line class="cls-1" x1="125.52" y1="345.02" x2="106.76" y2="344.69"/>
  </g>
  <g id="LINE-100" data-name="LINE">
    <line class="cls-1" x1="106.76" y1="344.69" x2="106.07" y2="346.43"/>
  </g>
  <g id="LINE-101" data-name="LINE">
    <line class="cls-1" x1="125.7" y1="345.01" x2="106.95" y2="344.68"/>
  </g>
  <g id="LINE-102" data-name="LINE">
    <line class="cls-1" x1="106.95" y1="344.68" x2="106.76" y2="344.69"/>
  </g>
  <g id="LINE-103" data-name="LINE">
    <line class="cls-1" x1="73.25" y1="349.37" x2="71.42" y2="349.48"/>
  </g>
  <g id="LINE-104" data-name="LINE">
    <line class="cls-1" x1="94.86" y1="349.76" x2="73.25" y2="349.37"/>
  </g>
  <g id="LINE-105" data-name="LINE">
    <line class="cls-1" x1="75.86" y1="147.05" x2="75.9" y2="143.56"/>
  </g>
  <g id="LINE-106" data-name="LINE">
    <line class="cls-1" x1="75.86" y1="147.05" x2="74.02" y2="147.16"/>
  </g>
  <g id="LINE-107" data-name="LINE">
    <line class="cls-1" x1="97.5" y1="145.01" x2="75.89" y2="144.63"/>
  </g>
  <g id="LINE-108" data-name="LINE">
    <line class="cls-1" x1="2.15" y1="344.61" x2="3.46" y2="344.53"/>
  </g>
  <g id="LINE-109" data-name="LINE">
    <line class="cls-1" x1="72.81" y1="345.77" x2="71.46" y2="345.85"/>
  </g>
  <g id="LINE-110" data-name="LINE">
    <line class="cls-1" x1="61.24" y1="345.63" x2="62.09" y2="345.58"/>
  </g>
  <g id="LINE-111" data-name="LINE">
    <line class="cls-1" x1="42.48" y1="345.29" x2="61.24" y2="345.63"/>
  </g>
  <g id="LINE-112" data-name="LINE">
    <line class="cls-1" x1="73.3" y1="345.77" x2="73.25" y2="349.37"/>
  </g>
  <g id="LINE-113" data-name="LINE">
    <line class="cls-1" x1="64.65" y1="147" x2="64.63" y2="148.59"/>
  </g>
  <g id="LINE-114" data-name="LINE">
    <line class="cls-1" x1="64.63" y1="148.59" x2="64.44" y2="148.6"/>
  </g>
  <g id="LINE-115" data-name="LINE">
    <line class="cls-1" x1="64.44" y1="148.6" x2="63.81" y2="146.98"/>
  </g>
  <g id="LINE-116" data-name="LINE">
    <line class="cls-1" x1="45.69" y1="148.27" x2="64.44" y2="148.6"/>
  </g>
  <g id="LINE-117" data-name="LINE">
    <line class="cls-1" x1="45.69" y1="148.27" x2="45.05" y2="146.65"/>
  </g>
  <g id="LINE-118" data-name="LINE">
    <line class="cls-1" x1="61.93" y1="343.89" x2="61.24" y2="345.63"/>
  </g>
  <g id="LINE-119" data-name="LINE">
    <line class="cls-1" x1="62.12" y1="343.88" x2="61.93" y2="343.89"/>
  </g>
  <g id="LINE-120" data-name="LINE">
    <line class="cls-1" x1="62.09" y1="345.58" x2="62.12" y2="343.88"/>
  </g>
  <g id="LINE-121" data-name="LINE">
    <line class="cls-1" x1="43.17" y1="343.56" x2="42.48" y2="345.29"/>
  </g>
  <g id="LINE-122" data-name="LINE">
    <line class="cls-1" x1="43.17" y1="343.56" x2="61.93" y2="343.89"/>
  </g>
  <g id="LINE-123" data-name="LINE">
    <line class="cls-1" x1="43.36" y1="343.55" x2="43.17" y2="343.56"/>
  </g>
  <g id="LINE-124" data-name="LINE">
    <line class="cls-1" x1="43.36" y1="343.55" x2="62.12" y2="343.88"/>
  </g>
  <g id="LINE-125" data-name="LINE">
    <line class="cls-1" x1="149.63" y1="28.81" x2="180.96" y2="29.37"/>
  </g>
  <g id="LINE-126" data-name="LINE">
    <line class="cls-1" x1="149.63" y1="28.81" x2="184.5" y2="26.58"/>
  </g>
  <g id="LINE-127" data-name="LINE">
    <line class="cls-1" x1="184.5" y1="26.58" x2="88.08" y2="24.87"/>
  </g>
  <g id="LINE-128" data-name="LINE">
    <line class="cls-1" x1="49.42" y1="27.02" x2="88.08" y2="24.87"/>
  </g>
  <g id="LINE-129" data-name="LINE">
    <line class="cls-1" x1="49.42" y1="27.02" x2="18.09" y2="26.47"/>
  </g>
  <g id="LINE-130" data-name="LINE">
    <line class="cls-1" x1="74.97" y1="22.93" x2="122.48" y2="23.77"/>
  </g>
  <g id="LINE-131" data-name="LINE">
    <line class="cls-1" x1="122.48" y1="23.77" x2="118.69" y2="24.18"/>
  </g>
  <g id="LINE-132" data-name="LINE">
    <line class="cls-1" x1="118.69" y1="24.18" x2="185.75" y2="25.37"/>
  </g>
  <g id="LINE-133" data-name="LINE">
    <line class="cls-1" x1="185.75" y1="25.37" x2="194.22" y2="25.05"/>
  </g>
  <g id="LINE-134" data-name="LINE">
    <line class="cls-1" x1="194.22" y1="25.05" x2="241.73" y2="25.9"/>
  </g>
  <g id="LINE-135" data-name="LINE">
    <line class="cls-1" x1="74.97" y1="22.93" x2="18.09" y2="26.47"/>
  </g>
  <g id="LINE-136" data-name="LINE">
    <line class="cls-1" x1="164.99" y1="36.35" x2="149.54" y2="36.08"/>
  </g>
  <g id="LINE-137" data-name="LINE">
    <line class="cls-1" x1="149.63" y1="28.81" x2="149.54" y2="36.08"/>
  </g>
  <g id="LINE-138" data-name="LINE">
    <line class="cls-1" x1="49.42" y1="27.02" x2="49.32" y2="34.29"/>
  </g>
  <g id="LINE-139" data-name="LINE">
    <line class="cls-1" x1="33.87" y1="34.02" x2="49.32" y2="34.29"/>
  </g>
  <g id="LINE-140" data-name="LINE">
    <line class="cls-1" x1="33.83" y1="37.41" x2="33.87" y2="34.02"/>
  </g>
  <g id="LINE-141" data-name="LINE">
    <line class="cls-1" x1="33.83" y1="37.41" x2="164.94" y2="39.74"/>
  </g>
  <g id="LINE-142" data-name="LINE">
    <line class="cls-1" x1="164.94" y1="39.74" x2="164.99" y2="36.35"/>
  </g>
  <g id="LINE-143" data-name="LINE">
    <line class="cls-1" x1="18.09" y1="26.47" x2="16.69" y2="135.5"/>
  </g>
  <g id="LINE-144" data-name="LINE">
    <line class="cls-1" x1="60.72" y1="452.9" x2="30.3" y2="454.79"/>
  </g>
  <g id="LINE-145" data-name="LINE">
    <line class="cls-1" x1="33.83" y1="37.41" x2="35.67" y2="37.3"/>
  </g>
  <g id="LINE-146" data-name="LINE">
    <line class="cls-1" x1="164.94" y1="39.6" x2="35.67" y2="37.3"/>
  </g>
  <g id="LINE-147" data-name="LINE">
    <line class="cls-1" x1="28.49" y1="452.22" x2="159.61" y2="454.56"/>
  </g>
  <g id="LINE-148" data-name="LINE">
    <line class="cls-1" x1="28.49" y1="452.22" x2="28.45" y2="455.61"/>
  </g>
  <g id="LINE-149" data-name="LINE">
    <line class="cls-1" x1="28.45" y1="455.61" x2="43.9" y2="455.89"/>
  </g>
  <g id="LINE-150" data-name="LINE">
    <line class="cls-1" x1="43.81" y1="463.16" x2="43.9" y2="455.89"/>
  </g>
  <g id="LINE-151" data-name="LINE">
    <line class="cls-1" x1="43.81" y1="463.16" x2="12.48" y2="462.6"/>
  </g>
  <g id="LINE-152" data-name="LINE">
    <line class="cls-1" x1="144.02" y1="464.94" x2="175.35" y2="465.5"/>
  </g>
  <g id="LINE-153" data-name="LINE">
    <line class="cls-1" x1="144.02" y1="464.94" x2="144.11" y2="457.67"/>
  </g>
  <g id="LINE-154" data-name="LINE">
    <line class="cls-1" x1="159.56" y1="457.95" x2="144.11" y2="457.67"/>
  </g>
  <g id="LINE-155" data-name="LINE">
    <line class="cls-1" x1="159.61" y1="454.56" x2="159.56" y2="457.95"/>
  </g>
  <g id="LINE-156" data-name="LINE">
    <line class="cls-1" x1="12.48" y1="462.6" x2="13.87" y2="354.51"/>
  </g>
  <g id="LINE-157" data-name="LINE">
    <line class="cls-1" x1="144.11" y1="457.67" x2="159.58" y2="456.69"/>
  </g>
  <g id="LINE-158" data-name="LINE">
    <line class="cls-1" x1="159.6" y1="455.11" x2="82.57" y2="453.73"/>
  </g>
  <g id="LINE-159" data-name="LINE">
    <line class="cls-1" x1="43.9" y1="455.89" x2="82.57" y2="453.73"/>
  </g>
  <g id="LINE-160" data-name="LINE">
    <line class="cls-1" x1="28.45" y1="455.61" x2="30.29" y2="455.5"/>
  </g>
  <g id="LINE-161" data-name="LINE">
    <line class="cls-1" x1="87.99" y1="32.14" x2="88.08" y2="24.87"/>
  </g>
  <g id="LINE-162" data-name="LINE">
    <line class="cls-1" x1="49.32" y1="34.29" x2="87.99" y2="32.14"/>
  </g>
  <g id="LINE-163" data-name="LINE">
    <line class="cls-1" x1="35.71" y1="34.05" x2="35.67" y2="37.3"/>
  </g>
  <g id="LINE-164" data-name="LINE">
    <line class="cls-1" x1="82.57" y1="453.73" x2="82.47" y2="461"/>
  </g>
  <g id="LINE-165" data-name="LINE">
    <line class="cls-1" x1="43.81" y1="463.16" x2="82.47" y2="461"/>
  </g>
  <g id="LINE-166" data-name="LINE">
    <line class="cls-1" x1="30.29" y1="455.5" x2="30.33" y2="452.25"/>
  </g>
  <g id="LINE-167" data-name="LINE">
    <line class="cls-1" x1="149.57" y1="33.23" x2="87.99" y2="32.14"/>
  </g>
  <g id="LINE-168" data-name="LINE">
    <line class="cls-1" x1="144.06" y1="462.1" x2="82.47" y2="461"/>
  </g>
  <g id="LINE-169" data-name="LINE">
    <line class="cls-1" x1="122.47" y1="24.25" x2="122.48" y2="23.77"/>
  </g>
  <g id="ARC">
    <path class="cls-1" d="m122.55,59.84c-9.96,1.38-16.92,10.57-15.54,20.53,1.23,8.88,8.74,15.54,17.7,15.71"/>
  </g>
  <g id="ARC-2" data-name="ARC">
    <path class="cls-1" d="m118.21,396.63c-9.96,1.38-16.92,10.57-15.54,20.53,1.23,8.88,8.74,15.54,17.7,15.71"/>
  </g>
  <g id="ARC-3" data-name="ARC">
    <path class="cls-1" d="m70.57,395.78c-9.96,1.38-16.92,10.57-15.54,20.53,1.23,8.88,8.74,15.54,17.7,15.71"/>
  </g>
</svg>