<?xml version="1.0" encoding="utf-8"?>
<!-- Generator: Adobe Illustrator 27.1.1, SVG Export Plug-In . SVG Version: 6.00 Build 0)  -->
<svg version="1.1" id="Layer_1" xmlns="http://www.w3.org/2000/svg" xmlns:xlink="http://www.w3.org/1999/xlink" x="0px" y="0px"
	 viewBox="0 0 300 300" style="enable-background:new 0 0 300 300;" xml:space="preserve">
<path d="M243.26,149.92c-5.4,0-10.6,0-15.99,0c0-9.84,0-19.6,0-29.35c-0.16-0.09-0.33-0.19-0.49-0.28
	c-1.38,1.53-2.79,3.01-4.12,4.58c-3.21,3.81-6.37,7.67-9.58,11.49c-1.34,1.59-3.1,1.7-4.53,0.09c-3-3.38-5.88-6.86-8.79-10.31
	c-1.71-2.03-3.37-4.1-5.4-6.58c0,10.4,0,20.29,0,30.32c-5.49,0-10.74,0-16.17,0c0-18.58,0-37.16,0-56.11
	c4.35,0,8.82-0.19,13.24,0.13c1.12,0.08,2.22,1.7,3.15,2.77c5.35,6.24,10.65,12.52,16.09,18.94c2.65-2.96,5.2-5.75,7.68-8.61
	c2.49-2.87,5.22-5.6,7.27-8.76c2.74-4.23,6.47-5.04,11.02-4.55c2.13,0.23,4.31,0.04,6.61,0.04
	C243.26,112.56,243.26,131.24,243.26,149.92z"/>
<path d="M108.46,101.47c-3.09,4.27-6.03,8.33-9.02,12.46c-4.23-3.37-8.75-5.51-14.01-5.3c-5.03,0.2-8.97,2.51-11.15,7.14
	c-2.03,4.3-1.76,8.52,0.47,12.89c3.52,6.9,12.8,7.28,19.05,4.51c1.92-0.85,3.63-2.16,5.74-3.44c2.88,3.98,5.8,8.02,8.78,12.15
	c-4.32,4.24-9.33,6.91-14.97,7.98c-8.91,1.69-17.51,0.75-25.26-4.5c-7.16-4.86-10.91-11.64-11.97-20.22
	c-0.92-7.43,0.78-14.09,4.94-20.14c4.12-6,9.97-9.69,17.01-11.23c10.8-2.36,20.68-0.39,29.21,6.98
	C107.51,100.97,107.81,101.09,108.46,101.47z"/>
<path d="M134.31,107.59c-5.54,0-10.64,0-15.87,0c0-4.64,0-9.1,0-13.71c15.89,0,31.73,0,47.77,0c0,4.45,0,8.96,0,13.66
	c-5.12,0-10.22,0-15.59,0c0,14.17,0,28.16,0,42.3c-5.52,0-10.78,0-16.31,0C134.31,135.93,134.31,121.94,134.31,107.59z"/>
<path d="M181.91,198.93c0-10.03,0-19.4,0-28.94c2.97,0,5.82,0,8.86,0c0,14.54,0,29.16,0,44.06c-2.36,0-4.88,0.48-7.07-0.16
	c-1.57-0.46-2.81-2.34-4.01-3.75c-4-4.7-7.92-9.46-11.86-14.2c-2.91-3.51-5.81-7.03-9.01-10.91c0,9.83,0,19.23,0,28.83
	c-3.27,0-6.34,0-9.55,0c0-14.55,0-29.12,0-44.02c2.57,0,5.2-0.15,7.79,0.09c0.84,0.08,1.7,1.09,2.34,1.86
	c4.68,5.57,9.31,11.18,13.95,16.78C176.08,191.84,178.77,195.13,181.91,198.93z"/>
<path d="M234.38,195.79c-3.93,0-7.59,0-11.4,0c0-2.72,0-5.24,0-7.96c6.87,0,13.79,0,20.96,0c0,6.52,0.05,12.99-0.07,19.46
	c-0.01,0.76-0.79,1.83-1.51,2.22c-8.39,4.6-17.2,6.73-26.59,3.55c-8.11-2.75-14.33-10.79-14.21-19.64
	c0.06-4.58,0.24-9.06,2.52-13.12c3.88-6.89,10.05-10.29,17.77-10.93c5.85-0.48,11.58,0.08,16.72,3.32c1.18,0.74,2.34,1.51,3.68,2.36
	c-1.51,2.51-2.92,4.85-4.14,6.87c-3.25-1.27-6.27-2.82-9.47-3.62c-5.13-1.28-10.17-0.24-13.78,3.65c-3.96,4.27-4.79,9.63-2.72,15.22
	c2.01,5.43,6.11,7.88,11.74,8.32c3.19,0.25,6.24,0,9.05-1.55c0.66-0.36,1.3-1.31,1.37-2.05
	C234.51,200.01,234.38,198.07,234.38,195.79z"/>
<path d="M141.22,169.83c-2.11,3.25-3.94,6.14-5.83,9c-3.57,5.38-7.21,10.7-10.71,16.12c-0.64,0.99-1.06,2.31-1.09,3.49
	c-0.12,5.11-0.05,10.23-0.05,15.49c-3.19,0-6.2,0-9.56,0c0-3.39-0.29-6.83,0.07-10.21c0.56-5.37-1.15-9.72-4.32-14.01
	c-4.39-5.93-8.23-12.28-12.29-18.46c-0.2-0.3-0.23-0.71-0.44-1.41c3.47,0,6.71-0.05,9.95,0.05c0.44,0.01,0.97,0.67,1.28,1.15
	c3.2,4.86,6.35,9.75,9.53,14.62c0.34,0.52,0.76,0.98,1.29,1.64c3.32-5.21,6.6-10.2,9.69-15.31c0.91-1.5,1.76-2.33,3.63-2.22
	C135.14,169.95,137.93,169.83,141.22,169.83z"/>
<path d="M63.59,169.9c3.14,0,6.1,0,9.31,0c0,11.81,0,23.54,0,35.46c7.61,0,14.95,0,22.5,0c0,2.92,0,5.67,0,8.56
	c-10.54,0-21.08,0-31.81,0C63.59,199.34,63.59,184.72,63.59,169.9z"/>
</svg>
