<?xml version="1.0" encoding="UTF-8"?>
<svg id="_0" data-name="0" xmlns="http://www.w3.org/2000/svg" viewBox="0 0 411 327.43">
  <defs>
    <style>
      .cls-1 {
        fill: none;
        stroke: #000;
        stroke-linecap: round;
        stroke-linejoin: round;
        stroke-width: 3px;
      }
    </style>
  </defs>
  <g id="LWPOLYLINE">
    <polyline class="cls-1" points="59.22 37.57 59.09 35.18 58.83 32.84 58.46 30.61 57.99 28.53 57.42 26.66 56.78 25.05 56.08 23.74 55.33 22.75 54.56 22.11 53.78 21.84"/>
  </g>
  <g id="LWPOLYLINE-2" data-name="LWPOLYLINE">
    <polyline class="cls-1" points="314.54 295.3 319.39 294.89 324.21 294.13 328.98 293.03 333.66 291.59 338.25 289.83 342.72 287.74 347.05 285.34 351.22 282.64 355.2 279.65 359 276.39 362.58 272.86 365.92 269.09 369.03 265.1 371.87 260.89 374.44 256.49 376.72 251.93 378.71 247.21 380.4 242.37 381.77 237.42 382.83 232.39 383.56 227.3 383.97 222.17 384.04 217.03 383.79 211.9 383.22 206.81 382.31 201.77 381.09 196.81 379.55 191.95 377.71 187.22 375.56 182.64 373.12 178.22 370.41 173.99 367.43 169.96 364.2 166.16 360.73 162.61 357.03 159.31 353.13 156.28 349.05 153.55 344.79 151.11 340.39 148.98 335.86 147.18 331.21 145.7 326.49 144.56 321.69 143.76 316.85 143.31 311.99 143.2 307.13 143.44 302.29 144.02 297.5 144.95 292.77 146.22 288.13 147.82 283.6 149.75 279.2 151.99 274.95 154.54 270.87 157.39 266.97 160.52 263.28 163.91 259.82 167.56 256.59 171.45 253.62 175.56 250.91 179.86 248.48 184.34 246.34 188.99 244.51 193.77 242.98 198.66 241.76 203.66 240.87 208.72 240.3 213.83 240.05 218.97 240.14 224.11 240.55 229.22 241.3 234.29 242.36 239.29 243.74 244.2 245.43 249 247.43 253.66 249.72 258.17 252.3 262.49 255.15 266.62 258.26 270.54 261.61 274.22 265.19 277.65 268.99 280.81 272.99 283.69 277.16 286.28 281.49 288.57 285.96 290.53 290.55 292.17 295.24 293.48 300.01 294.45 304.83 295.08 309.68 295.36 314.54 295.3"/>
  </g>
  <g id="LWPOLYLINE-3" data-name="LWPOLYLINE">
    <polyline class="cls-1" points="152.63 303.25 157.48 302.84 162.3 302.08 167.06 300.99 171.75 299.55 176.34 297.79 180.8 295.7 185.13 293.3 189.3 290.6 193.29 287.61 197.08 284.34 200.66 280.82 204.01 277.05 207.11 273.05 209.95 268.85 212.52 264.45 214.81 259.88 216.8 255.17 218.48 250.33 219.86 245.38 220.91 240.35 221.64 235.26 222.05 230.13 222.13 224.99 221.88 219.86 221.3 214.76 220.4 209.73 219.18 204.77 217.64 199.91 215.79 195.18 213.65 190.59 211.21 186.17 208.5 181.94 205.52 177.92 202.28 174.12 198.81 170.56 195.12 167.26 191.22 164.24 187.13 161.5 182.88 159.07 178.48 156.94 173.94 155.13 169.3 153.66 164.57 152.52 159.78 151.72 154.94 151.26 150.08 151.15 145.21 151.39 140.38 151.98 135.58 152.91 130.85 154.17 126.21 155.78 121.68 157.7 117.28 159.95 113.03 162.5 108.95 165.34 105.06 168.47 101.37 171.87 97.9 175.52 94.68 179.41 91.7 183.51 89 187.82 86.57 192.3 84.43 196.94 82.59 201.72 81.06 206.62 79.85 211.61 78.95 216.68 78.38 221.79 78.14 226.92 78.23 232.06 78.64 237.18 79.38 242.25 80.44 247.25 81.83 252.16 83.52 256.96 85.52 261.62 87.81 266.12 90.38 270.45 93.23 274.58 96.34 278.49 99.69 282.17 103.28 285.6 107.08 288.77 111.07 291.65 115.24 294.24 119.58 296.52 124.05 298.49 128.64 300.13 133.33 301.44 138.09 302.41 142.91 303.04 147.76 303.32 152.63 303.25"/>
  </g>
  <g id="LWPOLYLINE-4" data-name="LWPOLYLINE">
    <polyline class="cls-1" points="132.88 301.33 134.07 301.28 138.92 300.87 143.74 300.11 148.5 299.02 153.19 297.58 157.78 295.82 162.24 293.73 166.57 291.33 170.74 288.63 174.73 285.64 178.52 282.37 182.1 278.85 185.45 275.08 188.55 271.08 191.39 266.87 193.96 262.48 196.25 257.91 198.24 253.2 199.92 248.35 201.3 243.41 202.35 238.38 203.08 233.29 203.49 228.16 203.57 223.02 203.32 217.89 202.74 212.79 201.84 207.75 200.61 202.8 199.08 197.94 197.23 193.21 195.08 188.62 192.65 184.2 189.94 179.97 186.95 175.95 183.72 172.15 180.25 168.59 176.56 165.29 172.66 162.27 168.57 159.53 164.32 157.09 159.91 154.97 155.38 153.16 150.74 151.69 148.83 151.18"/>
  </g>
  <g id="LWPOLYLINE-5" data-name="LWPOLYLINE">
    <polyline class="cls-1" points="130.33 187.27 132.08 187 133.75 186.37 135.27 185.42 136.6 184.17 137.67 182.68 138.45 180.99 138.9 179.18 139.01 177.32 138.78 175.48 138.21 173.72 137.32 172.12 136.16 170.73 134.76 169.62 133.17 168.82 131.47 168.36 129.71 168.26 127.96 168.53 126.29 169.16 124.76 170.11 123.44 171.36 122.36 172.85 121.59 174.54 121.13 176.34 121.02 178.21 121.26 180.05 121.83 181.81 122.71 183.41 123.88 184.8 125.28 185.91 126.86 186.71 128.57 187.17 130.33 187.27"/>
  </g>
  <g id="LWPOLYLINE-6" data-name="LWPOLYLINE">
    <polyline class="cls-1" points="133.44 282.28 135.19 282.01 136.86 281.39 138.39 280.43 139.71 279.18 140.78 277.69 141.56 276.01 142.02 274.2 142.13 272.34 141.89 270.49 141.32 268.73 140.44 267.13 139.27 265.75 137.87 264.63 136.29 263.83 134.58 263.37 132.82 263.28 131.07 263.55 129.4 264.17 127.88 265.12 126.55 266.37 125.48 267.87 124.7 269.55 124.25 271.36 124.14 273.22 124.37 275.07 124.94 276.82 125.83 278.42 126.99 279.81 128.39 280.92 129.98 281.73 131.68 282.18 133.44 282.28"/>
  </g>
  <g id="LWPOLYLINE-7" data-name="LWPOLYLINE">
    <polyline class="cls-1" points="294.8 293.37 295.98 293.33 300.83 292.91 305.65 292.16 310.42 291.06 315.1 289.62 319.69 287.86 324.16 285.77 328.49 283.37 332.65 280.67 336.64 277.68 340.44 274.42 344.02 270.89 347.36 267.12 350.47 263.12 353.31 258.92 355.88 254.52 358.16 249.96 360.15 245.24 361.84 240.4 363.21 235.45 364.27 230.42 365 225.33 365.4 220.2 365.48 215.06 365.23 209.93 364.65 204.84 363.75 199.8 362.53 194.84 360.99 189.98 359.15 185.25 357 180.67 354.56 176.25 351.85 172.02 348.87 167.99 345.64 164.19 342.17 160.64 338.47 157.34 334.57 154.31 330.49 151.58 326.23 149.14 321.83 147.01 317.3 145.21 312.65 143.73 310.74 143.23"/>
  </g>
  <g id="LWPOLYLINE-8" data-name="LWPOLYLINE">
    <polyline class="cls-1" points="295.36 274.32 297.11 274.06 298.78 273.43 300.3 272.48 301.63 271.23 302.7 269.73 303.48 268.05 303.93 266.24 304.04 264.38 303.81 262.54 303.24 260.78 302.35 259.18 301.19 257.79 299.79 256.68 298.2 255.88 296.5 255.42 294.74 255.32 292.99 255.59 291.32 256.21 289.79 257.17 288.47 258.42 287.39 259.91 286.62 261.59 286.16 263.4 286.05 265.26 286.29 267.11 286.86 268.87 287.74 270.47 288.91 271.85 290.31 272.97 291.89 273.77 293.6 274.23 295.36 274.32"/>
  </g>
  <g id="LWPOLYLINE-9" data-name="LWPOLYLINE">
    <polyline class="cls-1" points="292.24 179.31 293.99 179.04 295.66 178.42 297.19 177.46 298.51 176.21 299.58 174.72 300.36 173.04 300.81 171.23 300.93 169.37 300.69 167.52 300.12 165.76 299.24 164.16 298.07 162.78 296.67 161.66 295.09 160.86 293.38 160.4 291.62 160.31 289.87 160.58 288.2 161.2 286.68 162.15 285.35 163.4 284.28 164.9 283.5 166.58 283.05 168.39 282.94 170.25 283.17 172.09 283.74 173.85 284.63 175.45 285.79 176.84 287.19 177.95 288.78 178.76 290.48 179.21 292.24 179.31"/>
  </g>
  <g id="LWPOLYLINE-10" data-name="LWPOLYLINE">
    <polyline class="cls-1" points="395.02 309.63 395.54 309.52 396.28 309.04 396.96 308.2 397.58 307.03 398.12 305.54 398.57 303.78 398.91 301.79 399.13 299.62 399.24 297.32 399.22 294.94"/>
  </g>
  <g id="LINE">
    <line class="cls-1" x1="63.27" y1="325.93" x2="395.02" y2="309.63"/>
  </g>
  <g id="LINE-2" data-name="LINE">
    <line class="cls-1" x1="23.28" y1="321.75" x2="62.36" y2="325.9"/>
  </g>
  <g id="LINE-3" data-name="LINE">
    <line class="cls-1" x1="409.49" y1="293.92" x2="400.36" y2="15.36"/>
  </g>
  <g id="LINE-4" data-name="LINE">
    <line class="cls-1" x1="387.63" y1="5.71" x2="348.55" y2="1.56"/>
  </g>
  <g id="LINE-5" data-name="LINE">
    <line class="cls-1" x1="45.97" y1="134.81" x2="46.67" y2="134.82"/>
  </g>
  <g id="LINE-6" data-name="LINE">
    <line class="cls-1" x1="45.97" y1="134.81" x2="46.03" y2="136.71"/>
  </g>
  <g id="LINE-7" data-name="LINE">
    <line class="cls-1" x1="46.03" y1="136.71" x2="46.74" y2="136.72"/>
  </g>
  <g id="LINE-8" data-name="LINE">
    <line class="cls-1" x1="62.78" y1="145.88" x2="68.2" y2="311.21"/>
  </g>
  <g id="LINE-9" data-name="LINE">
    <line class="cls-1" x1="48.85" y1="311.39" x2="39.88" y2="37.75"/>
  </g>
  <g id="LINE-10" data-name="LINE">
    <line class="cls-1" x1="59.22" y1="37.57" x2="62.09" y2="124.98"/>
  </g>
  <g id="LINE-11" data-name="LINE">
    <line class="cls-1" x1="390.25" y1="21.3" x2="59.22" y2="37.57"/>
  </g>
  <g id="LINE-12" data-name="LINE">
    <line class="cls-1" x1="53.78" y1="21.84" x2="384.8" y2="5.57"/>
  </g>
  <g id="LINE-13" data-name="LINE">
    <line class="cls-1" x1="62.09" y1="124.98" x2="393.12" y2="108.71"/>
  </g>
  <g id="LINE-14" data-name="LINE">
    <line class="cls-1" x1="403.59" y1="117.28" x2="46.67" y2="134.82"/>
  </g>
  <g id="LINE-15" data-name="LINE">
    <line class="cls-1" x1="393.12" y1="108.71" x2="390.25" y2="21.3"/>
  </g>
  <g id="LINE-16" data-name="LINE">
    <line class="cls-1" x1="46.74" y1="136.72" x2="403.65" y2="119.18"/>
  </g>
  <g id="LINE-17" data-name="LINE">
    <line class="cls-1" x1="393.8" y1="129.62" x2="62.78" y2="145.88"/>
  </g>
  <g id="LINE-18" data-name="LINE">
    <line class="cls-1" x1="399.22" y1="294.94" x2="393.8" y2="129.62"/>
  </g>
  <g id="LINE-19" data-name="LINE">
    <line class="cls-1" x1="68.2" y1="311.21" x2="399.22" y2="294.94"/>
  </g>
  <g id="LINE-20" data-name="LINE">
    <line class="cls-1" x1="46.03" y1="136.71" x2="403.74" y2="119.13"/>
  </g>
  <g id="LINE-21" data-name="LINE">
    <line class="cls-1" x1="39.88" y1="37.75" x2="1.52" y2="33.68"/>
  </g>
  <g id="LINE-22" data-name="LINE">
    <line class="cls-1" x1="15.42" y1="17.77" x2="53.78" y2="21.84"/>
  </g>
  <g id="LINE-23" data-name="LINE">
    <line class="cls-1" x1="403.74" y1="119.13" x2="403.68" y2="117.23"/>
  </g>
  <g id="LINE-24" data-name="LINE">
    <line class="cls-1" x1="10.5" y1="307.32" x2="48.85" y2="311.39"/>
  </g>
  <g id="LINE-25" data-name="LINE">
    <line class="cls-1" x1="1.52" y1="33.68" x2="10.5" y2="307.32"/>
  </g>
  <g id="LINE-26" data-name="LINE">
    <line class="cls-1" x1="384.8" y1="5.57" x2="346.44" y2="1.5"/>
  </g>
  <g id="LINE-27" data-name="LINE">
    <line class="cls-1" x1="346.44" y1="1.5" x2="15.42" y2="17.77"/>
  </g>
  <g id="LINE-28" data-name="LINE">
    <line class="cls-1" x1="346.44" y1="1.5" x2="348.55" y2="1.56"/>
  </g>
  <g id="ARC">
    <path class="cls-1" d="m395.02,309.63c8.3-.41,14.74-7.4,14.47-15.71"/>
  </g>
  <g id="ARC-2" data-name="ARC">
    <path class="cls-1" d="m53.78,21.84c-8.18.65-14.35,7.71-13.89,15.91"/>
  </g>
  <g id="ARC-3" data-name="ARC">
    <path class="cls-1" d="m39.88,37.75c6.45.28,12.9.22,19.34-.18"/>
  </g>
  <g id="ARC-4" data-name="ARC">
    <path class="cls-1" d="m46.74,136.72c3.53,5.49,9.52,8.91,16.04,9.16"/>
  </g>
  <g id="ARC-5" data-name="ARC">
    <path class="cls-1" d="m56.92,322.31c4.05-3.39,7.82-7.1,11.27-11.1"/>
  </g>
  <g id="ARC-6" data-name="ARC">
    <path class="cls-1" d="m48.85,311.39c1.57,4.35,4.37,8.14,8.07,10.91"/>
  </g>
  <g id="ARC-7" data-name="ARC">
    <path class="cls-1" d="m62.09,124.98c-6.36.8-12.02,4.41-15.42,9.84"/>
  </g>
  <g id="ARC-8" data-name="ARC">
    <path class="cls-1" d="m390.25,21.3c3.17-3.51,5.98-7.33,8.37-11.4"/>
  </g>
  <g id="ARC-9" data-name="ARC">
    <path class="cls-1" d="m398.63,9.9c-4.01-2.91-8.87-4.43-13.82-4.32"/>
  </g>
  <g id="ARC-10" data-name="ARC">
    <path class="cls-1" d="m403.59,117.28c-.61-5.21-5.24-9-10.47-8.57"/>
  </g>
  <g id="ARC-11" data-name="ARC">
    <path class="cls-1" d="m393.8,129.62c5.51-.36,9.81-4.91,9.85-10.43"/>
  </g>
  <g id="ARC-12" data-name="ARC">
    <path class="cls-1" d="m403.65,119.18s.06-.03.09-.05"/>
  </g>
  <g id="ARC-13" data-name="ARC">
    <path class="cls-1" d="m15.42,17.77c-8.18.65-14.35,7.71-13.89,15.91"/>
  </g>
  <g id="ARC-14" data-name="ARC">
    <path class="cls-1" d="m56.92,322.31c1.35,2.23,3.75,3.6,6.35,3.62"/>
  </g>
  <g id="ARC-15" data-name="ARC">
    <path class="cls-1" d="m10.5,307.32c.04,7.33,5.51,13.51,12.78,14.44"/>
  </g>
  <g id="ARC-16" data-name="ARC">
    <path class="cls-1" d="m125.98,186.32c5.12-1.54,8.03-6.94,6.49-12.06-.73-2.43-2.38-4.47-4.6-5.7"/>
  </g>
  <g id="ARC-17" data-name="ARC">
    <path class="cls-1" d="m129.1,281.33c5.12-1.54,8.03-6.94,6.49-12.06-.73-2.43-2.38-4.47-4.6-5.7"/>
  </g>
  <g id="ARC-18" data-name="ARC">
    <path class="cls-1" d="m400.36,15.36c-.03-1.95-.63-3.85-1.73-5.46"/>
  </g>
  <g id="ARC-19" data-name="ARC">
    <path class="cls-1" d="m403.59,117.28s.06-.03.09-.05"/>
  </g>
  <g id="ARC-20" data-name="ARC">
    <path class="cls-1" d="m287.9,178.36c5.12-1.54,8.03-6.94,6.49-12.06-.73-2.43-2.38-4.47-4.6-5.7"/>
  </g>
  <g id="ARC-21" data-name="ARC">
    <path class="cls-1" d="m291.01,273.37c5.12-1.54,8.03-6.94,6.49-12.06-.73-2.43-2.38-4.47-4.6-5.7"/>
  </g>
  <g id="ARC-22" data-name="ARC">
    <path class="cls-1" d="m399.22,294.94c3.45.04,6.9-.3,10.27-1.02"/>
  </g>
</svg>