<?xml version="1.0" encoding="UTF-8"?>
<svg id="_0" data-name="0" xmlns="http://www.w3.org/2000/svg" viewBox="0 0 448.01 469">
  <defs>
    <style>
      .cls-1 {
        fill: none;
        stroke: #000;
        stroke-linecap: round;
        stroke-linejoin: round;
        stroke-width: 2px;
      }
    </style>
  </defs>
  <g id="LWPOLYLINE">
    <polyline class="cls-1" points="125.55 414.9 121.37 418.12 116.21 419.82 110.7 419.79 105.49 418.04 101.21 414.77 98.38 410.39 97.33 405.41 98.19 400.44"/>
  </g>
  <g id="LWPOLYLINE-2" data-name="LWPOLYLINE">
    <polyline class="cls-1" points="123.42 416.83 123.98 416.48 124.59 416.2 125.23 416.02 125.91 415.93 126.59 415.93 127.27 416.02 127.92 416.21 128.54 416.48"/>
  </g>
  <g id="LWPOLYLINE-3" data-name="LWPOLYLINE">
    <polyline class="cls-1" points="97.48 403.12 97.53 402.49 97.47 401.87 97.31 401.26 97.05 400.67 96.71 400.13 96.27 399.64 95.77 399.21 95.2 398.85"/>
  </g>
  <g id="LWPOLYLINE-4" data-name="LWPOLYLINE">
    <polyline class="cls-1" points="5.61 139.69 5.94 139.11 6.16 138.5 6.28 137.85 6.28 137.2 6.18 136.55 5.97 135.92 5.66 135.33 5.26 134.79"/>
  </g>
  <g id="LWPOLYLINE-5" data-name="LWPOLYLINE">
    <polyline class="cls-1" points="425.8 343.64 425.11 343.59 424.43 343.63 423.77 343.76 423.14 343.98 422.55 344.29 422.02 344.68 421.56 345.14 421.19 345.65"/>
  </g>
  <g id="LWPOLYLINE-6" data-name="LWPOLYLINE">
    <polyline class="cls-1" points="184.53 323.68 184.75 323.83 184.88 323.99"/>
  </g>
  <g id="LWPOLYLINE-7" data-name="LWPOLYLINE">
    <polyline class="cls-1" points="216.75 332.67 215.68 330.14 214.08 327.85 212.01 325.9 209.56 324.35 206.83 323.29 203.94 322.74 201 322.74 198.13 323.28 195.45 324.34 193.06 325.88 191.07 327.83 189.57 330.12 188.6 332.64 188.21 335.31 188.41 338 188.6 338.86"/>
  </g>
  <g id="LWPOLYLINE-8" data-name="LWPOLYLINE">
    <polyline class="cls-1" points="217.17 337.99 217.21 335.7 216.71 333.04"/>
  </g>
  <g id="LWPOLYLINE-9" data-name="LWPOLYLINE">
    <polyline class="cls-1" points="184.5 323.87 184.73 324.01 184.86 324.17"/>
  </g>
  <g id="LWPOLYLINE-10" data-name="LWPOLYLINE">
    <polyline class="cls-1" points="5.28 134.81 6.05 136.03 6.19 136.7"/>
  </g>
  <g id="LWPOLYLINE-11" data-name="LWPOLYLINE">
    <polyline class="cls-1" points="122.43 424.7 122.43 424.7 122.88 421.19 123.45 416.81"/>
  </g>
  <g id="LWPOLYLINE-12" data-name="LWPOLYLINE">
    <polyline class="cls-1" points="425.76 343.64 425.29 347.15 424.7 351.54 424.7 351.54"/>
  </g>
  <g id="LWPOLYLINE-13" data-name="LWPOLYLINE">
    <polyline class="cls-1" points="80.65 436.16 80.48 436 80.43 435.7"/>
  </g>
  <g id="LWPOLYLINE-14" data-name="LWPOLYLINE">
    <polyline class="cls-1" points="140.9 467.67 140.87 467.92 140.86 468"/>
  </g>
  <g id="LWPOLYLINE-15" data-name="LWPOLYLINE">
    <polyline class="cls-1" points="405.41 403.64 405.3 403.92 405.1 404.04"/>
  </g>
  <g id="LWPOLYLINE-16" data-name="LWPOLYLINE">
    <polyline class="cls-1" points="4.74 143 4.74 143 4.98 139.36 5.28 134.81"/>
  </g>
  <g id="LWPOLYLINE-17" data-name="LWPOLYLINE">
    <polyline class="cls-1" points="370.32 272.19 373.15 271.77 376.02 271.87 378.83 272.48 381.47 273.58 383.83 275.13 385.83 277.06 387.38 279.3 388.44 281.77 388.95 284.37 388.9 287 388.29 289.56 387.14 291.95 385.5 294.09 383.43 295.88 381.02 297.26 378.34 298.17 375.51 298.59 372.64 298.49 369.83 297.88 367.19 296.78 364.83 295.24 362.83 293.31 361.28 291.07 360.23 288.6 359.71 286 359.77 283.36 360.38 280.8 361.52 278.41 363.16 276.28 365.23 274.49 367.65 273.11 370.32 272.19"/>
  </g>
  <g id="LWPOLYLINE-18" data-name="LWPOLYLINE">
    <polyline class="cls-1" points="312.49 282.73 315.71 282.23 318.99 282.26 322.23 282.84 325.31 283.93 328.14 285.5 330.62 287.5 332.69 289.88 334.27 292.54 335.3 295.41 335.77 298.39 335.65 301.39 334.94 304.32 333.68 307.06 331.89 309.55 329.64 311.7 327 313.44 324.06 314.71 320.9 315.47 317.63 315.7 314.37 315.4 311.2 314.56 308.23 313.22 305.56 311.43 303.27 309.23 301.45 306.7 300.13 303.92 299.38 300.99 299.21 297.98 299.62 295.01 300.61 292.16 302.14 289.53 304.17 287.21 306.62 285.26 309.43 283.75 312.49 282.73"/>
  </g>
  <g id="LWPOLYLINE-19" data-name="LWPOLYLINE">
    <polyline class="cls-1" points="198.19 308.23 201.52 307.69 204.92 307.66 208.29 308.14 211.53 309.13 214.57 310.59 217.31 312.48 219.68 314.75 221.62 317.34 223.07 320.18 224 323.19 224.38 326.29 224.2 329.39 223.46 332.41 222.19 335.28 220.41 337.9 218.18 340.2 215.56 342.14 212.62 343.64 209.44 344.68 206.11 345.22 202.71 345.25 199.35 344.76 196.1 343.78 193.07 342.32 190.33 340.43 187.96 338.16 186.01 335.57 184.56 332.73 183.63 329.72 183.25 326.62 183.43 323.52 184.17 320.5 185.45 317.63 187.22 315.01 189.45 312.7 192.07 310.77 195.01 309.26 198.19 308.23"/>
  </g>
  <g id="LWPOLYLINE-20" data-name="LWPOLYLINE">
    <polyline class="cls-1" points="10.54 114.2 10.7 113.86 11.03 113.56 11.53 113.31 12.17 113.12 12.92 112.99 13.78 112.93 14.69 112.94 15.63 113.03"/>
  </g>
  <g id="LWPOLYLINE-21" data-name="LWPOLYLINE">
    <polyline class="cls-1" points="124.11 410.1 120.69 404.35 120.13 403.37"/>
  </g>
  <g id="LWPOLYLINE-22" data-name="LWPOLYLINE">
    <polyline class="cls-1" points="103.99 394.85 99.28 396.33 98.51 396.57"/>
  </g>
  <g id="LWPOLYLINE-23" data-name="LWPOLYLINE">
    <polyline class="cls-1" points="442.33 276.69 443.26 276.84 444.15 277.05 444.97 277.32 445.68 277.63 446.25 277.98 446.68 278.34 446.94 278.71 447.01 279.08"/>
  </g>
  <g id="LWPOLYLINE-24" data-name="LWPOLYLINE">
    <polyline class="cls-1" points="123.42 416.83 123.87 412.94 124.2 410.03 124.2 410.03"/>
  </g>
  <g id="LWPOLYLINE-25" data-name="LWPOLYLINE">
    <polyline class="cls-1" points="365.66 28.3 366.39 27.81 367.09 27.41 367.73 27.11 368.28 26.92 368.73 26.85 369.06 26.9 369.26 27.07 369.29 27.15"/>
  </g>
  <g id="LWPOLYLINE-26" data-name="LWPOLYLINE">
    <polyline class="cls-1" points="428.81 328.66 426.73 335.76 426.37 336.94"/>
  </g>
  <g id="LWPOLYLINE-27" data-name="LWPOLYLINE">
    <polyline class="cls-1" points="440.64 313.75 438.23 314.01 437.8 314.05"/>
  </g>
  <g id="LWPOLYLINE-28" data-name="LWPOLYLINE">
    <polyline class="cls-1" points="426.25 336.92 426.25 336.92 425.99 340.76 425.8 343.64"/>
  </g>
  <g id="LWPOLYLINE-29" data-name="LWPOLYLINE">
    <polyline class="cls-1" points="38.07 69.37 38.11 69.31 38.33 69.19 38.65 69.22 39.07 69.4 39.55 69.72 40.09 70.17 40.66 70.73 41.25 71.38"/>
  </g>
  <g id="LWPOLYLINE-30" data-name="LWPOLYLINE">
    <polyline class="cls-1" points="6.39 128.42 7.19 129.55 7.42 130.36"/>
  </g>
  <g id="LWPOLYLINE-31" data-name="LWPOLYLINE">
    <polyline class="cls-1" points="5.26 134.79 5.9 131.15 6.39 128.42 6.39 128.42"/>
  </g>
  <g id="LWPOLYLINE-32" data-name="LWPOLYLINE">
    <polyline class="cls-1" points="6.2 136.65 5.75 135.45 5.26 134.79"/>
  </g>
  <g id="LWPOLYLINE-33" data-name="LWPOLYLINE">
    <polyline class="cls-1" points="121.67 425.8 121.21 425.84 120.78 425.79"/>
  </g>
  <g id="LWPOLYLINE-34" data-name="LWPOLYLINE">
    <polyline class="cls-1" points="423.81 351.58 423.29 352.24 422.42 353.01"/>
  </g>
  <g id="LINE">
    <line class="cls-1" x1="97.36" y1="404.24" x2="96.78" y2="412.52"/>
  </g>
  <g id="LINE-2" data-name="LINE">
    <line class="cls-1" x1="442.5" y1="339.81" x2="443.78" y2="331.6"/>
  </g>
  <g id="LINE-3" data-name="LINE">
    <line class="cls-1" x1="80.65" y1="436.16" x2="140.86" y2="468"/>
  </g>
  <g id="LINE-4" data-name="LINE">
    <line class="cls-1" x1="140.86" y1="468" x2="405.1" y2="404.04"/>
  </g>
  <g id="LINE-5" data-name="LINE">
    <line class="cls-1" x1="2.78" y1="184.29" x2="80.46" y2="435.93"/>
  </g>
  <g id="LINE-6" data-name="LINE">
    <line class="cls-1" x1="1.6" y1="124.47" x2="1.03" y2="132.75"/>
  </g>
  <g id="LINE-7" data-name="LINE">
    <line class="cls-1" x1="405.33" y1="403.88" x2="439" y2="349.17"/>
  </g>
  <g id="LINE-8" data-name="LINE">
    <line class="cls-1" x1="98.48" y1="396.72" x2="97.53" y2="402.78"/>
  </g>
  <g id="LINE-9" data-name="LINE">
    <line class="cls-1" x1="446.98" y1="278.83" x2="369.29" y2="27.15"/>
  </g>
  <g id="LINE-10" data-name="LINE">
    <line class="cls-1" x1="443.91" y1="330.47" x2="444.35" y2="324.02"/>
  </g>
  <g id="LINE-11" data-name="LINE">
    <line class="cls-1" x1="38.07" y1="69.37" x2="10.64" y2="113.94"/>
  </g>
  <g id="LINE-12" data-name="LINE">
    <line class="cls-1" x1="320.07" y1="1" x2="38.3" y2="69.2"/>
  </g>
  <g id="LINE-13" data-name="LINE">
    <line class="cls-1" x1="369.1" y1="26.92" x2="320.07" y2="1"/>
  </g>
  <g id="LINE-14" data-name="LINE">
    <line class="cls-1" x1="2.72" y1="116.95" x2="1.73" y2="123.33"/>
  </g>
  <g id="LINE-15" data-name="LINE">
    <line class="cls-1" x1="330.87" y1="294.7" x2="330.93" y2="294.15"/>
  </g>
  <g id="LINE-16" data-name="LINE">
    <line class="cls-1" x1="331.16" y1="294.4" x2="330.87" y2="294.7"/>
  </g>
  <g id="LINE-17" data-name="LINE">
    <line class="cls-1" x1="302.1" y1="303.64" x2="302.47" y2="308.24"/>
  </g>
  <g id="LINE-18" data-name="LINE">
    <line class="cls-1" x1="303.87" y1="298.74" x2="302.1" y2="303.64"/>
  </g>
  <g id="LINE-19" data-name="LINE">
    <line class="cls-1" x1="307.56" y1="294.88" x2="303.87" y2="298.74"/>
  </g>
  <g id="LINE-20" data-name="LINE">
    <line class="cls-1" x1="312.62" y1="292.64" x2="307.56" y2="294.88"/>
  </g>
  <g id="LINE-21" data-name="LINE">
    <line class="cls-1" x1="318.26" y1="292.36" x2="312.62" y2="292.64"/>
  </g>
  <g id="LINE-22" data-name="LINE">
    <line class="cls-1" x1="323.64" y1="294.08" x2="318.26" y2="292.36"/>
  </g>
  <g id="LINE-23" data-name="LINE">
    <line class="cls-1" x1="327.93" y1="297.54" x2="323.64" y2="294.08"/>
  </g>
  <g id="LINE-24" data-name="LINE">
    <line class="cls-1" x1="330.48" y1="302.21" x2="327.93" y2="297.54"/>
  </g>
  <g id="LINE-25" data-name="LINE">
    <line class="cls-1" x1="330.9" y1="307.39" x2="330.48" y2="302.21"/>
  </g>
  <g id="LINE-26" data-name="LINE">
    <line class="cls-1" x1="331" y1="310.5" x2="330.9" y2="307.39"/>
  </g>
  <g id="LINE-27" data-name="LINE">
    <line class="cls-1" x1="184.88" y1="324.07" x2="183.56" y2="326.35"/>
  </g>
  <g id="LINE-28" data-name="LINE">
    <line class="cls-1" x1="184.88" y1="323.99" x2="184.88" y2="324.07"/>
  </g>
  <g id="LINE-29" data-name="LINE">
    <line class="cls-1" x1="223.47" y1="329.91" x2="223.48" y2="329.88"/>
  </g>
  <g id="LINE-30" data-name="LINE">
    <line class="cls-1" x1="223.49" y1="330" x2="223.47" y2="329.91"/>
  </g>
  <g id="LINE-31" data-name="LINE">
    <line class="cls-1" x1="203.22" y1="313.23" x2="203.23" y2="313.26"/>
  </g>
  <g id="LINE-32" data-name="LINE">
    <line class="cls-1" x1="186.54" y1="320.98" x2="186.42" y2="320.94"/>
  </g>
  <g id="LINE-33" data-name="LINE">
    <line class="cls-1" x1="189.44" y1="318.19" x2="189.58" y2="318.75"/>
  </g>
  <g id="LINE-34" data-name="LINE">
    <line class="cls-1" x1="223.49" y1="329.97" x2="223.49" y2="329.97"/>
  </g>
  <g id="LINE-35" data-name="LINE">
    <line class="cls-1" x1="184.86" y1="324.11" x2="184.88" y2="323.99"/>
  </g>
  <g id="LINE-36" data-name="LINE">
    <line class="cls-1" x1="215.04" y1="317.34" x2="215.45" y2="317.18"/>
  </g>
  <g id="LINE-37" data-name="LINE">
    <line class="cls-1" x1="215.06" y1="317.16" x2="215.29" y2="317.07"/>
  </g>
  <g id="LINE-38" data-name="LINE">
    <line class="cls-1" x1="213.39" y1="315.9" x2="213.45" y2="316.31"/>
  </g>
  <g id="LINE-39" data-name="LINE">
    <line class="cls-1" x1="215.04" y1="317.34" x2="215.06" y2="317.16"/>
  </g>
  <g id="LINE-40" data-name="LINE">
    <line class="cls-1" x1="203.17" y1="313.23" x2="203.21" y2="313.44"/>
  </g>
  <g id="LINE-41" data-name="LINE">
    <line class="cls-1" x1="206.81" y1="313.7" x2="206.86" y2="313.6"/>
  </g>
  <g id="LINE-42" data-name="LINE">
    <line class="cls-1" x1="206.81" y1="313.7" x2="206.82" y2="313.59"/>
  </g>
  <g id="LINE-43" data-name="LINE">
    <line class="cls-1" x1="127.55" y1="424.77" x2="121.67" y2="425.8"/>
  </g>
  <g id="LINE-44" data-name="LINE">
    <line class="cls-1" x1="145.61" y1="425.51" x2="140.9" y2="467.67"/>
  </g>
  <g id="LINE-45" data-name="LINE">
    <line class="cls-1" x1="80.43" y1="435.7" x2="140.9" y2="467.67"/>
  </g>
  <g id="LINE-46" data-name="LINE">
    <line class="cls-1" x1="83.77" y1="392.81" x2="80.43" y2="435.7"/>
  </g>
  <g id="LINE-47" data-name="LINE">
    <line class="cls-1" x1="122.32" y1="424.79" x2="122.43" y2="424.7"/>
  </g>
  <g id="LINE-48" data-name="LINE">
    <line class="cls-1" x1="411.64" y1="361.12" x2="405.41" y2="403.64"/>
  </g>
  <g id="LINE-49" data-name="LINE">
    <line class="cls-1" x1="140.9" y1="467.67" x2="405.41" y2="403.64"/>
  </g>
  <g id="LINE-50" data-name="LINE">
    <line class="cls-1" x1="2.74" y1="184.02" x2="80.43" y2="435.7"/>
  </g>
  <g id="LINE-51" data-name="LINE">
    <line class="cls-1" x1="5.65" y1="139.8" x2="2.74" y2="184.02"/>
  </g>
  <g id="LINE-52" data-name="LINE">
    <line class="cls-1" x1="422.42" y1="353.01" x2="419.96" y2="353.99"/>
  </g>
  <g id="LINE-53" data-name="LINE">
    <line class="cls-1" x1="446.09" y1="305.17" x2="443.83" y2="319.33"/>
  </g>
  <g id="LINE-54" data-name="LINE">
    <line class="cls-1" x1="439.51" y1="346.32" x2="439.1" y2="348.89"/>
  </g>
  <g id="LINE-55" data-name="LINE">
    <line class="cls-1" x1="405.41" y1="403.64" x2="439.1" y2="348.89"/>
  </g>
  <g id="LINE-56" data-name="LINE">
    <line class="cls-1" x1="424.7" y1="351.54" x2="424.84" y2="351.56"/>
  </g>
  <g id="LINE-57" data-name="LINE">
    <line class="cls-1" x1="2.78" y1="184.29" x2="2.74" y2="184.02"/>
  </g>
  <g id="LINE-58" data-name="LINE">
    <line class="cls-1" x1="5.37" y1="144.03" x2="4.74" y2="143"/>
  </g>
  <g id="LINE-59" data-name="LINE">
    <line class="cls-1" x1="4.65" y1="142.89" x2="4.74" y2="143"/>
  </g>
  <g id="LINE-60" data-name="LINE">
    <line class="cls-1" x1="439.1" y1="348.89" x2="439" y2="349.17"/>
  </g>
  <g id="LINE-61" data-name="LINE">
    <line class="cls-1" x1="148.75" y1="397.9" x2="88.25" y2="365.92"/>
  </g>
  <g id="LINE-62" data-name="LINE">
    <line class="cls-1" x1="92.3" y1="361.41" x2="149.51" y2="391.66"/>
  </g>
  <g id="LINE-63" data-name="LINE">
    <line class="cls-1" x1="276.36" y1="128.75" x2="303.77" y2="217.55"/>
  </g>
  <g id="LINE-64" data-name="LINE">
    <line class="cls-1" x1="265.64" y1="131.34" x2="276.36" y2="128.75"/>
  </g>
  <g id="LINE-65" data-name="LINE">
    <line class="cls-1" x1="293.05" y1="220.14" x2="265.64" y2="131.34"/>
  </g>
  <g id="LINE-66" data-name="LINE">
    <line class="cls-1" x1="303.77" y1="217.55" x2="293.05" y2="220.14"/>
  </g>
  <g id="LINE-67" data-name="LINE">
    <line class="cls-1" x1="66.26" y1="179.6" x2="76.99" y2="177"/>
  </g>
  <g id="LINE-68" data-name="LINE">
    <line class="cls-1" x1="93.68" y1="268.4" x2="66.26" y2="179.6"/>
  </g>
  <g id="LINE-69" data-name="LINE">
    <line class="cls-1" x1="104.4" y1="265.81" x2="93.68" y2="268.4"/>
  </g>
  <g id="LINE-70" data-name="LINE">
    <line class="cls-1" x1="76.99" y1="177" x2="104.4" y2="265.81"/>
  </g>
  <g id="LINE-71" data-name="LINE">
    <line class="cls-1" x1="297.34" y1="123.67" x2="324.76" y2="212.47"/>
  </g>
  <g id="LINE-72" data-name="LINE">
    <line class="cls-1" x1="286.62" y1="126.26" x2="297.34" y2="123.67"/>
  </g>
  <g id="LINE-73" data-name="LINE">
    <line class="cls-1" x1="314.03" y1="215.06" x2="286.62" y2="126.26"/>
  </g>
  <g id="LINE-74" data-name="LINE">
    <line class="cls-1" x1="324.76" y1="212.47" x2="314.03" y2="215.06"/>
  </g>
  <g id="LINE-75" data-name="LINE">
    <line class="cls-1" x1="318.33" y1="118.59" x2="345.74" y2="207.39"/>
  </g>
  <g id="LINE-76" data-name="LINE">
    <line class="cls-1" x1="307.61" y1="121.18" x2="318.33" y2="118.59"/>
  </g>
  <g id="LINE-77" data-name="LINE">
    <line class="cls-1" x1="335.02" y1="209.99" x2="307.61" y2="121.18"/>
  </g>
  <g id="LINE-78" data-name="LINE">
    <line class="cls-1" x1="345.74" y1="207.39" x2="335.02" y2="209.99"/>
  </g>
  <g id="LINE-79" data-name="LINE">
    <line class="cls-1" x1="339.32" y1="113.51" x2="366.73" y2="202.31"/>
  </g>
  <g id="LINE-80" data-name="LINE">
    <line class="cls-1" x1="328.59" y1="116.1" x2="339.32" y2="113.51"/>
  </g>
  <g id="LINE-81" data-name="LINE">
    <line class="cls-1" x1="356.01" y1="204.91" x2="328.59" y2="116.1"/>
  </g>
  <g id="LINE-82" data-name="LINE">
    <line class="cls-1" x1="366.73" y1="202.31" x2="356.01" y2="204.91"/>
  </g>
  <g id="LINE-83" data-name="LINE">
    <line class="cls-1" x1="360.3" y1="108.43" x2="387.72" y2="197.23"/>
  </g>
  <g id="LINE-84" data-name="LINE">
    <line class="cls-1" x1="349.58" y1="111.02" x2="360.3" y2="108.43"/>
  </g>
  <g id="LINE-85" data-name="LINE">
    <line class="cls-1" x1="376.99" y1="199.83" x2="349.58" y2="111.02"/>
  </g>
  <g id="LINE-86" data-name="LINE">
    <line class="cls-1" x1="387.72" y1="197.23" x2="376.99" y2="199.83"/>
  </g>
  <g id="LINE-87" data-name="LINE">
    <line class="cls-1" x1="87.25" y1="174.52" x2="97.97" y2="171.92"/>
  </g>
  <g id="LINE-88" data-name="LINE">
    <line class="cls-1" x1="114.66" y1="263.32" x2="87.25" y2="174.52"/>
  </g>
  <g id="LINE-89" data-name="LINE">
    <line class="cls-1" x1="125.39" y1="260.73" x2="114.66" y2="263.32"/>
  </g>
  <g id="LINE-90" data-name="LINE">
    <line class="cls-1" x1="97.97" y1="171.92" x2="125.39" y2="260.73"/>
  </g>
  <g id="LINE-91" data-name="LINE">
    <line class="cls-1" x1="108.24" y1="169.44" x2="118.96" y2="166.84"/>
  </g>
  <g id="LINE-92" data-name="LINE">
    <line class="cls-1" x1="135.65" y1="258.24" x2="108.24" y2="169.44"/>
  </g>
  <g id="LINE-93" data-name="LINE">
    <line class="cls-1" x1="146.37" y1="255.65" x2="135.65" y2="258.24"/>
  </g>
  <g id="LINE-94" data-name="LINE">
    <line class="cls-1" x1="118.96" y1="166.84" x2="146.37" y2="255.65"/>
  </g>
  <g id="LINE-95" data-name="LINE">
    <line class="cls-1" x1="129.22" y1="164.36" x2="139.95" y2="161.76"/>
  </g>
  <g id="LINE-96" data-name="LINE">
    <line class="cls-1" x1="156.64" y1="253.16" x2="129.22" y2="164.36"/>
  </g>
  <g id="LINE-97" data-name="LINE">
    <line class="cls-1" x1="167.36" y1="250.57" x2="156.64" y2="253.16"/>
  </g>
  <g id="LINE-98" data-name="LINE">
    <line class="cls-1" x1="139.95" y1="161.76" x2="167.36" y2="250.57"/>
  </g>
  <g id="LINE-99" data-name="LINE">
    <line class="cls-1" x1="150.21" y1="159.28" x2="160.93" y2="156.68"/>
  </g>
  <g id="LINE-100" data-name="LINE">
    <line class="cls-1" x1="177.62" y1="248.08" x2="150.21" y2="159.28"/>
  </g>
  <g id="LINE-101" data-name="LINE">
    <line class="cls-1" x1="188.34" y1="245.49" x2="177.62" y2="248.08"/>
  </g>
  <g id="LINE-102" data-name="LINE">
    <line class="cls-1" x1="160.93" y1="156.68" x2="188.34" y2="245.49"/>
  </g>
  <g id="LINE-103" data-name="LINE">
    <line class="cls-1" x1="442.33" y1="276.69" x2="365.66" y2="28.3"/>
  </g>
  <g id="LINE-104" data-name="LINE">
    <line class="cls-1" x1="410.45" y1="328.5" x2="442.33" y2="276.69"/>
  </g>
  <g id="LINE-105" data-name="LINE">
    <line class="cls-1" x1="149.51" y1="391.66" x2="410.45" y2="328.5"/>
  </g>
  <g id="LINE-106" data-name="LINE">
    <line class="cls-1" x1="15.63" y1="113.03" x2="92.3" y2="361.41"/>
  </g>
  <g id="LINE-107" data-name="LINE">
    <line class="cls-1" x1="41.25" y1="71.38" x2="15.63" y2="113.03"/>
  </g>
  <g id="LINE-108" data-name="LINE">
    <line class="cls-1" x1="319.67" y1="3.99" x2="41.25" y2="71.38"/>
  </g>
  <g id="LINE-109" data-name="LINE">
    <line class="cls-1" x1="365.66" y1="28.3" x2="319.67" y2="3.99"/>
  </g>
  <g id="LINE-110" data-name="LINE">
    <line class="cls-1" x1="129.45" y1="409.15" x2="128.54" y2="416.48"/>
  </g>
  <g id="LINE-111" data-name="LINE">
    <line class="cls-1" x1="124.62" y1="401.96" x2="129.45" y2="409.15"/>
  </g>
  <g id="LINE-112" data-name="LINE">
    <line class="cls-1" x1="113.15" y1="393.81" x2="114.38" y2="394.46"/>
  </g>
  <g id="LINE-113" data-name="LINE">
    <line class="cls-1" x1="96.33" y1="391.64" x2="102.37" y2="390.19"/>
  </g>
  <g id="LINE-114" data-name="LINE">
    <line class="cls-1" x1="95.2" y1="398.85" x2="96.33" y2="391.64"/>
  </g>
  <g id="LINE-115" data-name="LINE">
    <line class="cls-1" x1="83.74" y1="392.8" x2="88.25" y2="365.92"/>
  </g>
  <g id="LINE-116" data-name="LINE">
    <line class="cls-1" x1="145.61" y1="425.51" x2="148.75" y2="397.9"/>
  </g>
  <g id="LINE-117" data-name="LINE">
    <line class="cls-1" x1="413.3" y1="333.87" x2="148.75" y2="397.9"/>
  </g>
  <g id="LINE-118" data-name="LINE">
    <line class="cls-1" x1="411.68" y1="361.11" x2="413.3" y2="333.87"/>
  </g>
  <g id="LINE-119" data-name="LINE">
    <line class="cls-1" x1="88.25" y1="365.92" x2="10.54" y2="114.2"/>
  </g>
  <g id="LINE-120" data-name="LINE">
    <line class="cls-1" x1="5.61" y1="139.69" x2="10.54" y2="114.2"/>
  </g>
  <g id="LINE-121" data-name="LINE">
    <line class="cls-1" x1="111.97" y1="399.83" x2="110.74" y2="399.18"/>
  </g>
  <g id="LINE-122" data-name="LINE">
    <line class="cls-1" x1="124.2" y1="410.03" x2="124.11" y2="410.1"/>
  </g>
  <g id="LINE-123" data-name="LINE">
    <line class="cls-1" x1="447.01" y1="279.08" x2="413.3" y2="333.87"/>
  </g>
  <g id="LINE-124" data-name="LINE">
    <line class="cls-1" x1="98.51" y1="396.57" x2="98.53" y2="396.45"/>
  </g>
  <g id="LINE-125" data-name="LINE">
    <line class="cls-1" x1="437.21" y1="309.15" x2="440.04" y2="308.45"/>
  </g>
  <g id="LINE-126" data-name="LINE">
    <line class="cls-1" x1="430.75" y1="317.88" x2="431.44" y2="316.77"/>
  </g>
  <g id="LINE-127" data-name="LINE">
    <line class="cls-1" x1="421.58" y1="338.44" x2="424.81" y2="329.3"/>
  </g>
  <g id="LINE-128" data-name="LINE">
    <line class="cls-1" x1="421.19" y1="345.65" x2="421.58" y2="338.44"/>
  </g>
  <g id="LINE-129" data-name="LINE">
    <line class="cls-1" x1="446.15" y1="305.08" x2="447.01" y2="279.08"/>
  </g>
  <g id="LINE-130" data-name="LINE">
    <line class="cls-1" x1="97.57" y1="402.54" x2="97.48" y2="403.12"/>
  </g>
  <g id="LINE-131" data-name="LINE">
    <line class="cls-1" x1="76.99" y1="177" x2="76.66" y2="179.63"/>
  </g>
  <g id="LINE-132" data-name="LINE">
    <line class="cls-1" x1="103.34" y1="266.06" x2="76.66" y2="179.63"/>
  </g>
  <g id="LINE-133" data-name="LINE">
    <line class="cls-1" x1="97.97" y1="171.92" x2="97.65" y2="174.55"/>
  </g>
  <g id="LINE-134" data-name="LINE">
    <line class="cls-1" x1="124.33" y1="260.98" x2="97.65" y2="174.55"/>
  </g>
  <g id="LINE-135" data-name="LINE">
    <line class="cls-1" x1="118.96" y1="166.84" x2="118.63" y2="169.47"/>
  </g>
  <g id="LINE-136" data-name="LINE">
    <line class="cls-1" x1="145.31" y1="255.9" x2="118.63" y2="169.47"/>
  </g>
  <g id="LINE-137" data-name="LINE">
    <line class="cls-1" x1="139.95" y1="161.76" x2="139.62" y2="164.39"/>
  </g>
  <g id="LINE-138" data-name="LINE">
    <line class="cls-1" x1="166.3" y1="250.82" x2="139.62" y2="164.39"/>
  </g>
  <g id="LINE-139" data-name="LINE">
    <line class="cls-1" x1="160.93" y1="156.68" x2="160.6" y2="159.31"/>
  </g>
  <g id="LINE-140" data-name="LINE">
    <line class="cls-1" x1="187.28" y1="245.74" x2="160.6" y2="159.31"/>
  </g>
  <g id="LINE-141" data-name="LINE">
    <line class="cls-1" x1="426.37" y1="336.94" x2="426.25" y2="336.92"/>
  </g>
  <g id="LINE-142" data-name="LINE">
    <line class="cls-1" x1="276.36" y1="128.75" x2="276.03" y2="131.38"/>
  </g>
  <g id="LINE-143" data-name="LINE">
    <line class="cls-1" x1="302.71" y1="217.81" x2="276.03" y2="131.38"/>
  </g>
  <g id="LINE-144" data-name="LINE">
    <line class="cls-1" x1="435.21" y1="320.65" x2="434.52" y2="321.76"/>
  </g>
  <g id="LINE-145" data-name="LINE">
    <line class="cls-1" x1="297.34" y1="123.67" x2="297.02" y2="126.3"/>
  </g>
  <g id="LINE-146" data-name="LINE">
    <line class="cls-1" x1="323.7" y1="212.73" x2="297.02" y2="126.3"/>
  </g>
  <g id="LINE-147" data-name="LINE">
    <line class="cls-1" x1="76.66" y1="179.63" x2="67" y2="181.97"/>
  </g>
  <g id="LINE-148" data-name="LINE">
    <line class="cls-1" x1="318.33" y1="118.59" x2="318" y2="121.22"/>
  </g>
  <g id="LINE-149" data-name="LINE">
    <line class="cls-1" x1="344.68" y1="207.65" x2="318" y2="121.22"/>
  </g>
  <g id="LINE-150" data-name="LINE">
    <line class="cls-1" x1="97.65" y1="174.55" x2="87.98" y2="176.89"/>
  </g>
  <g id="LINE-151" data-name="LINE">
    <line class="cls-1" x1="440.56" y1="313.67" x2="440.64" y2="313.75"/>
  </g>
  <g id="LINE-152" data-name="LINE">
    <line class="cls-1" x1="339.32" y1="113.51" x2="338.99" y2="116.14"/>
  </g>
  <g id="LINE-153" data-name="LINE">
    <line class="cls-1" x1="365.67" y1="202.57" x2="338.99" y2="116.14"/>
  </g>
  <g id="LINE-154" data-name="LINE">
    <line class="cls-1" x1="118.63" y1="169.47" x2="108.97" y2="171.81"/>
  </g>
  <g id="LINE-155" data-name="LINE">
    <line class="cls-1" x1="360.3" y1="108.43" x2="359.98" y2="111.06"/>
  </g>
  <g id="LINE-156" data-name="LINE">
    <line class="cls-1" x1="386.65" y1="197.49" x2="359.98" y2="111.06"/>
  </g>
  <g id="LINE-157" data-name="LINE">
    <line class="cls-1" x1="139.62" y1="164.39" x2="129.96" y2="166.73"/>
  </g>
  <g id="LINE-158" data-name="LINE">
    <line class="cls-1" x1="160.6" y1="159.31" x2="150.94" y2="161.65"/>
  </g>
  <g id="LINE-159" data-name="LINE">
    <line class="cls-1" x1="276.03" y1="131.38" x2="266.37" y2="133.72"/>
  </g>
  <g id="LINE-160" data-name="LINE">
    <line class="cls-1" x1="297.02" y1="126.3" x2="287.35" y2="128.64"/>
  </g>
  <g id="LINE-161" data-name="LINE">
    <line class="cls-1" x1="318" y1="121.22" x2="308.34" y2="123.56"/>
  </g>
  <g id="LINE-162" data-name="LINE">
    <line class="cls-1" x1="338.99" y1="116.14" x2="329.33" y2="118.48"/>
  </g>
  <g id="LINE-163" data-name="LINE">
    <line class="cls-1" x1="359.98" y1="111.06" x2="350.31" y2="113.4"/>
  </g>
  <g id="LINE-164" data-name="LINE">
    <line class="cls-1" x1="6.39" y1="128.42" x2="6.31" y2="128.34"/>
  </g>
  <g id="LINE-165" data-name="LINE">
    <line class="cls-1" x1="94.63" y1="407.37" x2="95.2" y2="398.86"/>
  </g>
  <g id="LINE-166" data-name="LINE">
    <line class="cls-1" x1="96.93" y1="410.43" x2="94.63" y2="407.37"/>
  </g>
  <g id="LINE-167" data-name="LINE">
    <line class="cls-1" x1="128.57" y1="416.5" x2="127.55" y2="424.77"/>
  </g>
  <g id="LINE-168" data-name="LINE">
    <line class="cls-1" x1="121.67" y1="425.8" x2="121.27" y2="425.51"/>
  </g>
  <g id="LINE-169" data-name="LINE">
    <line class="cls-1" x1="419.96" y1="353.99" x2="421.13" y2="345.74"/>
  </g>
  <g id="LINE-170" data-name="LINE">
    <line class="cls-1" x1="440.04" y1="308.45" x2="439.88" y2="312.56"/>
  </g>
  <g id="LINE-171" data-name="LINE">
    <line class="cls-1" x1="6.31" y1="128.34" x2="8.83" y2="123.05"/>
  </g>
  <g id="ARC">
    <path class="cls-1" d="m215.89,341.93c1.49-2.85,1.8-6.18.86-9.26"/>
  </g>
  <g id="ARC-2" data-name="ARC">
    <path class="cls-1" d="m216.71,333.04c-2.49-7.74-10.79-12-18.53-9.51-5.11,1.64-8.92,5.94-9.95,11.21"/>
  </g>
  <g id="ARC-3" data-name="ARC">
    <path class="cls-1" d="m425.76,343.64c8.22,1.69,16.24-3.61,17.93-11.82.09-.44.16-.89.21-1.34"/>
  </g>
  <g id="ARC-4" data-name="ARC">
    <path class="cls-1" d="m425.76,343.64c-1.8-.3-3.61.48-4.62,2.01"/>
  </g>
  <g id="ARC-5" data-name="ARC">
    <path class="cls-1" d="m128.58,416.46c-1.64-.87-3.63-.74-5.13.35"/>
  </g>
  <g id="ARC-6" data-name="ARC">
    <path class="cls-1" d="m97.49,403.09c-.62,8.85,6.06,16.52,14.9,17.13,3.98.28,7.92-.94,11.06-3.41"/>
  </g>
  <g id="ARC-7" data-name="ARC">
    <path class="cls-1" d="m97.49,403.09c.24-1.77-.68-3.49-2.29-4.27"/>
  </g>
  <g id="ARC-8" data-name="ARC">
    <path class="cls-1" d="m1.73,123.33c-.61,4.17.69,8.39,3.55,11.48"/>
  </g>
  <g id="ARC-9" data-name="ARC">
    <path class="cls-1" d="m96.78,412.52c.08,8.72,7.21,15.72,15.92,15.64,3.49-.03,6.87-1.22,9.62-3.38"/>
  </g>
  <g id="ARC-10" data-name="ARC">
    <path class="cls-1" d="m127.55,424.77c-1.53-1.08-3.56-1.1-5.12-.07"/>
  </g>
  <g id="ARC-11" data-name="ARC">
    <path class="cls-1" d="m96.93,410.47c-.04-1.41-.95-2.65-2.3-3.1"/>
  </g>
  <g id="ARC-12" data-name="ARC">
    <path class="cls-1" d="m424.7,351.54c-1.93-.22-3.8.75-4.74,2.45"/>
  </g>
  <g id="ARC-13" data-name="ARC">
    <path class="cls-1" d="m424.84,351.56c8.11,1.59,16-3.65,17.66-11.76"/>
  </g>
  <g id="ARC-14" data-name="ARC">
    <path class="cls-1" d="m1.03,132.75c-.23,3.73,1.08,7.4,3.62,10.14"/>
  </g>
  <g id="ARC-15" data-name="ARC">
    <path class="cls-1" d="m92.3,361.41c-1.77,1.07-3.18,2.64-4.06,4.51"/>
  </g>
  <g id="ARC-16" data-name="ARC">
    <path class="cls-1" d="m149.51,391.66c-.27,2.08-.52,4.16-.77,6.24"/>
  </g>
  <g id="ARC-17" data-name="ARC">
    <path class="cls-1" d="m124.62,401.96c-2.81-3.23-6.31-5.8-10.24-7.5"/>
  </g>
  <g id="ARC-18" data-name="ARC">
    <path class="cls-1" d="m113.15,393.81c-3.16-2.25-6.91-3.5-10.78-3.62"/>
  </g>
  <g id="ARC-19" data-name="ARC">
    <path class="cls-1" d="m413.3,333.87c-.42-2.02-1.41-3.89-2.85-5.37"/>
  </g>
  <g id="ARC-20" data-name="ARC">
    <path class="cls-1" d="m223.65,331.84c-.92-11.27-10.81-19.65-22.07-18.73-1.34.11-2.67.35-3.97.72"/>
  </g>
  <g id="ARC-21" data-name="ARC">
    <path class="cls-1" d="m197.6,313.84c-6.89,1.51-12.39,6.68-14.32,13.46"/>
  </g>
  <g id="ARC-22" data-name="ARC">
    <path class="cls-1" d="m120.13,403.37c-2.52-1.59-5.27-2.79-8.16-3.54"/>
  </g>
  <g id="ARC-23" data-name="ARC">
    <path class="cls-1" d="m124.62,401.96c-1.63-.22-3.28.3-4.49,1.42"/>
  </g>
  <g id="ARC-24" data-name="ARC">
    <path class="cls-1" d="m110.74,399.18c-1.97-1.84-4.25-3.31-6.75-4.34"/>
  </g>
  <g id="ARC-25" data-name="ARC">
    <path class="cls-1" d="m103.99,394.85c.28-1.73-.33-3.47-1.63-4.65"/>
  </g>
  <g id="ARC-26" data-name="ARC">
    <path class="cls-1" d="m103.99,394.85c.2,5.81,5.07,10.35,10.88,10.15,1.86-.06,3.68-.62,5.25-1.62"/>
  </g>
  <g id="ARC-27" data-name="ARC">
    <path class="cls-1" d="m110.74,399.18c.39.26.8.48,1.23.65"/>
  </g>
  <g id="ARC-28" data-name="ARC">
    <path class="cls-1" d="m98.51,396.57c-.69,8.68,5.79,16.28,14.47,16.97,4.01.32,8-.91,11.13-3.43"/>
  </g>
  <g id="ARC-29" data-name="ARC">
    <path class="cls-1" d="m129.45,409.15c-1.78-.66-3.78-.32-5.25.88"/>
  </g>
  <g id="ARC-30" data-name="ARC">
    <path class="cls-1" d="m335.04,304.03c-.97-9.99-9.85-17.3-19.84-16.33-1.12.11-2.22.32-3.3.63"/>
  </g>
  <g id="ARC-31" data-name="ARC">
    <path class="cls-1" d="m311.9,288.34c-6.02,1.31-10.86,5.77-12.65,11.67"/>
  </g>
  <g id="ARC-32" data-name="ARC">
    <path class="cls-1" d="m98.53,396.45c.28-1.9-.58-3.78-2.2-4.82"/>
  </g>
  <g id="ARC-33" data-name="ARC">
    <path class="cls-1" d="m437.21,309.15c-2.4,2.14-4.36,4.73-5.77,7.62"/>
  </g>
  <g id="ARC-34" data-name="ARC">
    <path class="cls-1" d="m430.75,317.88c-2.37,3.59-4.37,7.41-5.95,11.42"/>
  </g>
  <g id="ARC-35" data-name="ARC">
    <path class="cls-1" d="m97.48,403.12c-.6,8.85,6.09,16.51,14.94,17.1,3.96.27,7.88-.94,11-3.39"/>
  </g>
  <g id="ARC-36" data-name="ARC">
    <path class="cls-1" d="m128.54,416.48c-1.63-.87-3.62-.74-5.12.35"/>
  </g>
  <g id="ARC-37" data-name="ARC">
    <path class="cls-1" d="m388.2,289.79c-1.18-8.02-8.63-13.56-16.65-12.38-.61.09-1.22.22-1.82.39"/>
  </g>
  <g id="ARC-38" data-name="ARC">
    <path class="cls-1" d="m369.73,277.8c-4.61,1.02-8.37,4.34-9.95,8.8"/>
  </g>
  <g id="ARC-39" data-name="ARC">
    <path class="cls-1" d="m97.48,403.12c.22-1.76-.7-3.47-2.29-4.26"/>
  </g>
  <g id="ARC-40" data-name="ARC">
    <path class="cls-1" d="m385.11,294.49c-3.8-5.28-10.44-7.7-16.74-6.1"/>
  </g>
  <g id="ARC-41" data-name="ARC">
    <path class="cls-1" d="m368.37,288.39c-2.46.58-4.73,1.77-6.61,3.47"/>
  </g>
  <g id="ARC-42" data-name="ARC">
    <path class="cls-1" d="m434.52,321.76c-2.03,2.2-3.93,4.5-5.71,6.9"/>
  </g>
  <g id="ARC-43" data-name="ARC">
    <path class="cls-1" d="m428.81,328.66c-1.36-.48-2.86-.24-4.01.64"/>
  </g>
  <g id="ARC-44" data-name="ARC">
    <path class="cls-1" d="m426.25,336.92c-1.72-.42-3.53.17-4.67,1.52"/>
  </g>
  <g id="ARC-45" data-name="ARC">
    <path class="cls-1" d="m437.21,309.15c-.75,1.61-.52,3.51.6,4.9"/>
  </g>
  <g id="ARC-46" data-name="ARC">
    <path class="cls-1" d="m435.21,320.65c1.22-2.04,2.1-4.27,2.6-6.6"/>
  </g>
  <g id="ARC-47" data-name="ARC">
    <path class="cls-1" d="m434.52,321.76c.27-.34.5-.72.68-1.11"/>
  </g>
  <g id="ARC-48" data-name="ARC">
    <path class="cls-1" d="m428.81,328.66c5.17.64,9.88-3.04,10.52-8.21.28-2.25-.26-4.52-1.52-6.4"/>
  </g>
  <g id="ARC-49" data-name="ARC">
    <path class="cls-1" d="m426.37,336.94c7.64,1.93,15.4-2.71,17.32-10.35,1.14-4.52,0-9.31-3.06-12.84"/>
  </g>
  <g id="ARC-50" data-name="ARC">
    <path class="cls-1" d="m425.8,343.64c-1.8-.31-3.61.48-4.61,2.01"/>
  </g>
  <g id="ARC-51" data-name="ARC">
    <path class="cls-1" d="m440.04,308.45c-.93,1.68-.72,3.76.52,5.22"/>
  </g>
  <g id="ARC-52" data-name="ARC">
    <path class="cls-1" d="m425.8,343.64c8.26,1.64,16.28-3.73,17.92-11.99.08-.39.14-.79.19-1.19"/>
  </g>
  <g id="ARC-53" data-name="ARC">
    <path class="cls-1" d="m320.07,1c-.15,1-.28,1.99-.4,2.99"/>
  </g>
  <g id="ARC-54" data-name="ARC">
    <path class="cls-1" d="m16.13,105.03c-7.72.35-13.7,6.9-13.35,14.62.15,3.22,1.4,6.28,3.54,8.69"/>
  </g>
  <g id="ARC-55" data-name="ARC">
    <path class="cls-1" d="m1.73,123.33c-.62,4.16.68,8.37,3.53,11.45"/>
  </g>
  <g id="ARC-56" data-name="ARC">
    <path class="cls-1" d="m423.56,351.58c-.48.39-.86.87-1.14,1.42"/>
  </g>
  <g id="ARC-57" data-name="ARC">
    <path class="cls-1" d="m15.19,106.55c-4.9,1.24-7.87,6.22-6.63,11.12.2.77.49,1.52.88,2.21"/>
  </g>
</svg>