<?xml version="1.0" encoding="UTF-8"?>
<svg id="_0" data-name="0" xmlns="http://www.w3.org/2000/svg" viewBox="0 0 443.74 474">
  <defs>
    <style>
      .cls-1 {
        fill: none;
        stroke: #000;
        stroke-linecap: round;
        stroke-linejoin: round;
        stroke-width: 3px;
      }
    </style>
  </defs>
  <g id="LWPOLYLINE">
    <polyline class="cls-1" points="84.93 392.27 84.68 391.97 84.56 391.54"/>
  </g>
  <g id="LWPOLYLINE-2" data-name="LWPOLYLINE">
    <polyline class="cls-1" points="367.24 86.2 367.23 86.23 367.1 86.25"/>
  </g>
  <g id="LWPOLYLINE-3" data-name="LWPOLYLINE">
    <polyline class="cls-1" points="89.95 103.87 87.93 103.2 86.37 102.71"/>
  </g>
  <g id="LWPOLYLINE-4" data-name="LWPOLYLINE">
    <polyline class="cls-1" points="84.61 387.01 86.17 387.91 88.19 389.05"/>
  </g>
  <g id="LWPOLYLINE-5" data-name="LWPOLYLINE">
    <polyline class="cls-1" points="89.95 103.87 90.71 104.1 91.5 104.28 91.94 104.31 92.07 104.29 92.14 104.27 92.17 104.26 92.21 104.24 92.23 104.23 92.24 104.21 92.26 104.19 92.27 104.17 92.28 104.14 92.28 104.05 92.15 103.8 91.35 103.07 90.96 102.78"/>
  </g>
  <g id="LWPOLYLINE-6" data-name="LWPOLYLINE">
    <polyline class="cls-1" points="95.12 242.69 95.14 242.69 95.15 242.7"/>
  </g>
  <g id="LWPOLYLINE-7" data-name="LWPOLYLINE">
    <polyline class="cls-1" points="95.07 255.61 95.06 255.61 95.04 255.6"/>
  </g>
  <g id="LWPOLYLINE-8" data-name="LWPOLYLINE">
    <polyline class="cls-1" points="89.18 390.04 89.76 390.29 90.28 390.49 90.48 390.54 90.51 390.53 90.51 390.51 90.51 390.5 90.49 390.48 90.48 390.47 90.47 390.46 90.45 390.44 90.43 390.42 90.4 390.39 90.28 390.31 89.92 390.06 88.7 389.33 88.19 389.05"/>
  </g>
  <g id="LWPOLYLINE-9" data-name="LWPOLYLINE">
    <polyline class="cls-1" points="87.67 98.78 87.66 98.98 87.64 99.16 87.61 99.32 87.57 99.46 87.52 99.56 87.46 99.63 87.4 99.66 87.39 99.67"/>
  </g>
  <g id="LWPOLYLINE-10" data-name="LWPOLYLINE">
    <polyline class="cls-1" points="83.86 391.67 84.04 391.66 84.21 391.64 84.35 391.62 84.46 391.59 84.54 391.56 84.58 391.53 84.58 391.51"/>
  </g>
  <g id="LWPOLYLINE-11" data-name="LWPOLYLINE">
    <polyline class="cls-1" points="11.66 472.29 11.64 472.35 11.61 472.39 11.58 472.43 11.55 472.46 11.52 472.48 11.49 472.49 11.48 472.5"/>
  </g>
  <g id="LWPOLYLINE-12" data-name="LWPOLYLINE">
    <polyline class="cls-1" points="438.49 452.04 438.51 452.04 438.57 452 438.63 451.94 438.68 451.83 438.72 451.69 438.75 451.53 438.77 451.35 438.77 451.15"/>
  </g>
  <g id="LWPOLYLINE-13" data-name="LWPOLYLINE">
    <polyline class="cls-1" points="85.53 392.45 85.14 392.39 84.92 392.25"/>
  </g>
  <g id="LWPOLYLINE-14" data-name="LWPOLYLINE">
    <polyline class="cls-1" points="439.38 451.07 439.42 451.05 439.46 451.04 439.48 451.02 439.49 451.01 439.5 450.99"/>
  </g>
  <g id="LWPOLYLINE-15" data-name="LWPOLYLINE">
    <polyline class="cls-1" points="103.43 394 103.43 394.19 103.41 394.37 103.38 394.54 103.34 394.67 103.29 394.78 103.23 394.85 103.17 394.88 103.15 394.88"/>
  </g>
  <g id="LWPOLYLINE-16" data-name="LWPOLYLINE">
    <polyline class="cls-1" points="115.2 393.43 115.19 393.63 115.17 393.81 115.14 393.97 115.1 394.11 115.05 394.21 115 394.29 114.94 394.32 114.92 394.32"/>
  </g>
  <g id="LWPOLYLINE-17" data-name="LWPOLYLINE">
    <polyline class="cls-1" points="364.72 382.35 364.74 382.35 364.8 382.32 364.85 382.25 364.9 382.14 364.94 382 364.97 381.84 364.99 381.66 365 381.47"/>
  </g>
  <g id="LWPOLYLINE-18" data-name="LWPOLYLINE">
    <polyline class="cls-1" points="375.21 380.98 375.39 380.96 375.56 380.95 375.7 380.92 375.81 380.9 375.88 380.87 375.92 380.83 375.93 380.82"/>
  </g>
  <g id="LWPOLYLINE-19" data-name="LWPOLYLINE">
    <polyline class="cls-1" points="374.93 381.86 374.94 381.86 375 381.83 375.06 381.76 375.11 381.65 375.15 381.52 375.18 381.35 375.2 381.17 375.21 380.98"/>
  </g>
  <g id="LINE">
    <line class="cls-1" x1="84.58" y1="391.51" x2="86.38" y2="100.79"/>
  </g>
  <g id="LINE-2" data-name="LINE">
    <line class="cls-1" x1="87.39" y1="99.67" x2="367.15" y2="86.26"/>
  </g>
  <g id="LINE-3" data-name="LINE">
    <line class="cls-1" x1="11.48" y1="472.5" x2="438.49" y2="452.04"/>
  </g>
  <g id="LINE-4" data-name="LINE">
    <line class="cls-1" x1="2.05" y1="468.65" x2="11.02" y2="472.42"/>
  </g>
  <g id="LINE-5" data-name="LINE">
    <line class="cls-1" x1="367.25" y1="86.21" x2="367.66" y2="86.4"/>
  </g>
  <g id="LINE-6" data-name="LINE">
    <line class="cls-1" x1="439.5" y1="450.99" x2="442.24" y2="7.26"/>
  </g>
  <g id="LINE-7" data-name="LINE">
    <line class="cls-1" x1="441.72" y1="6.35" x2="433.68" y2="1.62"/>
  </g>
  <g id="LINE-8" data-name="LINE">
    <line class="cls-1" x1="103.15" y1="394.88" x2="374.93" y2="381.86"/>
  </g>
  <g id="LINE-9" data-name="LINE">
    <line class="cls-1" x1="90.22" y1="390.47" x2="102.76" y2="394.83"/>
  </g>
  <g id="LINE-10" data-name="LINE">
    <line class="cls-1" x1="375.93" y1="380.82" x2="377.68" y2="98.41"/>
  </g>
  <g id="LINE-11" data-name="LINE">
    <line class="cls-1" x1="377.22" y1="97.53" x2="367.49" y2="90.85"/>
  </g>
  <g id="LINE-12" data-name="LINE">
    <line class="cls-1" x1="359.85" y1="86.71" x2="359.68" y2="86.62"/>
  </g>
  <g id="LINE-13" data-name="LINE">
    <line class="cls-1" x1="13.18" y1="27.76" x2="10.44" y2="471.49"/>
  </g>
  <g id="LINE-14" data-name="LINE">
    <line class="cls-1" x1="14.5" y1="27.88" x2="11.76" y2="471.61"/>
  </g>
  <g id="LINE-15" data-name="LINE">
    <line class="cls-1" x1="441.2" y1="6.22" x2="14.19" y2="26.68"/>
  </g>
  <g id="LINE-16" data-name="LINE">
    <line class="cls-1" x1="441.52" y1="7.42" x2="14.5" y2="27.88"/>
  </g>
  <g id="LINE-17" data-name="LINE">
    <line class="cls-1" x1="438.77" y1="451.15" x2="441.52" y2="7.42"/>
  </g>
  <g id="LINE-18" data-name="LINE">
    <line class="cls-1" x1="11.76" y1="471.61" x2="438.77" y2="451.15"/>
  </g>
  <g id="LINE-19" data-name="LINE">
    <line class="cls-1" x1="83.86" y1="391.67" x2="85.65" y2="100.95"/>
  </g>
  <g id="LINE-20" data-name="LINE">
    <line class="cls-1" x1="87.67" y1="98.78" x2="367.43" y2="85.37"/>
  </g>
  <g id="LINE-21" data-name="LINE">
    <line class="cls-1" x1="5.25" y1="22.01" x2="14.19" y2="26.68"/>
  </g>
  <g id="LINE-22" data-name="LINE">
    <line class="cls-1" x1="13.18" y1="27.76" x2="4.25" y2="23.08"/>
  </g>
  <g id="LINE-23" data-name="LINE">
    <line class="cls-1" x1="1.5" y1="467.75" x2="1.5" y2="467.62"/>
  </g>
  <g id="LINE-24" data-name="LINE">
    <line class="cls-1" x1="4.25" y1="23.21" x2="1.5" y2="467.62"/>
  </g>
  <g id="LINE-25" data-name="LINE">
    <line class="cls-1" x1="4.25" y1="23.21" x2="4.25" y2="23.08"/>
  </g>
  <g id="LINE-26" data-name="LINE">
    <line class="cls-1" x1="1.5" y1="467.75" x2="10.44" y2="471.49"/>
  </g>
  <g id="LINE-27" data-name="LINE">
    <line class="cls-1" x1="433.2" y1="1.5" x2="5.25" y2="22.01"/>
  </g>
  <g id="LINE-28" data-name="LINE">
    <line class="cls-1" x1="441.2" y1="6.22" x2="433.2" y2="1.5"/>
  </g>
  <g id="LINE-29" data-name="LINE">
    <line class="cls-1" x1="87.39" y1="99.67" x2="87.34" y2="99.65"/>
  </g>
  <g id="LINE-30" data-name="LINE">
    <line class="cls-1" x1="11.04" y1="472.42" x2="11.02" y2="472.42"/>
  </g>
  <g id="LINE-31" data-name="LINE">
    <line class="cls-1" x1="85.76" y1="263" x2="85.78" y2="259.33"/>
  </g>
  <g id="LINE-32" data-name="LINE">
    <line class="cls-1" x1="100.31" y1="269.48" x2="85.76" y2="263"/>
  </g>
  <g id="LINE-33" data-name="LINE">
    <line class="cls-1" x1="100.38" y1="257.99" x2="100.31" y2="269.48"/>
  </g>
  <g id="LINE-34" data-name="LINE">
    <line class="cls-1" x1="95.07" y1="255.61" x2="100.38" y2="257.99"/>
  </g>
  <g id="LINE-35" data-name="LINE">
    <line class="cls-1" x1="95.15" y1="242.7" x2="95.07" y2="255.61"/>
  </g>
  <g id="LINE-36" data-name="LINE">
    <line class="cls-1" x1="100.46" y1="245.07" x2="95.15" y2="242.7"/>
  </g>
  <g id="LINE-37" data-name="LINE">
    <line class="cls-1" x1="100.53" y1="233.58" x2="100.46" y2="245.07"/>
  </g>
  <g id="LINE-38" data-name="LINE">
    <line class="cls-1" x1="85.98" y1="227.06" x2="100.53" y2="233.58"/>
  </g>
  <g id="LINE-39" data-name="LINE">
    <line class="cls-1" x1="85.96" y1="230.73" x2="85.98" y2="227.06"/>
  </g>
  <g id="LINE-40" data-name="LINE">
    <line class="cls-1" x1="103.86" y1="111.47" x2="89.95" y2="103.87"/>
  </g>
  <g id="LINE-41" data-name="LINE">
    <line class="cls-1" x1="102.12" y1="393.89" x2="103.86" y2="111.47"/>
  </g>
  <g id="LINE-42" data-name="LINE">
    <line class="cls-1" x1="88.19" y1="389.05" x2="102.12" y2="393.89"/>
  </g>
  <g id="LINE-43" data-name="LINE">
    <line class="cls-1" x1="105.18" y1="111.59" x2="103.43" y2="394"/>
  </g>
  <g id="LINE-44" data-name="LINE">
    <line class="cls-1" x1="90.96" y1="102.78" x2="104.87" y2="110.39"/>
  </g>
  <g id="LINE-45" data-name="LINE">
    <line class="cls-1" x1="376.95" y1="98.56" x2="105.18" y2="111.59"/>
  </g>
  <g id="LINE-46" data-name="LINE">
    <line class="cls-1" x1="376.64" y1="97.37" x2="365.39" y2="89.64"/>
  </g>
  <g id="LINE-47" data-name="LINE">
    <line class="cls-1" x1="104.87" y1="110.39" x2="376.64" y2="97.37"/>
  </g>
  <g id="LINE-48" data-name="LINE">
    <line class="cls-1" x1="120.27" y1="108.12" x2="107.57" y2="100.15"/>
  </g>
  <g id="LINE-49" data-name="LINE">
    <line class="cls-1" x1="120.27" y1="108.12" x2="131.63" y2="107.58"/>
  </g>
  <g id="LINE-50" data-name="LINE">
    <line class="cls-1" x1="118.24" y1="99.64" x2="131.63" y2="107.58"/>
  </g>
  <g id="LINE-51" data-name="LINE">
    <line class="cls-1" x1="107.57" y1="100.15" x2="118.24" y2="99.64"/>
  </g>
  <g id="LINE-52" data-name="LINE">
    <line class="cls-1" x1="140.73" y1="98.56" x2="154.13" y2="106.5"/>
  </g>
  <g id="LINE-53" data-name="LINE">
    <line class="cls-1" x1="130.07" y1="99.08" x2="140.73" y2="98.56"/>
  </g>
  <g id="LINE-54" data-name="LINE">
    <line class="cls-1" x1="142.77" y1="107.04" x2="130.07" y2="99.08"/>
  </g>
  <g id="LINE-55" data-name="LINE">
    <line class="cls-1" x1="142.77" y1="107.04" x2="154.13" y2="106.5"/>
  </g>
  <g id="LINE-56" data-name="LINE">
    <line class="cls-1" x1="163.23" y1="97.49" x2="176.62" y2="105.42"/>
  </g>
  <g id="LINE-57" data-name="LINE">
    <line class="cls-1" x1="152.56" y1="98" x2="163.23" y2="97.49"/>
  </g>
  <g id="LINE-58" data-name="LINE">
    <line class="cls-1" x1="165.27" y1="105.97" x2="152.56" y2="98"/>
  </g>
  <g id="LINE-59" data-name="LINE">
    <line class="cls-1" x1="165.27" y1="105.97" x2="176.62" y2="105.42"/>
  </g>
  <g id="LINE-60" data-name="LINE">
    <line class="cls-1" x1="185.72" y1="96.41" x2="199.12" y2="104.34"/>
  </g>
  <g id="LINE-61" data-name="LINE">
    <line class="cls-1" x1="175.06" y1="96.92" x2="185.72" y2="96.41"/>
  </g>
  <g id="LINE-62" data-name="LINE">
    <line class="cls-1" x1="187.76" y1="104.89" x2="175.06" y2="96.92"/>
  </g>
  <g id="LINE-63" data-name="LINE">
    <line class="cls-1" x1="187.76" y1="104.89" x2="199.12" y2="104.34"/>
  </g>
  <g id="LINE-64" data-name="LINE">
    <line class="cls-1" x1="208.22" y1="95.33" x2="221.61" y2="103.27"/>
  </g>
  <g id="LINE-65" data-name="LINE">
    <line class="cls-1" x1="197.55" y1="95.84" x2="208.22" y2="95.33"/>
  </g>
  <g id="LINE-66" data-name="LINE">
    <line class="cls-1" x1="210.26" y1="103.81" x2="197.55" y2="95.84"/>
  </g>
  <g id="LINE-67" data-name="LINE">
    <line class="cls-1" x1="210.26" y1="103.81" x2="221.61" y2="103.27"/>
  </g>
  <g id="LINE-68" data-name="LINE">
    <line class="cls-1" x1="230.71" y1="94.25" x2="244.11" y2="102.19"/>
  </g>
  <g id="LINE-69" data-name="LINE">
    <line class="cls-1" x1="220.05" y1="94.76" x2="230.71" y2="94.25"/>
  </g>
  <g id="LINE-70" data-name="LINE">
    <line class="cls-1" x1="232.75" y1="102.73" x2="220.05" y2="94.76"/>
  </g>
  <g id="LINE-71" data-name="LINE">
    <line class="cls-1" x1="232.75" y1="102.73" x2="244.11" y2="102.19"/>
  </g>
  <g id="LINE-72" data-name="LINE">
    <line class="cls-1" x1="320.7" y1="89.94" x2="334.09" y2="97.88"/>
  </g>
  <g id="LINE-73" data-name="LINE">
    <line class="cls-1" x1="310.03" y1="90.45" x2="320.7" y2="89.94"/>
  </g>
  <g id="LINE-74" data-name="LINE">
    <line class="cls-1" x1="322.73" y1="98.42" x2="310.03" y2="90.45"/>
  </g>
  <g id="LINE-75" data-name="LINE">
    <line class="cls-1" x1="322.73" y1="98.42" x2="334.09" y2="97.88"/>
  </g>
  <g id="LINE-76" data-name="LINE">
    <line class="cls-1" x1="343.19" y1="88.86" x2="356.58" y2="96.8"/>
  </g>
  <g id="LINE-77" data-name="LINE">
    <line class="cls-1" x1="332.52" y1="89.38" x2="343.19" y2="88.86"/>
  </g>
  <g id="LINE-78" data-name="LINE">
    <line class="cls-1" x1="345.23" y1="97.34" x2="332.52" y2="89.38"/>
  </g>
  <g id="LINE-79" data-name="LINE">
    <line class="cls-1" x1="345.23" y1="97.34" x2="356.58" y2="96.8"/>
  </g>
  <g id="LINE-80" data-name="LINE">
    <line class="cls-1" x1="298.2" y1="91.02" x2="311.59" y2="98.96"/>
  </g>
  <g id="LINE-81" data-name="LINE">
    <line class="cls-1" x1="287.53" y1="91.53" x2="298.2" y2="91.02"/>
  </g>
  <g id="LINE-82" data-name="LINE">
    <line class="cls-1" x1="300.24" y1="99.5" x2="287.53" y2="91.53"/>
  </g>
  <g id="LINE-83" data-name="LINE">
    <line class="cls-1" x1="300.24" y1="99.5" x2="311.59" y2="98.96"/>
  </g>
  <g id="LINE-84" data-name="LINE">
    <line class="cls-1" x1="275.71" y1="92.1" x2="289.1" y2="100.03"/>
  </g>
  <g id="LINE-85" data-name="LINE">
    <line class="cls-1" x1="265.04" y1="92.61" x2="275.71" y2="92.1"/>
  </g>
  <g id="LINE-86" data-name="LINE">
    <line class="cls-1" x1="277.74" y1="100.58" x2="265.04" y2="92.61"/>
  </g>
  <g id="LINE-87" data-name="LINE">
    <line class="cls-1" x1="277.74" y1="100.58" x2="289.1" y2="100.03"/>
  </g>
  <g id="LINE-88" data-name="LINE">
    <line class="cls-1" x1="253.21" y1="93.18" x2="266.6" y2="101.11"/>
  </g>
  <g id="LINE-89" data-name="LINE">
    <line class="cls-1" x1="242.54" y1="93.69" x2="253.21" y2="93.18"/>
  </g>
  <g id="LINE-90" data-name="LINE">
    <line class="cls-1" x1="255.25" y1="101.66" x2="242.54" y2="93.69"/>
  </g>
  <g id="LINE-91" data-name="LINE">
    <line class="cls-1" x1="255.25" y1="101.66" x2="266.6" y2="101.11"/>
  </g>
  <g id="LINE-92" data-name="LINE">
    <line class="cls-1" x1="375.21" y1="380.98" x2="376.95" y2="98.56"/>
  </g>
  <g id="LINE-93" data-name="LINE">
    <line class="cls-1" x1="103.43" y1="394" x2="375.21" y2="380.98"/>
  </g>
  <g id="LINE-94" data-name="LINE">
    <line class="cls-1" x1="117.98" y1="104.84" x2="118.24" y2="99.64"/>
  </g>
  <g id="LINE-95" data-name="LINE">
    <line class="cls-1" x1="118.63" y1="105.16" x2="117.98" y2="104.84"/>
  </g>
  <g id="LINE-96" data-name="LINE">
    <line class="cls-1" x1="140.38" y1="105.55" x2="140.73" y2="98.56"/>
  </g>
  <g id="LINE-97" data-name="LINE">
    <line class="cls-1" x1="94.42" y1="238.11" x2="100.48" y2="240.68"/>
  </g>
  <g id="LINE-98" data-name="LINE">
    <line class="cls-1" x1="86.62" y1="238.54" x2="95.12" y2="242.69"/>
  </g>
  <g id="LINE-99" data-name="LINE">
    <line class="cls-1" x1="86.62" y1="238.54" x2="94.42" y2="238.11"/>
  </g>
  <g id="LINE-100" data-name="LINE">
    <line class="cls-1" x1="162.88" y1="104.47" x2="163.23" y2="97.49"/>
  </g>
  <g id="LINE-101" data-name="LINE">
    <line class="cls-1" x1="94.26" y1="262.52" x2="100.33" y2="265.09"/>
  </g>
  <g id="LINE-102" data-name="LINE">
    <line class="cls-1" x1="85.76" y1="263" x2="94.26" y2="262.52"/>
  </g>
  <g id="LINE-103" data-name="LINE">
    <line class="cls-1" x1="185.37" y1="103.39" x2="185.72" y2="96.41"/>
  </g>
  <g id="LINE-104" data-name="LINE">
    <line class="cls-1" x1="86.54" y1="251.45" x2="86.51" y2="257.11"/>
  </g>
  <g id="LINE-105" data-name="LINE">
    <line class="cls-1" x1="86.65" y1="232.89" x2="86.62" y2="238.54"/>
  </g>
  <g id="LINE-106" data-name="LINE">
    <line class="cls-1" x1="95.04" y1="255.6" x2="95.12" y2="242.69"/>
  </g>
  <g id="LINE-107" data-name="LINE">
    <line class="cls-1" x1="95.04" y1="255.6" x2="86.54" y2="251.45"/>
  </g>
  <g id="LINE-108" data-name="LINE">
    <line class="cls-1" x1="207.87" y1="102.31" x2="208.22" y2="95.33"/>
  </g>
  <g id="LINE-109" data-name="LINE">
    <line class="cls-1" x1="117.98" y1="104.84" x2="115.26" y2="104.97"/>
  </g>
  <g id="LINE-110" data-name="LINE">
    <line class="cls-1" x1="230.36" y1="101.24" x2="230.71" y2="94.25"/>
  </g>
  <g id="LINE-111" data-name="LINE">
    <line class="cls-1" x1="252.86" y1="100.16" x2="253.21" y2="93.18"/>
  </g>
  <g id="LINE-112" data-name="LINE">
    <line class="cls-1" x1="100.51" y1="236.98" x2="94.42" y2="237.26"/>
  </g>
  <g id="LINE-113" data-name="LINE">
    <line class="cls-1" x1="94.42" y1="237.26" x2="94.42" y2="238.11"/>
  </g>
  <g id="LINE-114" data-name="LINE">
    <line class="cls-1" x1="275.35" y1="99.08" x2="275.71" y2="92.1"/>
  </g>
  <g id="LINE-115" data-name="LINE">
    <line class="cls-1" x1="100.36" y1="261.4" x2="94.27" y2="261.68"/>
  </g>
  <g id="LINE-116" data-name="LINE">
    <line class="cls-1" x1="94.27" y1="261.68" x2="94.26" y2="262.52"/>
  </g>
  <g id="LINE-117" data-name="LINE">
    <line class="cls-1" x1="297.85" y1="98" x2="298.2" y2="91.02"/>
  </g>
  <g id="LINE-118" data-name="LINE">
    <line class="cls-1" x1="320.34" y1="96.92" x2="320.7" y2="89.94"/>
  </g>
  <g id="LINE-119" data-name="LINE">
    <line class="cls-1" x1="343.58" y1="94.38" x2="342.93" y2="94.07"/>
  </g>
  <g id="LINE-120" data-name="LINE">
    <line class="cls-1" x1="342.93" y1="94.07" x2="343.19" y2="88.86"/>
  </g>
  <g id="LINE-121" data-name="LINE">
    <line class="cls-1" x1="342.93" y1="94.07" x2="340.21" y2="94.2"/>
  </g>
  <g id="LINE-122" data-name="LINE">
    <line class="cls-1" x1="97.74" y1="393.08" x2="85.84" y2="393.65"/>
  </g>
  <g id="LINE-123" data-name="LINE">
    <line class="cls-1" x1="369.42" y1="87.36" x2="369.39" y2="92.15"/>
  </g>
  <g id="LINE-124" data-name="LINE">
    <line class="cls-1" x1="94.67" y1="392.01" x2="85.53" y2="392.45"/>
  </g>
  <g id="LINE-125" data-name="LINE">
    <line class="cls-1" x1="85.53" y1="392.45" x2="84.68" y2="391.95"/>
  </g>
  <g id="LINE-126" data-name="LINE">
    <line class="cls-1" x1="368.1" y1="87.24" x2="368.07" y2="91.25"/>
  </g>
  <g id="LINE-127" data-name="LINE">
    <line class="cls-1" x1="365.9" y1="86.32" x2="368.1" y2="87.24"/>
  </g>
  <g id="LINE-128" data-name="LINE">
    <line class="cls-1" x1="441.58" y1="6.28" x2="441.2" y2="6.22"/>
  </g>
  <g id="LINE-129" data-name="LINE">
    <line class="cls-1" x1="85.78" y1="259.33" x2="85.4" y2="259.19"/>
  </g>
  <g id="LINE-130" data-name="LINE">
    <line class="cls-1" x1="85.58" y1="230.53" x2="85.96" y2="230.73"/>
  </g>
  <g id="LINE-131" data-name="LINE">
    <line class="cls-1" x1="85.41" y1="256.55" x2="86.51" y2="257.11"/>
  </g>
  <g id="LINE-132" data-name="LINE">
    <line class="cls-1" x1="86.65" y1="232.89" x2="85.56" y2="232.38"/>
  </g>
  <g id="LINE-133" data-name="LINE">
    <line class="cls-1" x1="115.77" y1="105.3" x2="118.63" y2="105.16"/>
  </g>
  <g id="LINE-134" data-name="LINE">
    <line class="cls-1" x1="86.46" y1="232.27" x2="85.57" y2="231.84"/>
  </g>
  <g id="LINE-135" data-name="LINE">
    <line class="cls-1" x1="340.72" y1="94.52" x2="343.58" y2="94.38"/>
  </g>
  <g id="ARC">
    <path class="cls-1" d="m87.49,99.62c-.64.04-1.14.57-1.13,1.21"/>
  </g>
  <g id="ARC-2" data-name="ARC">
    <path class="cls-1" d="m11.05,472.41c.13.08.28.1.43.08"/>
  </g>
  <g id="ARC-3" data-name="ARC">
    <path class="cls-1" d="m442.23,7.26c.02-.44-.25-.83-.65-.99"/>
  </g>
  <g id="ARC-4" data-name="ARC">
    <path class="cls-1" d="m438.49,452.02c.53,0,.96-.42,1-.94"/>
  </g>
  <g id="ARC-5" data-name="ARC">
    <path class="cls-1" d="m102.76,394.83c.13.04.26.06.4.06"/>
  </g>
  <g id="ARC-6" data-name="ARC">
    <path class="cls-1" d="m377.68,98.41c0-.35-.17-.68-.46-.87"/>
  </g>
  <g id="ARC-7" data-name="ARC">
    <path class="cls-1" d="m374.93,381.86c.56-.03,1-.49,1-1.05"/>
  </g>
  <g id="ARC-8" data-name="ARC">
    <path class="cls-1" d="m14.5,27.88c0-.26-.03-.52-.09-.78"/>
  </g>
  <g id="ARC-9" data-name="ARC">
    <path class="cls-1" d="m13.18,27.76c.43.11.88.15,1.32.11"/>
  </g>
  <g id="ARC-10" data-name="ARC">
    <path class="cls-1" d="m14.19,26.68c-.57.05-1,.52-1.01,1.09"/>
  </g>
  <g id="ARC-11" data-name="ARC">
    <path class="cls-1" d="m14.41,27.1c-.02-.16-.11-.31-.23-.43"/>
  </g>
  <g id="ARC-12" data-name="ARC">
    <path class="cls-1" d="m10.44,471.49c.43.11.88.15,1.32.11"/>
  </g>
  <g id="ARC-13" data-name="ARC">
    <path class="cls-1" d="m441.43,6.64c-.02-.16-.11-.31-.23-.43"/>
  </g>
  <g id="ARC-14" data-name="ARC">
    <path class="cls-1" d="m441.52,7.42c0-.26-.03-.52-.09-.78"/>
  </g>
  <g id="ARC-15" data-name="ARC">
    <path class="cls-1" d="m87.67,98.78c-1.14.08-2.02,1.03-2.01,2.17"/>
  </g>
  <g id="ARC-16" data-name="ARC">
    <path class="cls-1" d="m83.86,391.67c-.03,1.06.81,1.95,1.87,1.98.04,0,.08,0,.11,0"/>
  </g>
  <g id="ARC-17" data-name="ARC">
    <path class="cls-1" d="m369.42,87.36c.03-1.06-.81-1.95-1.87-1.98-.04,0-.08,0-.11,0"/>
  </g>
  <g id="ARC-18" data-name="ARC">
    <path class="cls-1" d="m5.25,22.01c-.56.04-1,.51-1,1.08"/>
  </g>
  <g id="ARC-19" data-name="ARC">
    <path class="cls-1" d="m11.66,472.29c.07-.22.1-.45.1-.68"/>
  </g>
  <g id="ARC-20" data-name="ARC">
    <path class="cls-1" d="m1.5,467.75c0,.4.22.76.59.92"/>
  </g>
  <g id="ARC-21" data-name="ARC">
    <path class="cls-1" d="m85.84,393.65c.05-.43-.06-.86-.32-1.2"/>
  </g>
  <g id="ARC-22" data-name="ARC">
    <path class="cls-1" d="m368.1,87.24c.43.11.88.15,1.32.11"/>
  </g>
  <g id="ARC-23" data-name="ARC">
    <path class="cls-1" d="m438.77,451.15c.2,0,.41-.03.61-.08"/>
  </g>
  <g id="ARC-24" data-name="ARC">
    <path class="cls-1" d="m433.68,1.64c-.14-.1-.31-.15-.48-.14"/>
  </g>
  <g id="ARC-25" data-name="ARC">
    <path class="cls-1" d="m105.18,111.59c.05-.42-.06-.85-.31-1.2"/>
  </g>
  <g id="ARC-26" data-name="ARC">
    <path class="cls-1" d="m103.86,111.47c.43.11.88.15,1.32.11"/>
  </g>
  <g id="ARC-27" data-name="ARC">
    <path class="cls-1" d="m104.87,110.39c-.56.05-1,.52-1.01,1.09"/>
  </g>
  <g id="ARC-28" data-name="ARC">
    <path class="cls-1" d="m102.12,393.89c.43.11.88.15,1.32.11"/>
  </g>
  <g id="ARC-29" data-name="ARC">
    <path class="cls-1" d="m116.94,111.02c.05-.42-.06-.85-.31-1.2"/>
  </g>
  <g id="ARC-30" data-name="ARC">
    <path class="cls-1" d="m365.39,89.64c-1.89-1.03-3.79-2.03-5.71-3.02"/>
  </g>
  <g id="ARC-31" data-name="ARC">
    <path class="cls-1" d="m86.82,99.83c1.36,1.01,2.74,1.99,4.13,2.96"/>
  </g>
  <g id="ARC-32" data-name="ARC">
    <path class="cls-1" d="m366.75,99.05c.05-.42-.06-.85-.31-1.2"/>
  </g>
  <g id="ARC-33" data-name="ARC">
    <path class="cls-1" d="m119.35,107.54c.09-.86-.17-1.72-.72-2.38"/>
  </g>
  <g id="ARC-34" data-name="ARC">
    <path class="cls-1" d="m86.65,232.89c0-.22-.07-.44-.2-.62"/>
  </g>
  <g id="ARC-35" data-name="ARC">
    <path class="cls-1" d="m85.96,230.73c0,.55.17,1.09.5,1.54"/>
  </g>
  <g id="ARC-36" data-name="ARC">
    <path class="cls-1" d="m86.3,257.74c-.33.46-.51,1.02-.51,1.59"/>
  </g>
  <g id="ARC-37" data-name="ARC">
    <path class="cls-1" d="m86.3,257.74c.13-.19.2-.41.21-.63"/>
  </g>
  <g id="ARC-38" data-name="ARC">
    <path class="cls-1" d="m84.6,387.92c1.52.73,3.04,1.43,4.58,2.11"/>
  </g>
  <g id="ARC-39" data-name="ARC">
    <path class="cls-1" d="m376.95,98.56c.05-.42-.06-.85-.31-1.2"/>
  </g>
  <g id="ARC-40" data-name="ARC">
    <path class="cls-1" d="m367.49,90.85c-.68-.44-1.39-.84-2.11-1.22"/>
  </g>
  <g id="ARC-41" data-name="ARC">
    <path class="cls-1" d="m344.3,96.76c.07-.86-.19-1.71-.72-2.38"/>
  </g>
  <g id="ARC-42" data-name="ARC">
    <path class="cls-1" d="m85.65,100.95c.24.02.47-.03.69-.13"/>
  </g>
  <g id="ARC-43" data-name="ARC">
    <path class="cls-1" d="m367.24,86.2c.15-.25.22-.54.19-.83"/>
  </g>
  <g id="ARC-44" data-name="ARC">
    <path class="cls-1" d="m10.44,471.49c0,.4.22.76.59.92"/>
  </g>
  <g id="ARC-45" data-name="ARC">
    <path class="cls-1" d="m368.1,87.24c.03-.34-.15-.66-.45-.83"/>
  </g>
  <g id="ARC-46" data-name="ARC">
    <path class="cls-1" d="m441.52,7.42c.25.03.5-.03.72-.16"/>
  </g>
  <g id="ARC-47" data-name="ARC">
    <path class="cls-1" d="m102.12,393.89c-.01.42.25.8.64.94"/>
  </g>
  <g id="ARC-48" data-name="ARC">
    <path class="cls-1" d="m377.22,97.53c-.17-.12-.37-.17-.58-.16"/>
  </g>
  <g id="ARC-49" data-name="ARC">
    <path class="cls-1" d="m376.95,98.56c.25.03.5-.03.72-.16"/>
  </g>
</svg>